font.ufo
<glyph name="exclam" format="1">
  <advance width="321"/>
  <unicode hex="0021"/>
  <outline>
    <contour>
      <point x="221" y="229" type="line"/>
      <point x="240" y="722" type="line"/>
      <point x="80" y="722" type="line"/>
      <point x="99" y="229" type="line"/>
    </contour>
    <contour>
      <point x="252" y="64" type="curve"/>
      <point x="252" y="114"/>
      <point x="212" y="138"/>
      <point x="159" y="138" type="curve"/>
      <point x="106" y="138"/>
      <point x="70" y="111"/>
      <point x="70" y="64" type="curve"/>
      <point x="251" y="64"/>
      <point x="70" y="64"/>
      <point x="252" y="64" type="curve"/>
      <point x="252" y="12"/>
      <point x="212" y="-10"/>
      <point x="158" y="-10" type="curve"/>
      <point x="105" y="-10"/>
      <point x="70" y="15"/>
      <point x="70" y="64" type="curve"/>
      <point x="251" y="64"/>
      <point x="70" y="64"/>
    </contour>
  </outline>
</glyph>
<glyph name="quotedbl" format="1">
  <advance width="532"/>
  <unicode hex="0022"/>
  <outline>
    <contour>
      <point x="224" y="613" type="line"/>
      <point x="234" y="846" type="line"/>
      <point x="61" y="846" type="line"/>
      <point x="71" y="613" type="line"/>
    </contour>
    <contour>
      <point x="462" y="613" type="line"/>
      <point x="471" y="846" type="line"/>
      <point x="298" y="846" type="line"/>
      <point x="308" y="613" type="line"/>
    </contour>
  </outline>
</glyph>
<glyph name="numbersign" format="1">
  <advance width="844"/>
  <unicode hex="0023"/>
  <outline>
    <contour>
      <point x="45" y="215" type="line"/>
      <point x="667" y="215" type="line"/>
      <point x="713" y="330" type="line"/>
      <point x="92" y="330" type="line"/>
    </contour>
    <contour>
      <point x="126" y="426" type="line"/>
      <point x="754" y="426" type="line"/>
      <point x="799" y="541" type="line"/>
      <point x="172" y="541" type="line"/>
    </contour>
    <contour>
      <point x="531" y="39" type="line"/>
      <point x="801" y="722" type="line"/>
      <point x="645" y="722" type="line"/>
      <point x="375" y="39" type="line"/>
    </contour>
    <contour>
      <point x="200" y="46" type="line"/>
      <point x="468" y="722" type="line"/>
      <point x="312" y="722" type="line"/>
      <point x="51" y="46" type="line"/>
    </contour>
  </outline>
</glyph>
<glyph name="dollar" format="1">
  <advance width="732"/>
  <unicode hex="0024"/>
  <outline>
    <contour>
      <point x="184" y="91" type="curve"/>
      <point x="184" y="211"/>
      <point x="184" y="118"/>
      <point x="184" y="238" type="curve"/>
      <point x="65" y="238"/>
      <point x="184" y="238"/>
      <point x="65" y="238" type="curve"/>
      <point x="65" y="118"/>
      <point x="65" y="211"/>
      <point x="65" y="91" type="curve"/>
      <point x="184" y="91"/>
      <point x="65" y="91"/>
    </contour>
    <contour>
      <point x="517" y="636" type="curve"/>
      <point x="517" y="516"/>
      <point x="517" y="609"/>
      <point x="517" y="489" type="curve"/>
      <point x="636" y="489"/>
      <point x="517" y="489"/>
      <point x="636" y="489" type="curve"/>
      <point x="636" y="609"/>
      <point x="636" y="516"/>
      <point x="636" y="636" type="curve"/>
      <point x="517" y="636"/>
      <point x="636" y="636"/>
    </contour>
    <contour>
      <point x="421" y="-38" type="curve"/>
      <point x="421" y="-9"/>
      <point x="421" y="69"/>
      <point x="421" y="99" type="curve"/>
      <point x="265" y="99"/>
      <point x="421" y="99"/>
      <point x="265" y="99" type="curve"/>
      <point x="265" y="69"/>
      <point x="265" y="-9"/>
      <point x="265" y="-38" type="curve"/>
      <point x="421" y="-38"/>
      <point x="265" y="-38"/>
    </contour>
    <contour>
      <point x="435" y="630" type="curve"/>
      <point x="435" y="659"/>
      <point x="435" y="744"/>
      <point x="435" y="773" type="curve"/>
      <point x="280" y="773"/>
      <point x="435" y="773"/>
      <point x="280" y="773" type="curve"/>
      <point x="280" y="744"/>
      <point x="280" y="659"/>
      <point x="280" y="630" type="curve"/>
      <point x="435" y="630"/>
      <point x="280" y="630"/>
    </contour>
    <contour>
      <point x="65" y="91" type="curve"/>
      <point x="142" y="64"/>
      <point x="234" y="41"/>
      <point x="336" y="41" type="curve"/>
      <point x="524" y="41"/>
      <point x="688" y="76"/>
      <point x="688" y="223" type="curve"/>
      <point x="688" y="348"/>
      <point x="549" y="382"/>
      <point x="408" y="425" type="curve"/>
      <point x="317" y="451"/>
      <point x="223" y="463"/>
      <point x="223" y="519" type="curve"/>
      <point x="223" y="568"/>
      <point x="289" y="575"/>
      <point x="360" y="575" type="curve"/>
      <point x="436" y="575"/>
      <point x="490" y="565"/>
      <point x="558" y="540" type="curve"/>
      <point x="636" y="636"/>
      <point x="558" y="540"/>
      <point x="636" y="636" type="curve"/>
      <point x="543" y="670"/>
      <point x="470" y="688"/>
      <point x="368" y="688" type="curve"/>
      <point x="203" y="688"/>
      <point x="67" y="649"/>
      <point x="67" y="519" type="curve"/>
      <point x="67" y="399"/>
      <point x="179" y="362"/>
      <point x="315" y="322" type="curve"/>
      <point x="414" y="293"/>
      <point x="532" y="284"/>
      <point x="532" y="217" type="curve"/>
      <point x="532" y="153"/>
      <point x="443" y="155"/>
      <point x="350" y="155" type="curve"/>
      <point x="274" y="155"/>
      <point x="207" y="174"/>
      <point x="150" y="193" type="curve"/>
      <point x="65" y="90"/>
      <point x="150" y="193"/>
    </contour>
  </outline>
</glyph>
<glyph name="percent" format="1">
  <advance width="1314"/>
  <unicode hex="0025"/>
  <outline>
    <contour>
      <point x="465" y="-32" type="line"/>
      <point x="997" y="704" type="line"/>
      <point x="854" y="704" type="line"/>
      <point x="324" y="-32" type="line"/>
    </contour>
    <contour>
      <point x="189" y="482" type="curve"/>
      <point x="189" y="551"/>
      <point x="230" y="594"/>
      <point x="298" y="594" type="curve"/>
      <point x="367" y="595"/>
      <point x="409" y="551"/>
      <point x="409" y="481" type="curve"/>
      <point x="409" y="413"/>
      <point x="372" y="366"/>
      <point x="306" y="366" type="curve"/>
      <point x="234" y="366"/>
      <point x="189" y="411"/>
      <point x="189" y="482" type="curve"/>
      <point x="134" y="482"/>
      <point x="97" y="482"/>
      <point x="42" y="482" type="curve"/>
      <point x="42" y="335"/>
      <point x="146" y="253"/>
      <point x="299" y="253" type="curve"/>
      <point x="456" y="253"/>
      <point x="563" y="335"/>
      <point x="563" y="486" type="curve"/>
      <point x="563" y="631"/>
      <point x="457" y="707"/>
      <point x="305" y="707" type="curve"/>
      <point x="149" y="707"/>
      <point x="42" y="630"/>
      <point x="42" y="482" type="curve"/>
      <point x="97" y="482"/>
      <point x="134" y="482"/>
    </contour>
    <contour>
      <point x="900" y="190" type="curve"/>
      <point x="900" y="258"/>
      <point x="941" y="301"/>
      <point x="1008" y="301" type="curve"/>
      <point x="1077" y="302"/>
      <point x="1119" y="258"/>
      <point x="1119" y="188" type="curve"/>
      <point x="1119" y="119"/>
      <point x="1082" y="74"/>
      <point x="1016" y="74" type="curve"/>
      <point x="944" y="74"/>
      <point x="900" y="117"/>
      <point x="900" y="190" type="curve"/>
      <point x="845" y="190"/>
      <point x="807" y="190"/>
      <point x="752" y="190" type="curve"/>
      <point x="752" y="42"/>
      <point x="856" y="-40"/>
      <point x="1009" y="-40" type="curve"/>
      <point x="1166" y="-40"/>
      <point x="1273" y="43"/>
      <point x="1273" y="193" type="curve"/>
      <point x="1273" y="339"/>
      <point x="1167" y="414"/>
      <point x="1014" y="415" type="curve"/>
      <point x="860" y="415"/>
      <point x="752" y="337"/>
      <point x="752" y="190" type="curve"/>
      <point x="807" y="190"/>
      <point x="845" y="190"/>
    </contour>
  </outline>
</glyph>
<glyph name="ampersand" format="1">
  <advance width="879"/>
  <unicode hex="0026"/>
  <outline>
    <contour>
      <point x="853" y="82" type="line"/>
      <point x="732" y="170"/>
      <point x="583" y="284"/>
      <point x="459" y="379" type="curve"/>
      <point x="391" y="432"/>
      <point x="300" y="460"/>
      <point x="300" y="548" type="curve"/>
      <point x="300" y="589"/>
      <point x="334" y="613"/>
      <point x="379" y="613" type="curve"/>
      <point x="435" y="613"/>
      <point x="481" y="598"/>
      <point x="481" y="550" type="curve"/>
      <point x="480" y="469"/>
      <point x="401" y="453"/>
      <point x="321" y="421" type="curve"/>
      <point x="191" y="368"/>
      <point x="60" y="336"/>
      <point x="60" y="202" type="curve"/>
      <point x="60" y="51"/>
      <point x="204" y="-5"/>
      <point x="373" y="-5" type="curve"/>
      <point x="596" y="-5"/>
      <point x="752" y="107"/>
      <point x="843" y="311" type="curve"/>
      <point x="708" y="341"/>
      <point x="843" y="311"/>
      <point x="708" y="341" type="curve"/>
      <point x="642" y="196"/>
      <point x="538" y="109"/>
      <point x="380" y="109" type="curve"/>
      <point x="293" y="109"/>
      <point x="216" y="126"/>
      <point x="216" y="202" type="curve"/>
      <point x="216" y="286"/>
      <point x="303" y="297"/>
      <point x="385" y="330" type="curve"/>
      <point x="512" y="382"/>
      <point x="636" y="419"/>
      <point x="637" y="550" type="curve"/>
      <point x="637" y="675"/>
      <point x="523" y="727"/>
      <point x="387" y="727" type="curve"/>
      <point x="253" y="727"/>
      <point x="145" y="670"/>
      <point x="145" y="548" type="curve"/>
      <point x="145" y="430"/>
      <point x="256" y="381"/>
      <point x="353" y="311" type="curve"/>
      <point x="477" y="212"/>
      <point x="652" y="81"/>
      <point x="772" y="-13" type="curve"/>
    </contour>
  </outline>
</glyph>
<glyph name="quotesingle" format="1">
  <advance width="295"/>
  <unicode hex="0027"/>
  <outline>
    <contour>
      <point x="224" y="613" type="line"/>
      <point x="234" y="846" type="line"/>
      <point x="61" y="846" type="line"/>
      <point x="71" y="613" type="line"/>
    </contour>
  </outline>
</glyph>
<glyph name="parenleft" format="1">
  <advance width="475"/>
  <unicode hex="0028"/>
  <outline>
    <contour>
      <point x="472" y="-203" type="curve"/>
      <point x="292" y="-59"/>
      <point x="199" y="95"/>
      <point x="199" y="326" type="curve"/>
      <point x="199" y="558"/>
      <point x="292" y="711"/>
      <point x="471" y="859" type="curve"/>
      <point x="379" y="932"/>
      <point x="471" y="859"/>
      <point x="379" y="932" type="curve"/>
      <point x="167" y="765"/>
      <point x="45" y="597"/>
      <point x="45" y="326" type="curve"/>
      <point x="45" y="54"/>
      <point x="167" y="-114"/>
      <point x="380" y="-283" type="curve"/>
      <point x="472" y="-203"/>
      <point x="380" y="-283"/>
    </contour>
  </outline>
</glyph>
<glyph name="parenright" format="1">
  <advance width="482"/>
  <unicode hex="0029"/>
  <outline>
    <contour>
      <point x="87" y="-296" type="curve"/>
      <point x="304" y="-119"/>
      <point x="437" y="48"/>
      <point x="437" y="329" type="curve"/>
      <point x="437" y="603"/>
      <point x="311" y="770"/>
      <point x="92" y="935" type="curve"/>
      <point x="-1" y="855"/>
      <point x="92" y="935"/>
      <point x="-1" y="855" type="curve"/>
      <point x="184" y="709"/>
      <point x="284" y="558"/>
      <point x="284" y="324" type="curve"/>
      <point x="284" y="86"/>
      <point x="175" y="-66"/>
      <point x="-6" y="-223" type="curve"/>
      <point x="87" y="-296"/>
      <point x="-6" y="-223"/>
    </contour>
  </outline>
</glyph>
<glyph name="asterisk" format="1">
  <advance width="588"/>
  <unicode hex="002A"/>
  <outline>
    <contour>
      <point x="348" y="604" type="line"/>
      <point x="355" y="837" type="line"/>
      <point x="233" y="837" type="line"/>
      <point x="240" y="604" type="line"/>
    </contour>
    <contour>
      <point x="315" y="551" type="line"/>
      <point x="537" y="625" type="line"/>
      <point x="494" y="739" type="line"/>
      <point x="277" y="654" type="line"/>
    </contour>
    <contour>
      <point x="254" y="565" type="line"/>
      <point x="399" y="382" type="line"/>
      <point x="492" y="461" type="line"/>
      <point x="337" y="634" type="line"/>
    </contour>
    <contour>
      <point x="251" y="634" type="line"/>
      <point x="96" y="461" type="line"/>
      <point x="190" y="382" type="line"/>
      <point x="334" y="565" type="line"/>
    </contour>
    <contour>
      <point x="309" y="653" type="line"/>
      <point x="93" y="739" type="line"/>
      <point x="52" y="625" type="line"/>
      <point x="273" y="552" type="line"/>
    </contour>
  </outline>
</glyph>
<glyph name="plus" format="1">
  <advance width="724"/>
  <unicode hex="002B"/>
  <outline>
    <contour>
      <point x="45" y="251" type="curve"/>
      <point x="679" y="251" type="line"/>
      <point x="679" y="376"/>
      <point x="679" y="251"/>
      <point x="679" y="376" type="curve"/>
      <point x="45" y="376" type="line"/>
      <point x="45" y="251"/>
      <point x="45" y="376"/>
    </contour>
    <contour>
      <point x="440" y="22" type="curve"/>
      <point x="440" y="587" type="line"/>
      <point x="283" y="587"/>
      <point x="449" y="587"/>
      <point x="293" y="587" type="curve"/>
      <point x="293" y="22" type="line"/>
      <point x="449" y="22"/>
      <point x="283" y="22"/>
    </contour>
  </outline>
</glyph>
<glyph name="hyphen" format="1">
  <advance width="516"/>
  <unicode hex="002D"/>
  <outline>
    <contour>
      <point x="76" y="221" type="curve"/>
      <point x="196" y="221"/>
      <point x="318" y="221"/>
      <point x="440" y="221" type="curve"/>
      <point x="440" y="348"/>
      <point x="440" y="221"/>
      <point x="440" y="348" type="curve"/>
      <point x="318" y="348"/>
      <point x="196" y="348"/>
      <point x="76" y="348" type="curve"/>
      <point x="76" y="221"/>
      <point x="76" y="348"/>
    </contour>
  </outline>
</glyph>
<glyph name="period" format="1">
  <advance width="320"/>
  <unicode hex="002E"/>
  <outline>
    <contour>
      <point x="251" y="64" type="curve"/>
      <point x="251" y="114"/>
      <point x="211" y="138"/>
      <point x="159" y="138" type="curve"/>
      <point x="106" y="138"/>
      <point x="69" y="111"/>
      <point x="69" y="64" type="curve"/>
      <point x="251" y="64"/>
      <point x="70" y="64"/>
      <point x="251" y="64" type="curve"/>
      <point x="251" y="12"/>
      <point x="212" y="-10"/>
      <point x="158" y="-10" type="curve"/>
      <point x="105" y="-10"/>
      <point x="69" y="15"/>
      <point x="69" y="64" type="curve"/>
      <point x="251" y="64"/>
      <point x="70" y="64"/>
    </contour>
  </outline>
</glyph>
<glyph name="slash" format="1">
  <advance width="745"/>
  <unicode hex="002F"/>
  <outline>
    <contour>
      <point x="186" y="-10" type="curve"/>
      <point x="362" y="253"/>
      <point x="539" y="516"/>
      <point x="716" y="779" type="curve"/>
      <point x="560" y="779"/>
      <point x="716" y="779"/>
      <point x="560" y="779" type="curve"/>
      <point x="382" y="516"/>
      <point x="206" y="253"/>
      <point x="28" y="-10" type="curve"/>
      <point x="186" y="-10"/>
      <point x="28" y="-10"/>
    </contour>
  </outline>
</glyph>
<glyph name="zero" format="1">
  <advance width="940"/>
  <unicode hex="0030"/>
  <outline>
    <contour>
      <point x="219" y="360" type="curve"/>
      <point x="219" y="516"/>
      <point x="311" y="607"/>
      <point x="465" y="607" type="curve"/>
      <point x="621" y="607"/>
      <point x="720" y="520"/>
      <point x="720" y="363" type="curve"/>
      <point x="720" y="207"/>
      <point x="629" y="115"/>
      <point x="478" y="115" type="curve"/>
      <point x="319" y="115"/>
      <point x="219" y="202"/>
      <point x="219" y="360" type="curve"/>
      <point x="61" y="360"/>
      <point x="219" y="360"/>
      <point x="61" y="360" type="curve"/>
      <point x="61" y="122"/>
      <point x="224" y="-5"/>
      <point x="471" y="-5" type="curve"/>
      <point x="719" y="-5"/>
      <point x="880" y="123"/>
      <point x="880" y="363" type="curve"/>
      <point x="880" y="599"/>
      <point x="723" y="727"/>
      <point x="480" y="727" type="curve"/>
      <point x="228" y="727"/>
      <point x="61" y="601"/>
      <point x="61" y="360" type="curve"/>
      <point x="219" y="360"/>
      <point x="61" y="360"/>
    </contour>
  </outline>
</glyph>
<glyph name="three" format="1">
  <advance width="694"/>
  <unicode hex="0033"/>
  <outline>
    <contour>
      <point x="47" y="54" type="curve"/>
      <point x="102" y="21"/>
      <point x="192" y="-5"/>
      <point x="292" y="-5" type="curve"/>
      <point x="486" y="-5"/>
      <point x="634" y="42"/>
      <point x="634" y="224" type="curve"/>
      <point x="634" y="377"/>
      <point x="445" y="420"/>
      <point x="199" y="420" type="curve"/>
      <point x="199" y="323"/>
      <point x="199" y="420"/>
      <point x="199" y="323" type="curve"/>
      <point x="339" y="323"/>
      <point x="485" y="306"/>
      <point x="485" y="219" type="curve"/>
      <point x="485" y="122"/>
      <point x="389" y="114"/>
      <point x="297" y="114" type="curve"/>
      <point x="249" y="114"/>
      <point x="179" y="127"/>
      <point x="114" y="153" type="curve"/>
      <point x="47" y="54"/>
      <point x="114" y="153"/>
    </contour>
    <contour>
      <point x="124" y="553" type="curve"/>
      <point x="162" y="581"/>
      <point x="229" y="608"/>
      <point x="289" y="608" type="curve"/>
      <point x="375" y="608"/>
      <point x="444" y="599"/>
      <point x="444" y="522" type="curve"/>
      <point x="444" y="444"/>
      <point x="322" y="430"/>
      <point x="199" y="430" type="curve"/>
      <point x="199" y="333"/>
      <point x="199" y="430"/>
      <point x="199" y="333" type="curve"/>
      <point x="412" y="333"/>
      <point x="593" y="377"/>
      <point x="593" y="528" type="curve"/>
      <point x="593" y="678"/>
      <point x="465" y="727"/>
      <point x="301" y="727" type="curve"/>
      <point x="194" y="727"/>
      <point x="95" y="689"/>
      <point x="47" y="642" type="curve"/>
      <point x="124" y="553"/>
      <point x="47" y="642"/>
    </contour>
  </outline>
</glyph>
<glyph name="five" format="1">
  <advance width="697"/>
  <unicode hex="0035"/>
  <outline>
    <contour>
      <point x="89" y="722" type="curve"/>
      <point x="89" y="629"/>
      <point x="89" y="516"/>
      <point x="89" y="372" type="curve"/>
      <point x="237" y="336"/>
      <point x="89" y="372"/>
      <point x="237" y="336" type="curve"/>
      <point x="237" y="421"/>
      <point x="237" y="524"/>
      <point x="237" y="608" type="curve"/>
      <point x="89" y="722"/>
      <point x="237" y="608"/>
    </contour>
    <contour>
      <point x="237" y="336" type="curve"/>
      <point x="260" y="355"/>
      <point x="307" y="364"/>
      <point x="333" y="364" type="curve"/>
      <point x="429" y="364"/>
      <point x="487" y="329"/>
      <point x="487" y="243" type="curve"/>
      <point x="487" y="156"/>
      <point x="404" y="114"/>
      <point x="308" y="114" type="curve"/>
      <point x="243" y="114"/>
      <point x="190" y="121"/>
      <point x="120" y="145" type="curve"/>
      <point x="52" y="43"/>
      <point x="120" y="145"/>
      <point x="52" y="43" type="curve"/>
      <point x="136" y="10"/>
      <point x="210" y="-5"/>
      <point x="301" y="-5" type="curve"/>
      <point x="485" y="-5"/>
      <point x="643" y="75"/>
      <point x="643" y="243" type="curve"/>
      <point x="643" y="402"/>
      <point x="516" y="486"/>
      <point x="340" y="486" type="curve"/>
      <point x="258" y="486"/>
      <point x="154" y="456"/>
      <point x="89" y="372" type="curve"/>
      <point x="237" y="336"/>
      <point x="89" y="372"/>
    </contour>
    <contour>
      <point x="602" y="722" type="curve"/>
      <point x="416" y="722"/>
      <point x="250" y="722"/>
      <point x="89" y="722" type="curve"/>
      <point x="237" y="608"/>
      <point x="89" y="722"/>
      <point x="237" y="608" type="curve"/>
      <point x="351" y="608"/>
      <point x="466" y="608"/>
      <point x="602" y="608" type="curve"/>
      <point x="602" y="722"/>
      <point x="602" y="608"/>
    </contour>
  </outline>
</glyph>
<glyph name="eight" format="1">
  <advance width="763"/>
  <unicode hex="0038"/>
  <outline>
    <contour>
      <point x="88" y="535" type="curve"/>
      <point x="88" y="403"/>
      <point x="205" y="384"/>
      <point x="337" y="339" type="curve"/>
      <point x="442" y="302"/>
      <point x="542" y="296"/>
      <point x="542" y="195" type="curve"/>
      <point x="542" y="126"/>
      <point x="471" y="111"/>
      <point x="382" y="111" type="curve"/>
      <point x="292" y="111"/>
      <point x="220" y="126"/>
      <point x="220" y="195" type="curve"/>
      <point x="220" y="298"/>
      <point x="325" y="302"/>
      <point x="431" y="341" type="curve"/>
      <point x="559" y="387"/>
      <point x="675" y="404"/>
      <point x="675" y="534" type="curve"/>
      <point x="675" y="684"/>
      <point x="552" y="727"/>
      <point x="382" y="727" type="curve"/>
      <point x="215" y="727"/>
      <point x="88" y="682"/>
      <point x="88" y="535" type="curve"/>
      <point x="244" y="535"/>
      <point x="88" y="535"/>
      <point x="244" y="535" type="curve"/>
      <point x="244" y="594"/>
      <point x="302" y="610"/>
      <point x="375" y="610" type="curve"/>
      <point x="456" y="610"/>
      <point x="519" y="598"/>
      <point x="519" y="534" type="curve"/>
      <point x="519" y="447"/>
      <point x="426" y="449"/>
      <point x="334" y="417" type="curve"/>
      <point x="190" y="366"/>
      <point x="64" y="340"/>
      <point x="64" y="195" type="curve"/>
      <point x="64" y="39"/>
      <point x="198" y="-5"/>
      <point x="374" y="-5" type="curve"/>
      <point x="557" y="-5"/>
      <point x="699" y="34"/>
      <point x="699" y="195" type="curve"/>
      <point x="699" y="339"/>
      <point x="573" y="366"/>
      <point x="432" y="416" type="curve"/>
      <point x="339" y="451"/>
      <point x="244" y="451"/>
      <point x="244" y="535" type="curve"/>
      <point x="88" y="535"/>
      <point x="244" y="535"/>
    </contour>
  </outline>
</glyph>
<glyph name="colon" format="1">
  <advance width="337"/>
  <unicode hex="003A"/>
  <outline>
    <contour>
      <point x="259" y="376" type="curve"/>
      <point x="259" y="427"/>
      <point x="220" y="451"/>
      <point x="167" y="451" type="curve"/>
      <point x="114" y="451"/>
      <point x="77" y="424"/>
      <point x="77" y="376" type="curve"/>
      <point x="259" y="376"/>
      <point x="78" y="376"/>
      <point x="259" y="376" type="curve"/>
      <point x="259" y="325"/>
      <point x="220" y="303"/>
      <point x="166" y="303" type="curve"/>
      <point x="114" y="303"/>
      <point x="77" y="328"/>
      <point x="77" y="376" type="curve"/>
      <point x="259" y="376"/>
      <point x="78" y="376"/>
    </contour>
    <contour>
      <point x="258" y="64" type="curve"/>
      <point x="258" y="115"/>
      <point x="219" y="139"/>
      <point x="166" y="139" type="curve"/>
      <point x="114" y="139"/>
      <point x="76" y="112"/>
      <point x="76" y="64" type="curve"/>
      <point x="258" y="64"/>
      <point x="77" y="64"/>
      <point x="258" y="64" type="curve"/>
      <point x="258" y="13"/>
      <point x="219" y="-10"/>
      <point x="166" y="-10" type="curve"/>
      <point x="113" y="-10"/>
      <point x="76" y="15"/>
      <point x="76" y="64" type="curve"/>
      <point x="258" y="64"/>
      <point x="77" y="64"/>
    </contour>
  </outline>
</glyph>
<glyph name="semicolon" format="1">
  <advance width="350"/>
  <unicode hex="003B"/>
  <outline>
    <contour>
      <point x="77" y="-174" type="line"/>
      <point x="198" y="-173"/>
      <point x="281" y="-100"/>
      <point x="281" y="9" type="curve"/>
      <point x="281" y="89"/>
      <point x="238" y="152"/>
      <point x="172" y="152" type="curve"/>
      <point x="121" y="152"/>
      <point x="83" y="126"/>
      <point x="83" y="77" type="curve"/>
      <point x="83" y="27"/>
      <point x="122" y="1"/>
      <point x="177" y="1" type="curve"/>
      <point x="175" y="-45"/>
      <point x="157" y="-85"/>
      <point x="77" y="-94" type="curve"/>
    </contour>
    <contour>
      <point x="259" y="376" type="curve"/>
      <point x="259" y="427"/>
      <point x="219" y="451"/>
      <point x="166" y="451" type="curve"/>
      <point x="113" y="451"/>
      <point x="77" y="424"/>
      <point x="77" y="376" type="curve"/>
      <point x="258" y="376"/>
      <point x="77" y="376"/>
      <point x="259" y="376" type="curve"/>
      <point x="259" y="325"/>
      <point x="219" y="303"/>
      <point x="165" y="303" type="curve"/>
      <point x="112" y="303"/>
      <point x="77" y="327"/>
      <point x="77" y="376" type="curve"/>
      <point x="258" y="376"/>
      <point x="77" y="376"/>
    </contour>
  </outline>
</glyph>
<glyph name="equal" format="1">
  <advance width="949"/>
  <unicode hex="003D"/>
  <outline>
    <contour>
      <point x="82" y="157" type="curve"/>
      <point x="344" y="157"/>
      <point x="606" y="157"/>
      <point x="867" y="157" type="curve"/>
      <point x="867" y="278"/>
      <point x="867" y="157"/>
      <point x="867" y="278" type="curve"/>
      <point x="606" y="278"/>
      <point x="344" y="278"/>
      <point x="82" y="278" type="curve"/>
      <point x="82" y="157"/>
      <point x="82" y="278"/>
    </contour>
    <contour>
      <point x="82" y="379" type="curve"/>
      <point x="344" y="379"/>
      <point x="606" y="379"/>
      <point x="867" y="379" type="curve"/>
      <point x="867" y="500"/>
      <point x="867" y="379"/>
      <point x="867" y="500" type="curve"/>
      <point x="606" y="500"/>
      <point x="344" y="500"/>
      <point x="82" y="500" type="curve"/>
      <point x="82" y="379"/>
      <point x="82" y="500"/>
    </contour>
  </outline>
</glyph>
<glyph name="greater" format="1">
  <advance width="886"/>
  <unicode hex="003E"/>
  <outline>
    <contour>
      <point x="85" y="-27" type="curve"/>
      <point x="338" y="63"/>
      <point x="591" y="153"/>
      <point x="843" y="243" type="curve"/>
      <point x="843" y="369"/>
      <point x="843" y="243"/>
      <point x="843" y="369" type="curve"/>
      <point x="591" y="279"/>
      <point x="338" y="189"/>
      <point x="85" y="99" type="curve"/>
      <point x="85" y="-27"/>
      <point x="85" y="99"/>
    </contour>
    <contour>
      <point x="73" y="507" type="curve"/>
      <point x="329" y="419"/>
      <point x="587" y="331"/>
      <point x="843" y="243" type="curve"/>
      <point x="843" y="369"/>
      <point x="843" y="243"/>
      <point x="843" y="369" type="curve"/>
      <point x="587" y="457"/>
      <point x="329" y="545"/>
      <point x="73" y="633" type="curve"/>
      <point x="73" y="507"/>
      <point x="73" y="633"/>
    </contour>
  </outline>
</glyph>
<glyph name="question" format="1">
  <advance width="655"/>
  <unicode hex="003F"/>
  <outline>
    <contour>
      <point x="213" y="383" type="curve"/>
      <point x="213" y="346"/>
      <point x="213" y="258"/>
      <point x="213" y="221" type="curve"/>
      <point x="368" y="221"/>
      <point x="213" y="221"/>
      <point x="368" y="221" type="curve"/>
      <point x="368" y="258"/>
      <point x="368" y="346"/>
      <point x="368" y="383" type="curve"/>
      <point x="213" y="383"/>
      <point x="368" y="383"/>
    </contour>
    <contour>
      <point x="117" y="562" type="line"/>
      <point x="157" y="602"/>
      <point x="223" y="637"/>
      <point x="296" y="637" type="curve"/>
      <point x="385" y="637"/>
      <point x="455" y="602"/>
      <point x="455" y="519" type="curve"/>
      <point x="455" y="425"/>
      <point x="356" y="383"/>
      <point x="230" y="383" type="curve"/>
      <point x="230" y="341"/>
      <point x="230" y="310"/>
      <point x="230" y="269" type="curve"/>
      <point x="441" y="269"/>
      <point x="604" y="351"/>
      <point x="604" y="519" type="curve"/>
      <point x="604" y="677"/>
      <point x="473" y="756"/>
      <point x="304" y="756" type="curve"/>
      <point x="196" y="756"/>
      <point x="113" y="722"/>
      <point x="38" y="650" type="curve"/>
    </contour>
    <contour>
      <point x="383" y="22" type="curve"/>
      <point x="383" y="73"/>
      <point x="344" y="97"/>
      <point x="291" y="97" type="curve"/>
      <point x="238" y="97"/>
      <point x="201" y="70"/>
      <point x="201" y="22" type="curve"/>
      <point x="383" y="22"/>
      <point x="201" y="22"/>
      <point x="383" y="22" type="curve"/>
      <point x="383" y="-29"/>
      <point x="344" y="-51"/>
      <point x="290" y="-51" type="curve"/>
      <point x="237" y="-51"/>
      <point x="201" y="-26"/>
      <point x="201" y="22" type="curve"/>
      <point x="383" y="22"/>
      <point x="201" y="22"/>
    </contour>
  </outline>
</glyph>
<glyph name="at" format="1">
  <advance width="1078"/>
  <unicode hex="0040"/>
  <outline>
    <contour>
      <point x="733" y="4" type="curve"/>
      <point x="668" y="-17"/>
      <point x="620" y="-27"/>
      <point x="557" y="-27" type="curve"/>
      <point x="354" y="-27"/>
      <point x="203" y="35"/>
      <point x="203" y="215" type="curve"/>
      <point x="203" y="390"/>
      <point x="353" y="445"/>
      <point x="548" y="445" type="curve"/>
      <point x="733" y="445"/>
      <point x="872" y="381"/>
      <point x="872" y="215" type="curve"/>
      <point x="872" y="169"/>
      <point x="867" y="131"/>
      <point x="831" y="131" type="curve"/>
      <point x="789" y="131"/>
      <point x="775" y="169"/>
      <point x="775" y="220" type="curve"/>
      <point x="775" y="350"/>
      <point x="678" y="415"/>
      <point x="539" y="415" type="curve"/>
      <point x="385" y="415"/>
      <point x="277" y="356"/>
      <point x="277" y="215" type="curve"/>
      <point x="277" y="78"/>
      <point x="375" y="10"/>
      <point x="521" y="10" type="curve"/>
      <point x="647" y="10"/>
      <point x="725" y="76"/>
      <point x="752" y="198" type="curve"/>
      <point x="654" y="222"/>
      <point x="752" y="198"/>
      <point x="654" y="222" type="curve"/>
      <point x="634" y="161"/>
      <point x="604" y="124"/>
      <point x="542" y="124" type="curve"/>
      <point x="473" y="124"/>
      <point x="426" y="155"/>
      <point x="426" y="221" type="curve"/>
      <point x="426" y="277"/>
      <point x="466" y="299"/>
      <point x="525" y="299" type="curve"/>
      <point x="590" y="299"/>
      <point x="633" y="274"/>
      <point x="633" y="214" type="curve"/>
      <point x="633" y="96"/>
      <point x="700" y="23"/>
      <point x="818" y="23" type="curve"/>
      <point x="944" y="23"/>
      <point x="1019" y="96"/>
      <point x="1019" y="220" type="curve"/>
      <point x="1019" y="465"/>
      <point x="823" y="564"/>
      <point x="556" y="564" type="curve"/>
      <point x="268" y="564"/>
      <point x="55" y="469"/>
      <point x="55" y="209" type="curve"/>
      <point x="55" y="-46"/>
      <point x="265" y="-141"/>
      <point x="549" y="-141" type="curve"/>
      <point x="643" y="-141"/>
      <point x="721" y="-120"/>
      <point x="784" y="-92" type="curve"/>
      <point x="733" y="4"/>
      <point x="784" y="-92"/>
    </contour>
  </outline>
</glyph>
<glyph name="B" format="1">
  <advance width="867"/>
  <unicode hex="0042"/>
  <outline>
    <contour>
      <point x="237" y="722" type="curve"/>
      <point x="183" y="722"/>
      <point x="130" y="722"/>
      <point x="76" y="722" type="curve"/>
      <point x="76" y="608"/>
      <point x="76" y="722"/>
      <point x="76" y="608" type="curve"/>
      <point x="237" y="608"/>
      <point x="76" y="608"/>
      <point x="237" y="608" type="curve"/>
      <point x="237" y="722"/>
      <point x="237" y="608"/>
    </contour>
    <contour>
      <point x="236" y="114" type="curve"/>
      <point x="75" y="114"/>
      <point x="236" y="114"/>
      <point x="75" y="114" type="curve"/>
      <point x="75" y="0"/>
      <point x="75" y="114"/>
      <point x="75" y="0" type="curve"/>
      <point x="129" y="0"/>
      <point x="183" y="0"/>
      <point x="236" y="0" type="curve"/>
      <point x="236" y="114"/>
      <point x="236" y="0"/>
    </contour>
    <contour>
      <point x="224" y="608" type="curve"/>
      <point x="313" y="608"/>
      <point x="401" y="608"/>
      <point x="490" y="608" type="curve"/>
      <point x="550" y="608"/>
      <point x="598" y="586"/>
      <point x="598" y="530" type="curve"/>
      <point x="598" y="473"/>
      <point x="534" y="461"/>
      <point x="471" y="461" type="curve"/>
      <point x="388" y="461"/>
      <point x="307" y="461"/>
      <point x="224" y="461" type="curve"/>
      <point x="224" y="353"/>
      <point x="224" y="454"/>
      <point x="224" y="346" type="curve"/>
      <point x="281" y="346"/>
      <point x="338" y="346"/>
      <point x="395" y="346" type="curve"/>
      <point x="528" y="346"/>
      <point x="754" y="371"/>
      <point x="754" y="529" type="curve"/>
      <point x="754" y="666"/>
      <point x="642" y="722"/>
      <point x="491" y="722" type="curve"/>
      <point x="401" y="722"/>
      <point x="313" y="722"/>
      <point x="224" y="722" type="curve"/>
      <point x="224" y="615"/>
      <point x="224" y="715"/>
    </contour>
    <contour>
      <point x="320" y="0" type="curve"/>
      <point x="320" y="241"/>
      <point x="320" y="481"/>
      <point x="320" y="722" type="curve"/>
      <point x="157" y="722"/>
      <point x="320" y="722"/>
      <point x="157" y="722" type="curve"/>
      <point x="157" y="481"/>
      <point x="157" y="241"/>
      <point x="157" y="0" type="curve"/>
      <point x="320" y="0"/>
      <point x="157" y="0"/>
    </contour>
    <contour>
      <point x="224" y="346" type="curve"/>
      <point x="307" y="346"/>
      <point x="388" y="346"/>
      <point x="471" y="346" type="curve"/>
      <point x="572" y="346"/>
      <point x="656" y="319"/>
      <point x="656" y="226" type="curve"/>
      <point x="656" y="141"/>
      <point x="584" y="114"/>
      <point x="489" y="114" type="curve"/>
      <point x="399" y="114"/>
      <point x="312" y="114"/>
      <point x="224" y="114" type="curve"/>
      <point x="224" y="7"/>
      <point x="224" y="108"/>
      <point x="224" y="0" type="curve"/>
      <point x="312" y="0"/>
      <point x="400" y="0"/>
      <point x="489" y="0" type="curve"/>
      <point x="676" y="0"/>
      <point x="813" y="60"/>
      <point x="813" y="226" type="curve"/>
      <point x="813" y="423"/>
      <point x="564" y="461"/>
      <point x="395" y="461" type="curve"/>
      <point x="338" y="461"/>
      <point x="281" y="461"/>
      <point x="224" y="461" type="curve"/>
      <point x="224" y="353"/>
      <point x="224" y="454"/>
    </contour>
  </outline>
</glyph>
<glyph name="C" format="1">
  <advance width="893"/>
  <unicode hex="0043"/>
  <outline>
    <contour>
      <point x="511" y="781" type="move" name="top"/>
    </contour>
    <contour>
      <point x="531" y="6" type="move" name="bottom"/>
    </contour>
    <contour>
      <point x="718" y="654" type="curve"/>
      <point x="718" y="534"/>
      <point x="718" y="610"/>
      <point x="718" y="490" type="curve"/>
      <point x="838" y="490"/>
      <point x="718" y="490"/>
      <point x="838" y="490" type="curve"/>
      <point x="838" y="610"/>
      <point x="838" y="534"/>
      <point x="838" y="654" type="curve"/>
      <point x="718" y="654"/>
      <point x="838" y="654"/>
    </contour>
    <contour>
      <point x="838" y="654" type="curve"/>
      <point x="742" y="696"/>
      <point x="639" y="727"/>
      <point x="525" y="727" type="curve"/>
      <point x="251" y="727"/>
      <point x="58" y="604"/>
      <point x="58" y="344" type="curve"/>
      <point x="58" y="104"/>
      <point x="237" y="-5"/>
      <point x="493" y="-5" type="curve"/>
      <point x="643" y="-5"/>
      <point x="734" y="23"/>
      <point x="840" y="88" type="curve"/>
      <point x="779" y="187"/>
      <point x="839" y="88"/>
      <point x="778" y="187" type="curve"/>
      <point x="678" y="133"/>
      <point x="604" y="116"/>
      <point x="499" y="116" type="curve"/>
      <point x="330" y="116"/>
      <point x="215" y="191"/>
      <point x="215" y="350" type="curve"/>
      <point x="215" y="522"/>
      <point x="337" y="608"/>
      <point x="517" y="608" type="curve"/>
      <point x="604" y="608"/>
      <point x="681" y="595"/>
      <point x="752" y="564" type="curve"/>
      <point x="838" y="654"/>
      <point x="752" y="564"/>
    </contour>
  </outline>
</glyph>
<glyph name="D" format="1">
  <advance width="1002"/>
  <unicode hex="0044"/>
  <outline>
    <contour>
      <point x="466" y="781" type="move" name="top"/>
    </contour>
    <contour>
      <point x="238" y="114" type="curve"/>
      <point x="76" y="114"/>
      <point x="238" y="114"/>
      <point x="76" y="114" type="curve"/>
      <point x="76" y="0"/>
      <point x="76" y="114"/>
      <point x="76" y="0" type="curve"/>
      <point x="130" y="0"/>
      <point x="184" y="0"/>
      <point x="238" y="0" type="curve"/>
      <point x="238" y="114"/>
      <point x="238" y="0"/>
    </contour>
    <contour>
      <point x="238" y="722" type="curve"/>
      <point x="184" y="722"/>
      <point x="130" y="722"/>
      <point x="76" y="722" type="curve"/>
      <point x="76" y="608"/>
      <point x="76" y="722"/>
      <point x="76" y="608" type="curve"/>
      <point x="238" y="608"/>
      <point x="76" y="608"/>
      <point x="238" y="608" type="curve"/>
      <point x="238" y="722"/>
      <point x="238" y="608"/>
    </contour>
    <contour>
      <point x="158" y="722" type="curve"/>
      <point x="158" y="481"/>
      <point x="158" y="241"/>
      <point x="158" y="0" type="curve"/>
      <point x="313" y="0"/>
      <point x="158" y="0"/>
      <point x="313" y="0" type="curve"/>
      <point x="313" y="241"/>
      <point x="313" y="481"/>
      <point x="313" y="722" type="curve"/>
      <point x="158" y="722"/>
      <point x="313" y="722"/>
    </contour>
    <contour>
      <point x="238" y="0" type="curve"/>
      <point x="318" y="0"/>
      <point x="400" y="0"/>
      <point x="482" y="0" type="curve"/>
      <point x="761" y="0"/>
      <point x="942" y="96"/>
      <point x="942" y="354" type="curve"/>
      <point x="942" y="620"/>
      <point x="759" y="722"/>
      <point x="473" y="722" type="curve"/>
      <point x="395" y="722"/>
      <point x="316" y="722"/>
      <point x="238" y="722" type="curve"/>
      <point x="238" y="608"/>
      <point x="238" y="722"/>
      <point x="238" y="608" type="curve"/>
      <point x="313" y="608"/>
      <point x="390" y="608"/>
      <point x="467" y="608" type="curve"/>
      <point x="664" y="608"/>
      <point x="788" y="533"/>
      <point x="788" y="349" type="curve"/>
      <point x="788" y="182"/>
      <point x="674" y="114"/>
      <point x="493" y="114" type="curve"/>
      <point x="408" y="114"/>
      <point x="323" y="114"/>
      <point x="238" y="114" type="curve"/>
      <point x="238" y="0"/>
      <point x="238" y="114"/>
    </contour>
  </outline>
</glyph>
<glyph name="F" format="1">
  <advance width="762"/>
  <unicode hex="0046"/>
  <outline>
    <contour>
      <point x="236" y="0" type="curve"/>
      <point x="290" y="0"/>
      <point x="236" y="0"/>
      <point x="397" y="0" type="curve"/>
      <point x="397" y="114"/>
      <point x="397" y="0"/>
      <point x="397" y="114" type="curve"/>
      <point x="236" y="114"/>
      <point x="397" y="114"/>
      <point x="236" y="114" type="curve"/>
      <point x="236" y="0"/>
      <point x="236" y="114"/>
    </contour>
    <contour>
      <point x="236" y="722" type="curve"/>
      <point x="183" y="722"/>
      <point x="129" y="722"/>
      <point x="75" y="722" type="curve"/>
      <point x="75" y="608"/>
      <point x="75" y="722"/>
      <point x="75" y="608" type="curve"/>
      <point x="236" y="608"/>
      <point x="75" y="608"/>
      <point x="236" y="608" type="curve"/>
      <point x="236" y="722"/>
      <point x="236" y="608"/>
    </contour>
    <contour>
      <point x="236" y="114" type="curve"/>
      <point x="75" y="114"/>
      <point x="236" y="114"/>
      <point x="75" y="114" type="curve"/>
      <point x="75" y="0"/>
      <point x="75" y="114"/>
      <point x="75" y="0" type="curve"/>
      <point x="129" y="0"/>
      <point x="183" y="0"/>
      <point x="236" y="0" type="curve"/>
      <point x="236" y="114"/>
      <point x="236" y="0"/>
    </contour>
    <contour>
      <point x="614" y="665" type="curve"/>
      <point x="614" y="545"/>
      <point x="614" y="665"/>
      <point x="614" y="545" type="curve"/>
      <point x="734" y="545"/>
      <point x="614" y="545"/>
      <point x="734" y="545" type="curve"/>
      <point x="734" y="665"/>
      <point x="734" y="545"/>
      <point x="734" y="665" type="curve"/>
      <point x="614" y="665"/>
      <point x="734" y="665"/>
    </contour>
    <contour>
      <point x="242" y="315" type="curve"/>
      <point x="375" y="315"/>
      <point x="510" y="315"/>
      <point x="643" y="315" type="curve"/>
      <point x="643" y="430"/>
      <point x="643" y="315"/>
      <point x="643" y="430" type="curve"/>
      <point x="510" y="430"/>
      <point x="375" y="430"/>
      <point x="242" y="430" type="curve"/>
      <point x="242" y="315"/>
      <point x="242" y="430"/>
    </contour>
    <contour>
      <point x="315" y="0" type="curve"/>
      <point x="315" y="722" type="line"/>
      <point x="159" y="722"/>
      <point x="315" y="722"/>
      <point x="159" y="722" type="curve"/>
      <point x="159" y="481"/>
      <point x="159" y="241"/>
      <point x="159" y="0" type="curve"/>
      <point x="315" y="0"/>
      <point x="159" y="0"/>
    </contour>
    <contour>
      <point x="222" y="608" type="curve"/>
      <point x="393" y="608"/>
      <point x="563" y="608"/>
      <point x="734" y="608" type="curve"/>
      <point x="734" y="722"/>
      <point x="734" y="608"/>
      <point x="734" y="722" type="curve"/>
      <point x="563" y="722"/>
      <point x="393" y="722"/>
      <point x="222" y="722" type="curve"/>
      <point x="222" y="608"/>
      <point x="222" y="722"/>
    </contour>
  </outline>
</glyph>
<glyph name="G" format="1">
  <advance width="1001"/>
  <unicode hex="0047"/>
  <outline>
    <contour>
      <point x="531" y="781" type="move" name="top"/>
    </contour>
    <contour>
      <point x="594" y="14" type="move" name="bottom"/>
    </contour>
    <contour>
      <point x="788" y="646" type="curve"/>
      <point x="788" y="524"/>
      <point x="788" y="611"/>
      <point x="788" y="489" type="curve"/>
      <point x="907" y="489"/>
      <point x="788" y="489"/>
      <point x="907" y="489" type="curve"/>
      <point x="907" y="611"/>
      <point x="907" y="524"/>
      <point x="907" y="646" type="curve"/>
      <point x="788" y="646"/>
      <point x="907" y="646"/>
    </contour>
    <contour>
      <point x="886" y="373" type="curve"/>
      <point x="795" y="373"/>
      <point x="703" y="373"/>
      <point x="612" y="373" type="curve"/>
      <point x="612" y="258"/>
      <point x="612" y="373"/>
      <point x="612" y="258" type="curve"/>
      <point x="703" y="258"/>
      <point x="795" y="258"/>
      <point x="886" y="258" type="curve"/>
      <point x="886" y="373"/>
      <point x="886" y="258"/>
    </contour>
    <contour>
      <point x="929" y="79" type="curve"/>
      <point x="929" y="177"/>
      <point x="929" y="274"/>
      <point x="929" y="373" type="curve"/>
      <point x="787" y="373"/>
      <point x="929" y="373"/>
      <point x="787" y="373" type="curve"/>
      <point x="787" y="274"/>
      <point x="787" y="177"/>
      <point x="787" y="79" type="curve"/>
      <point x="929" y="79"/>
      <point x="787" y="79"/>
    </contour>
    <contour>
      <point x="907" y="646" type="curve"/>
      <point x="780" y="704"/>
      <point x="670" y="727"/>
      <point x="531" y="727" type="curve"/>
      <point x="255" y="727"/>
      <point x="58" y="617"/>
      <point x="58" y="359" type="curve"/>
      <point x="58" y="99"/>
      <point x="263" y="-5"/>
      <point x="545" y="-5" type="curve"/>
      <point x="694" y="-5"/>
      <point x="790" y="23"/>
      <point x="929" y="79" type="curve"/>
      <point x="850" y="165"/>
      <point x="929" y="79"/>
      <point x="850" y="165" type="curve"/>
      <point x="743" y="121"/>
      <point x="661" y="114"/>
      <point x="545" y="114" type="curve"/>
      <point x="351" y="114"/>
      <point x="215" y="190"/>
      <point x="215" y="371" type="curve"/>
      <point x="215" y="540"/>
      <point x="347" y="608"/>
      <point x="531" y="608" type="curve"/>
      <point x="641" y="608"/>
      <point x="728" y="594"/>
      <point x="829" y="549" type="curve"/>
      <point x="907" y="646"/>
      <point x="829" y="549"/>
    </contour>
  </outline>
</glyph>
<glyph name="H" format="1">
  <advance width="1044"/>
  <unicode hex="0048"/>
  <outline>
    <contour>
      <point x="837" y="608" type="curve"/>
      <point x="1025" y="608"/>
      <point x="811" y="608"/>
      <point x="998" y="608" type="curve"/>
      <point x="998" y="722"/>
      <point x="998" y="608"/>
      <point x="998" y="722" type="curve"/>
      <point x="936" y="722"/>
      <point x="900" y="722"/>
      <point x="837" y="722" type="curve"/>
      <point x="837" y="608"/>
      <point x="837" y="722"/>
    </contour>
    <contour>
      <point x="837" y="0" type="curve"/>
      <point x="900" y="0"/>
      <point x="936" y="0"/>
      <point x="998" y="0" type="curve"/>
      <point x="998" y="114"/>
      <point x="998" y="0"/>
      <point x="998" y="114" type="curve"/>
      <point x="811" y="114"/>
      <point x="1025" y="114"/>
      <point x="837" y="114" type="curve"/>
      <point x="837" y="0"/>
      <point x="837" y="114"/>
    </contour>
    <contour>
      <point x="837" y="114" type="curve"/>
      <point x="649" y="114"/>
      <point x="864" y="114"/>
      <point x="675" y="114" type="curve"/>
      <point x="675" y="0"/>
      <point x="675" y="114"/>
      <point x="675" y="0" type="curve"/>
      <point x="738" y="0"/>
      <point x="775" y="0"/>
      <point x="837" y="0" type="curve"/>
      <point x="837" y="114"/>
      <point x="837" y="0"/>
    </contour>
    <contour>
      <point x="837" y="722" type="curve"/>
      <point x="775" y="722"/>
      <point x="738" y="722"/>
      <point x="675" y="722" type="curve"/>
      <point x="675" y="608"/>
      <point x="675" y="722"/>
      <point x="675" y="608" type="curve"/>
      <point x="864" y="608"/>
      <point x="649" y="608"/>
      <point x="837" y="608" type="curve"/>
      <point x="837" y="722"/>
      <point x="837" y="608"/>
    </contour>
    <contour>
      <point x="207" y="608" type="curve"/>
      <point x="395" y="608"/>
      <point x="180" y="608"/>
      <point x="369" y="608" type="curve"/>
      <point x="369" y="722"/>
      <point x="369" y="608"/>
      <point x="369" y="722" type="curve"/>
      <point x="307" y="722"/>
      <point x="271" y="722"/>
      <point x="207" y="722" type="curve"/>
      <point x="207" y="608"/>
      <point x="207" y="722"/>
    </contour>
    <contour>
      <point x="207" y="722" type="curve"/>
      <point x="145" y="722"/>
      <point x="109" y="722"/>
      <point x="46" y="722" type="curve"/>
      <point x="46" y="608"/>
      <point x="46" y="722"/>
      <point x="46" y="608" type="curve"/>
      <point x="233" y="608"/>
      <point x="19" y="608"/>
      <point x="207" y="608" type="curve"/>
      <point x="207" y="722"/>
      <point x="207" y="608"/>
    </contour>
    <contour>
      <point x="207" y="0" type="curve"/>
      <point x="271" y="0"/>
      <point x="180" y="0"/>
      <point x="369" y="0" type="curve"/>
      <point x="369" y="114"/>
      <point x="369" y="0"/>
      <point x="369" y="114" type="curve"/>
      <point x="180" y="114"/>
      <point x="395" y="114"/>
      <point x="207" y="114" type="curve"/>
      <point x="207" y="0"/>
      <point x="207" y="114"/>
    </contour>
    <contour>
      <point x="207" y="114" type="curve"/>
      <point x="19" y="114"/>
      <point x="233" y="114"/>
      <point x="46" y="114" type="curve"/>
      <point x="46" y="0"/>
      <point x="46" y="114"/>
      <point x="46" y="0" type="curve"/>
      <point x="109" y="0"/>
      <point x="145" y="0"/>
      <point x="207" y="0" type="curve"/>
      <point x="207" y="114"/>
      <point x="207" y="0"/>
    </contour>
    <contour>
      <point x="287" y="0" type="curve"/>
      <point x="287" y="722" type="line"/>
      <point x="129" y="722"/>
      <point x="287" y="722"/>
      <point x="129" y="722" type="curve"/>
      <point x="129" y="481"/>
      <point x="129" y="241"/>
      <point x="129" y="0" type="curve"/>
      <point x="287" y="0"/>
      <point x="129" y="0"/>
    </contour>
    <contour>
      <point x="833" y="420" type="curve"/>
      <point x="624" y="420"/>
      <point x="416" y="420"/>
      <point x="207" y="420" type="curve"/>
      <point x="207" y="305"/>
      <point x="207" y="420"/>
      <point x="207" y="305" type="curve"/>
      <point x="416" y="305"/>
      <point x="624" y="305"/>
      <point x="833" y="305" type="curve"/>
      <point x="833" y="420"/>
      <point x="833" y="305"/>
    </contour>
    <contour>
      <point x="914" y="49" type="curve"/>
      <point x="914" y="257"/>
      <point x="914" y="465"/>
      <point x="914" y="673" type="curve"/>
      <point x="759" y="673"/>
      <point x="914" y="673"/>
      <point x="759" y="673" type="curve"/>
      <point x="759" y="49" type="line"/>
      <point x="914" y="49"/>
      <point x="759" y="49"/>
    </contour>
  </outline>
</glyph>
<glyph name="K" format="1">
  <advance width="887"/>
  <unicode hex="004B"/>
  <outline>
    <contour>
      <point x="498" y="5" type="move" name="bottom"/>
    </contour>
    <contour>
      <point x="717" y="722" type="curve"/>
      <point x="653" y="722"/>
      <point x="499" y="722"/>
      <point x="433" y="722" type="curve"/>
      <point x="433" y="608"/>
      <point x="433" y="722"/>
      <point x="433" y="608" type="curve"/>
      <point x="627" y="608"/>
      <point x="523" y="608"/>
      <point x="717" y="608" type="curve"/>
      <point x="717" y="722"/>
      <point x="717" y="608"/>
    </contour>
    <contour>
      <point x="725" y="0" type="curve"/>
      <point x="789" y="0"/>
      <point x="795" y="0"/>
      <point x="860" y="0" type="curve"/>
      <point x="860" y="114"/>
      <point x="860" y="0"/>
      <point x="860" y="114" type="curve"/>
      <point x="667" y="114"/>
      <point x="918" y="114"/>
      <point x="725" y="114" type="curve"/>
      <point x="725" y="0"/>
      <point x="725" y="114"/>
    </contour>
    <contour>
      <point x="714" y="608" type="curve"/>
      <point x="894" y="608"/>
      <point x="635" y="608"/>
      <point x="815" y="608" type="curve"/>
      <point x="815" y="722"/>
      <point x="815" y="608"/>
      <point x="815" y="722" type="curve"/>
      <point x="755" y="722"/>
      <point x="773" y="722"/>
      <point x="714" y="722" type="curve"/>
      <point x="714" y="608"/>
      <point x="714" y="722"/>
    </contour>
    <contour>
      <point x="207" y="722" type="curve"/>
      <point x="144" y="722"/>
      <point x="109" y="722"/>
      <point x="46" y="722" type="curve"/>
      <point x="46" y="608"/>
      <point x="46" y="722"/>
      <point x="46" y="608" type="curve"/>
      <point x="233" y="608"/>
      <point x="19" y="608"/>
      <point x="207" y="608" type="curve"/>
      <point x="207" y="722"/>
      <point x="207" y="608"/>
    </contour>
    <contour>
      <point x="207" y="608" type="curve"/>
      <point x="374" y="608"/>
      <point x="188" y="608"/>
      <point x="355" y="608" type="curve"/>
      <point x="355" y="722"/>
      <point x="355" y="608"/>
      <point x="355" y="722" type="curve"/>
      <point x="299" y="722"/>
      <point x="263" y="722"/>
      <point x="207" y="722" type="curve"/>
      <point x="207" y="608"/>
      <point x="207" y="722"/>
    </contour>
    <contour>
      <point x="207" y="0" type="curve"/>
      <point x="271" y="0"/>
      <point x="177" y="0"/>
      <point x="366" y="0" type="curve"/>
      <point x="366" y="114"/>
      <point x="366" y="0"/>
      <point x="366" y="114" type="curve"/>
      <point x="177" y="114"/>
      <point x="396" y="114"/>
      <point x="207" y="114" type="curve"/>
      <point x="207" y="0"/>
      <point x="207" y="114"/>
    </contour>
    <contour>
      <point x="207" y="114" type="curve"/>
      <point x="19" y="114"/>
      <point x="233" y="114"/>
      <point x="46" y="114" type="curve"/>
      <point x="46" y="0"/>
      <point x="46" y="114"/>
      <point x="46" y="0" type="curve"/>
      <point x="109" y="0"/>
      <point x="144" y="0"/>
      <point x="207" y="0" type="curve"/>
      <point x="207" y="114"/>
      <point x="207" y="0"/>
    </contour>
    <contour>
      <point x="647" y="722" type="curve"/>
      <point x="233" y="380" type="line"/>
      <point x="430" y="380"/>
      <point x="229" y="380"/>
      <point x="426" y="380" type="curve"/>
      <point x="789" y="673" type="line"/>
      <point x="567" y="673"/>
      <point x="869" y="722"/>
    </contour>
    <contour>
      <point x="285" y="0" type="curve"/>
      <point x="285" y="722" type="line"/>
      <point x="129" y="722"/>
      <point x="285" y="722"/>
      <point x="129" y="722" type="curve"/>
      <point x="129" y="481"/>
      <point x="129" y="241"/>
      <point x="129" y="0" type="curve"/>
      <point x="285" y="0"/>
      <point x="129" y="0"/>
    </contour>
    <contour>
      <point x="826" y="52" type="curve"/>
      <point x="426" y="380" type="line"/>
      <point x="229" y="380"/>
      <point x="430" y="380"/>
      <point x="233" y="380" type="curve"/>
      <point x="673" y="0" type="line"/>
      <point x="903" y="0"/>
      <point x="596" y="52"/>
    </contour>
  </outline>
</glyph>
<glyph name="L" format="1">
  <advance width="753"/>
  <unicode hex="004C"/>
  <outline>
    <contour>
      <point x="208" y="781" type="move" name="top"/>
    </contour>
    <contour>
      <point x="433" y="7" type="move" name="bottom"/>
    </contour>
    <contour>
      <point x="732" y="57" type="curve"/>
      <point x="732" y="177"/>
      <point x="732" y="57"/>
      <point x="732" y="177" type="curve"/>
      <point x="613" y="177"/>
      <point x="732" y="177"/>
      <point x="613" y="177" type="curve"/>
      <point x="613" y="57"/>
      <point x="613" y="177"/>
      <point x="613" y="57" type="curve"/>
      <point x="732" y="57"/>
      <point x="613" y="57"/>
    </contour>
    <contour>
      <point x="208" y="114" type="curve"/>
      <point x="19" y="114"/>
      <point x="234" y="114"/>
      <point x="46" y="114" type="curve"/>
      <point x="46" y="0"/>
      <point x="46" y="114"/>
      <point x="46" y="0" type="curve"/>
      <point x="108" y="0"/>
      <point x="144" y="0"/>
      <point x="208" y="0" type="curve"/>
      <point x="208" y="114"/>
      <point x="208" y="0"/>
    </contour>
    <contour>
      <point x="208" y="722" type="curve"/>
      <point x="144" y="722"/>
      <point x="108" y="722"/>
      <point x="46" y="722" type="curve"/>
      <point x="46" y="608"/>
      <point x="46" y="722"/>
      <point x="46" y="608" type="curve"/>
      <point x="234" y="608"/>
      <point x="19" y="608"/>
      <point x="208" y="608" type="curve"/>
      <point x="208" y="722"/>
      <point x="208" y="608"/>
    </contour>
    <contour>
      <point x="208" y="608" type="curve"/>
      <point x="395" y="608"/>
      <point x="181" y="608"/>
      <point x="369" y="608" type="curve"/>
      <point x="369" y="722"/>
      <point x="369" y="608"/>
      <point x="369" y="722" type="curve"/>
      <point x="306" y="722"/>
      <point x="270" y="722"/>
      <point x="208" y="722" type="curve"/>
      <point x="208" y="608"/>
      <point x="208" y="722"/>
    </contour>
    <contour>
      <point x="287" y="0" type="curve"/>
      <point x="287" y="241"/>
      <point x="287" y="481"/>
      <point x="287" y="722" type="curve"/>
      <point x="130" y="722"/>
      <point x="287" y="722"/>
      <point x="130" y="722" type="curve"/>
      <point x="130" y="481"/>
      <point x="130" y="241"/>
      <point x="130" y="0" type="curve"/>
      <point x="287" y="0"/>
      <point x="130" y="0"/>
    </contour>
    <contour>
      <point x="208" y="0" type="curve"/>
      <point x="383" y="0"/>
      <point x="557" y="0"/>
      <point x="732" y="0" type="curve"/>
      <point x="732" y="114"/>
      <point x="732" y="0"/>
      <point x="732" y="114" type="curve"/>
      <point x="557" y="114"/>
      <point x="383" y="114"/>
      <point x="208" y="114" type="curve"/>
      <point x="208" y="0"/>
      <point x="208" y="114"/>
    </contour>
  </outline>
</glyph>
<glyph name="M" format="1">
  <advance width="1203"/>
  <unicode hex="004D"/>
  <outline>
    <contour>
      <point x="1023" y="0" type="curve"/>
      <point x="1085" y="0"/>
      <point x="1121" y="0"/>
      <point x="1182" y="0" type="curve"/>
      <point x="1182" y="114"/>
      <point x="1182" y="0"/>
      <point x="1182" y="114" type="curve"/>
      <point x="997" y="114"/>
      <point x="1209" y="114"/>
      <point x="1023" y="114" type="curve"/>
      <point x="1023" y="0"/>
      <point x="1023" y="114"/>
    </contour>
    <contour>
      <point x="1023" y="114" type="curve"/>
      <point x="837" y="114"/>
      <point x="1050" y="114"/>
      <point x="864" y="114" type="curve"/>
      <point x="864" y="0"/>
      <point x="864" y="114"/>
      <point x="864" y="0" type="curve"/>
      <point x="925" y="0"/>
      <point x="961" y="0"/>
      <point x="1023" y="0" type="curve"/>
      <point x="1023" y="114"/>
      <point x="1023" y="0"/>
    </contour>
    <contour>
      <point x="183" y="114" type="curve"/>
      <point x="-4" y="114"/>
      <point x="210" y="114"/>
      <point x="23" y="114" type="curve"/>
      <point x="23" y="0"/>
      <point x="23" y="114"/>
      <point x="23" y="0" type="curve"/>
      <point x="85" y="0"/>
      <point x="120" y="0"/>
      <point x="183" y="0" type="curve"/>
      <point x="183" y="114"/>
      <point x="183" y="0"/>
    </contour>
    <contour>
      <point x="248" y="722" type="curve"/>
      <point x="186" y="722"/>
      <point x="149" y="722"/>
      <point x="87" y="722" type="curve"/>
      <point x="87" y="608"/>
      <point x="87" y="722"/>
      <point x="87" y="608" type="curve"/>
      <point x="275" y="608"/>
      <point x="61" y="608"/>
      <point x="248" y="608" type="curve"/>
      <point x="248" y="722"/>
      <point x="248" y="608"/>
    </contour>
    <contour>
      <point x="956" y="608" type="curve"/>
      <point x="1143" y="608"/>
      <point x="929" y="608"/>
      <point x="1117" y="608" type="curve"/>
      <point x="1117" y="722"/>
      <point x="1117" y="608"/>
      <point x="1117" y="722" type="curve"/>
      <point x="1054" y="722"/>
      <point x="1019" y="722"/>
      <point x="956" y="722" type="curve"/>
      <point x="956" y="608"/>
      <point x="956" y="722"/>
    </contour>
    <contour>
      <point x="183" y="0" type="curve"/>
      <point x="244" y="0"/>
      <point x="157" y="0"/>
      <point x="342" y="0" type="curve"/>
      <point x="342" y="114"/>
      <point x="342" y="0"/>
      <point x="342" y="114" type="curve"/>
      <point x="157" y="114"/>
      <point x="369" y="114"/>
      <point x="183" y="114" type="curve"/>
      <point x="183" y="0"/>
      <point x="183" y="114"/>
    </contour>
    <contour>
      <point x="1111" y="0" type="curve"/>
      <point x="1085" y="241"/>
      <point x="1053" y="481"/>
      <point x="1027" y="722" type="curve"/>
      <point x="885" y="722"/>
      <point x="1027" y="722"/>
      <point x="885" y="722" type="curve"/>
      <point x="910" y="482"/>
      <point x="929" y="240"/>
      <point x="954" y="0" type="curve"/>
      <point x="1111" y="0"/>
      <point x="954" y="0"/>
    </contour>
    <contour>
      <point x="250" y="0" type="curve"/>
      <point x="274" y="241"/>
      <point x="297" y="481"/>
      <point x="321" y="722" type="curve"/>
      <point x="170" y="722"/>
      <point x="321" y="722"/>
      <point x="170" y="722" type="curve"/>
      <point x="145" y="481"/>
      <point x="121" y="241"/>
      <point x="96" y="0" type="curve"/>
      <point x="250" y="0"/>
      <point x="96" y="0"/>
    </contour>
    <contour>
      <point x="674" y="0" type="curve"/>
      <point x="557" y="241"/>
      <point x="440" y="481"/>
      <point x="324" y="722" type="curve"/>
      <point x="172" y="722"/>
      <point x="324" y="722"/>
      <point x="172" y="722" type="curve"/>
      <point x="288" y="481"/>
      <point x="404" y="241"/>
      <point x="521" y="0" type="curve"/>
      <point x="674" y="0"/>
      <point x="521" y="0"/>
    </contour>
    <contour>
      <point x="686" y="0" type="curve"/>
      <point x="800" y="241"/>
      <point x="914" y="481"/>
      <point x="1029" y="722" type="curve"/>
      <point x="876" y="722"/>
      <point x="1028" y="722"/>
      <point x="876" y="722" type="curve"/>
      <point x="761" y="481"/>
      <point x="646" y="241"/>
      <point x="531" y="0" type="curve"/>
      <point x="686" y="0"/>
      <point x="531" y="0"/>
    </contour>
  </outline>
</glyph>
<glyph name="P" format="1">
  <advance width="804"/>
  <unicode hex="0050"/>
  <outline>
    <contour>
      <point x="237" y="722" type="curve"/>
      <point x="184" y="722"/>
      <point x="130" y="722"/>
      <point x="75" y="722" type="curve"/>
      <point x="75" y="608"/>
      <point x="75" y="722"/>
      <point x="75" y="608" type="curve"/>
      <point x="237" y="608"/>
      <point x="75" y="608"/>
      <point x="237" y="608" type="curve"/>
      <point x="237" y="722"/>
      <point x="237" y="608"/>
    </contour>
    <contour>
      <point x="237" y="114" type="curve"/>
      <point x="75" y="114"/>
      <point x="237" y="114"/>
      <point x="75" y="114" type="curve"/>
      <point x="75" y="0"/>
      <point x="75" y="114"/>
      <point x="75" y="0" type="curve"/>
      <point x="130" y="0"/>
      <point x="184" y="0"/>
      <point x="237" y="0" type="curve"/>
      <point x="237" y="114"/>
      <point x="237" y="0"/>
    </contour>
    <contour>
      <point x="237" y="0" type="curve"/>
      <point x="291" y="0"/>
      <point x="237" y="0"/>
      <point x="398" y="0" type="curve"/>
      <point x="398" y="114"/>
      <point x="398" y="0"/>
      <point x="398" y="114" type="curve"/>
      <point x="237" y="114"/>
      <point x="398" y="114"/>
      <point x="237" y="114" type="curve"/>
      <point x="237" y="0"/>
      <point x="237" y="114"/>
    </contour>
    <contour>
      <point x="215" y="289" type="curve"/>
      <point x="287" y="263"/>
      <point x="376" y="244"/>
      <point x="454" y="244" type="curve"/>
      <point x="639" y="247"/>
      <point x="766" y="311"/>
      <point x="766" y="481" type="curve"/>
      <point x="766" y="654"/>
      <point x="606" y="722"/>
      <point x="409" y="722" type="curve"/>
      <point x="353" y="722"/>
      <point x="297" y="722"/>
      <point x="241" y="722" type="curve"/>
      <point x="241" y="608"/>
      <point x="241" y="722"/>
      <point x="241" y="608" type="curve"/>
      <point x="289" y="608"/>
      <point x="340" y="608"/>
      <point x="389" y="608" type="curve"/>
      <point x="508" y="608"/>
      <point x="611" y="581"/>
      <point x="611" y="485" type="curve"/>
      <point x="611" y="391"/>
      <point x="532" y="358"/>
      <point x="438" y="358" type="curve"/>
      <point x="373" y="358"/>
      <point x="325" y="369"/>
      <point x="264" y="391" type="curve"/>
      <point x="215" y="289"/>
      <point x="264" y="391"/>
    </contour>
    <contour>
      <point x="314" y="0" type="curve"/>
      <point x="314" y="241"/>
      <point x="314" y="481"/>
      <point x="314" y="722" type="curve"/>
      <point x="159" y="722"/>
      <point x="314" y="722"/>
      <point x="159" y="722" type="curve"/>
      <point x="159" y="481"/>
      <point x="159" y="241"/>
      <point x="159" y="0" type="curve"/>
      <point x="314" y="0"/>
      <point x="159" y="0"/>
    </contour>
  </outline>
</glyph>
<glyph name="Q" format="1">
  <advance width="992"/>
  <unicode hex="0051"/>
  <outline>
    <contour>
      <point x="431" y="28" type="curve"/>
      <point x="586" y="-170"/>
      <point x="746" y="-210"/>
      <point x="983" y="-210" type="curve"/>
      <point x="983" y="-91"/>
      <point x="983" y="-210"/>
      <point x="983" y="-91" type="curve"/>
      <point x="805" y="-91"/>
      <point x="685" y="-65"/>
      <point x="565" y="86" type="curve"/>
      <point x="431" y="28"/>
      <point x="565" y="86"/>
    </contour>
    <contour>
      <point x="213" y="360" type="curve"/>
      <point x="213" y="517"/>
      <point x="327" y="603"/>
      <point x="486" y="603" type="curve"/>
      <point x="650" y="603"/>
      <point x="762" y="519"/>
      <point x="762" y="360" type="curve"/>
      <point x="762" y="203"/>
      <point x="651" y="114"/>
      <point x="493" y="114" type="curve"/>
      <point x="328" y="114"/>
      <point x="213" y="200"/>
      <point x="213" y="360" type="curve"/>
      <point x="57" y="360"/>
      <point x="213" y="360"/>
      <point x="57" y="360" type="curve"/>
      <point x="57" y="120"/>
      <point x="238" y="-5"/>
      <point x="485" y="-5" type="curve"/>
      <point x="737" y="-5"/>
      <point x="917" y="123"/>
      <point x="917" y="366" type="curve"/>
      <point x="917" y="606"/>
      <point x="742" y="732"/>
      <point x="494" y="732" type="curve"/>
      <point x="241" y="732"/>
      <point x="57" y="604"/>
      <point x="57" y="360" type="curve"/>
      <point x="213" y="360"/>
      <point x="57" y="360"/>
    </contour>
  </outline>
</glyph>
<glyph name="T" format="1">
  <advance width="824"/>
  <unicode hex="0054"/>
  <outline>
    <contour>
      <point x="408" y="781" type="move" name="top"/>
    </contour>
    <contour>
      <point x="454" y="6" type="move" name="bottom"/>
    </contour>
    <contour>
      <point x="27" y="664" type="curve"/>
      <point x="27" y="544"/>
      <point x="27" y="664"/>
      <point x="27" y="544" type="curve"/>
      <point x="145" y="544"/>
      <point x="27" y="544"/>
      <point x="145" y="544" type="curve"/>
      <point x="145" y="664"/>
      <point x="145" y="544"/>
      <point x="145" y="664" type="curve"/>
      <point x="27" y="664"/>
      <point x="145" y="664"/>
    </contour>
    <contour>
      <point x="679" y="664" type="curve"/>
      <point x="679" y="544"/>
      <point x="679" y="664"/>
      <point x="679" y="544" type="curve"/>
      <point x="798" y="544"/>
      <point x="679" y="544"/>
      <point x="798" y="544" type="curve"/>
      <point x="798" y="664"/>
      <point x="798" y="544"/>
      <point x="798" y="664" type="curve"/>
      <point x="679" y="664"/>
      <point x="798" y="664"/>
    </contour>
    <contour>
      <point x="411" y="0" type="curve"/>
      <point x="465" y="0"/>
      <point x="519" y="0"/>
      <point x="572" y="0" type="curve"/>
      <point x="572" y="114"/>
      <point x="572" y="0"/>
      <point x="572" y="114" type="curve"/>
      <point x="411" y="114"/>
      <point x="572" y="114"/>
      <point x="411" y="114" type="curve"/>
      <point x="411" y="0"/>
      <point x="411" y="114"/>
    </contour>
    <contour>
      <point x="411" y="114" type="curve"/>
      <point x="250" y="114"/>
      <point x="411" y="114"/>
      <point x="250" y="114" type="curve"/>
      <point x="250" y="0"/>
      <point x="250" y="114"/>
      <point x="250" y="0" type="curve"/>
      <point x="303" y="0"/>
      <point x="357" y="0"/>
      <point x="411" y="0" type="curve"/>
      <point x="411" y="114"/>
      <point x="411" y="0"/>
    </contour>
    <contour>
      <point x="490" y="0" type="curve"/>
      <point x="490" y="237"/>
      <point x="490" y="473"/>
      <point x="490" y="710" type="curve"/>
      <point x="334" y="710"/>
      <point x="490" y="710"/>
      <point x="334" y="710" type="curve"/>
      <point x="334" y="473"/>
      <point x="334" y="237"/>
      <point x="334" y="0" type="curve"/>
      <point x="490" y="0"/>
      <point x="334" y="0"/>
    </contour>
    <contour>
      <point x="27" y="601" type="curve"/>
      <point x="283" y="601"/>
      <point x="541" y="601"/>
      <point x="798" y="601" type="curve"/>
      <point x="798" y="727"/>
      <point x="798" y="596"/>
      <point x="798" y="722" type="curve"/>
      <point x="541" y="722"/>
      <point x="283" y="722"/>
      <point x="27" y="722" type="curve"/>
      <point x="27" y="596"/>
      <point x="27" y="727"/>
    </contour>
  </outline>
</glyph>
<glyph name="V" format="1">
  <advance width="951"/>
  <unicode hex="0056"/>
  <outline>
    <contour>
      <point x="784" y="722" type="curve"/>
      <point x="726" y="722"/>
      <point x="666" y="722"/>
      <point x="608" y="722" type="curve"/>
      <point x="608" y="608"/>
      <point x="608" y="722"/>
      <point x="608" y="608" type="curve"/>
      <point x="784" y="608"/>
      <point x="608" y="608"/>
      <point x="784" y="608" type="curve"/>
      <point x="784" y="722"/>
      <point x="784" y="608"/>
    </contour>
    <contour>
      <point x="145" y="722" type="curve"/>
      <point x="98" y="722"/>
      <point x="51" y="722"/>
      <point x="4" y="722" type="curve"/>
      <point x="4" y="608"/>
      <point x="4" y="722"/>
      <point x="4" y="608" type="curve"/>
      <point x="145" y="608"/>
      <point x="4" y="608"/>
      <point x="145" y="608" type="curve"/>
      <point x="145" y="722"/>
      <point x="145" y="608"/>
    </contour>
    <contour>
      <point x="803" y="608" type="curve"/>
      <point x="945" y="608"/>
      <point x="803" y="608"/>
      <point x="945" y="608" type="curve"/>
      <point x="945" y="722"/>
      <point x="945" y="608"/>
      <point x="945" y="722" type="curve"/>
      <point x="898" y="722"/>
      <point x="851" y="722"/>
      <point x="803" y="722" type="curve"/>
      <point x="803" y="608"/>
      <point x="803" y="722"/>
    </contour>
    <contour>
      <point x="164" y="608" type="curve"/>
      <point x="339" y="608"/>
      <point x="164" y="608"/>
      <point x="339" y="608" type="curve"/>
      <point x="339" y="722"/>
      <point x="339" y="608"/>
      <point x="339" y="722" type="curve"/>
      <point x="282" y="722"/>
      <point x="223" y="722"/>
      <point x="164" y="722" type="curve"/>
      <point x="164" y="608"/>
      <point x="164" y="722"/>
    </contour>
    <contour>
      <point x="748" y="722" type="curve"/>
      <point x="632" y="481"/>
      <point x="518" y="241"/>
      <point x="404" y="0" type="curve"/>
      <point x="562" y="0"/>
      <point x="402" y="0"/>
      <point x="560" y="0" type="curve"/>
      <point x="675" y="241"/>
      <point x="790" y="481"/>
      <point x="906" y="722" type="curve"/>
      <point x="748" y="722"/>
      <point x="906" y="722"/>
    </contour>
    <contour>
      <point x="42" y="722" type="curve"/>
      <point x="160" y="481"/>
      <point x="277" y="241"/>
      <point x="394" y="0" type="curve"/>
      <point x="553" y="0"/>
      <point x="393" y="0"/>
      <point x="551" y="0" type="curve"/>
      <point x="435" y="241"/>
      <point x="319" y="481"/>
      <point x="202" y="722" type="curve"/>
      <point x="43" y="722"/>
      <point x="202" y="722"/>
    </contour>
  </outline>
</glyph>
<glyph name="W" format="1">
  <advance width="1222"/>
  <unicode hex="0057"/>
  <outline>
    <contour>
      <point x="174" y="608" type="curve"/>
      <point x="323" y="608"/>
      <point x="174" y="608"/>
      <point x="323" y="608" type="curve"/>
      <point x="323" y="722"/>
      <point x="323" y="608"/>
      <point x="323" y="722" type="curve"/>
      <point x="273" y="722"/>
      <point x="224" y="722"/>
      <point x="174" y="722" type="curve"/>
      <point x="174" y="608"/>
      <point x="174" y="722"/>
    </contour>
    <contour>
      <point x="173" y="722" type="curve"/>
      <point x="120" y="722"/>
      <point x="66" y="722"/>
      <point x="14" y="722" type="curve"/>
      <point x="14" y="608"/>
      <point x="14" y="722"/>
      <point x="14" y="608" type="curve"/>
      <point x="173" y="608"/>
      <point x="14" y="608"/>
      <point x="173" y="608" type="curve"/>
      <point x="173" y="722"/>
      <point x="173" y="608"/>
    </contour>
    <contour>
      <point x="1053" y="722" type="curve"/>
      <point x="1004" y="722"/>
      <point x="954" y="722"/>
      <point x="905" y="722" type="curve"/>
      <point x="905" y="608"/>
      <point x="905" y="722"/>
      <point x="905" y="608" type="curve"/>
      <point x="1053" y="608"/>
      <point x="905" y="608"/>
      <point x="1053" y="608" type="curve"/>
      <point x="1053" y="722"/>
      <point x="1053" y="608"/>
    </contour>
    <contour>
      <point x="1054" y="608" type="curve"/>
      <point x="1213" y="608"/>
      <point x="1054" y="608"/>
      <point x="1213" y="608" type="curve"/>
      <point x="1213" y="722"/>
      <point x="1213" y="608"/>
      <point x="1213" y="722" type="curve"/>
      <point x="1161" y="722"/>
      <point x="1107" y="722"/>
      <point x="1054" y="722" type="curve"/>
      <point x="1054" y="608"/>
      <point x="1054" y="722"/>
    </contour>
    <contour>
      <point x="444" y="0" type="curve"/>
      <point x="526" y="241"/>
      <point x="605" y="481"/>
      <point x="688" y="722" type="curve"/>
      <point x="535" y="722"/>
      <point x="693" y="722"/>
      <point x="540" y="722" type="curve"/>
      <point x="462" y="480"/>
      <point x="387" y="241"/>
      <point x="309" y="0" type="curve"/>
      <point x="457" y="0"/>
      <point x="295" y="0"/>
    </contour>
    <contour>
      <point x="556" y="722" type="curve"/>
      <point x="632" y="481"/>
      <point x="699" y="241"/>
      <point x="773" y="0" type="curve"/>
      <point x="922" y="0"/>
      <point x="759" y="0"/>
      <point x="908" y="0" type="curve"/>
      <point x="840" y="241"/>
      <point x="774" y="480"/>
      <point x="701" y="722" type="curve"/>
      <point x="549" y="722"/>
      <point x="709" y="722"/>
    </contour>
    <contour>
      <point x="62" y="722" type="curve"/>
      <point x="136" y="481"/>
      <point x="212" y="241"/>
      <point x="288" y="0" type="curve"/>
      <point x="436" y="0"/>
      <point x="280" y="0"/>
      <point x="428" y="0" type="curve"/>
      <point x="355" y="241"/>
      <point x="290" y="481"/>
      <point x="217" y="722" type="curve"/>
      <point x="62" y="722"/>
      <point x="217" y="722"/>
    </contour>
    <contour>
      <point x="1010" y="722" type="curve"/>
      <point x="936" y="481"/>
      <point x="868" y="241"/>
      <point x="794" y="0" type="curve"/>
      <point x="943" y="0"/>
      <point x="781" y="0"/>
      <point x="929" y="0" type="curve"/>
      <point x="1008" y="241"/>
      <point x="1085" y="481"/>
      <point x="1164" y="722" type="curve"/>
      <point x="1010" y="722"/>
      <point x="1164" y="722"/>
    </contour>
  </outline>
</glyph>
<glyph name="X" format="1">
  <advance width="889"/>
  <unicode hex="0058"/>
  <outline>
    <contour>
      <point x="188" y="0" type="curve"/>
      <point x="251" y="0"/>
      <point x="188" y="0"/>
      <point x="375" y="0" type="curve"/>
      <point x="375" y="114"/>
      <point x="375" y="0"/>
      <point x="375" y="114" type="curve"/>
      <point x="188" y="114"/>
      <point x="375" y="114"/>
      <point x="188" y="114" type="curve"/>
      <point x="188" y="0"/>
      <point x="188" y="114"/>
    </contour>
    <contour>
      <point x="186" y="114" type="curve"/>
      <point x="19" y="114"/>
      <point x="187" y="114"/>
      <point x="19" y="114" type="curve"/>
      <point x="19" y="0"/>
      <point x="19" y="114"/>
      <point x="19" y="0" type="curve"/>
      <point x="75" y="0"/>
      <point x="132" y="0"/>
      <point x="186" y="0" type="curve"/>
      <point x="186" y="114"/>
      <point x="186" y="0"/>
    </contour>
    <contour>
      <point x="699" y="0" type="curve"/>
      <point x="755" y="0"/>
      <point x="811" y="0"/>
      <point x="867" y="0" type="curve"/>
      <point x="867" y="114"/>
      <point x="867" y="0"/>
      <point x="867" y="114" type="curve"/>
      <point x="699" y="114"/>
      <point x="867" y="114"/>
      <point x="699" y="114" type="curve"/>
      <point x="699" y="0"/>
      <point x="699" y="114"/>
    </contour>
    <contour>
      <point x="697" y="114" type="curve"/>
      <point x="509" y="114"/>
      <point x="697" y="114"/>
      <point x="509" y="114" type="curve"/>
      <point x="509" y="0"/>
      <point x="509" y="114"/>
      <point x="509" y="0" type="curve"/>
      <point x="572" y="0"/>
      <point x="634" y="0"/>
      <point x="697" y="0" type="curve"/>
      <point x="697" y="114"/>
      <point x="697" y="0"/>
    </contour>
    <contour>
      <point x="665" y="608" type="curve"/>
      <point x="833" y="608"/>
      <point x="665" y="608"/>
      <point x="833" y="608" type="curve"/>
      <point x="833" y="722"/>
      <point x="833" y="608"/>
      <point x="833" y="722" type="curve"/>
      <point x="777" y="722"/>
      <point x="721" y="722"/>
      <point x="665" y="722" type="curve"/>
      <point x="665" y="608"/>
      <point x="665" y="722"/>
    </contour>
    <contour>
      <point x="666" y="722" type="curve"/>
      <point x="604" y="722"/>
      <point x="541" y="722"/>
      <point x="478" y="722" type="curve"/>
      <point x="478" y="608"/>
      <point x="478" y="722"/>
      <point x="478" y="608" type="curve"/>
      <point x="666" y="608"/>
      <point x="478" y="608"/>
      <point x="666" y="608" type="curve"/>
      <point x="666" y="722"/>
      <point x="666" y="608"/>
    </contour>
    <contour>
      <point x="232" y="722" type="curve"/>
      <point x="177" y="722"/>
      <point x="120" y="722"/>
      <point x="64" y="722" type="curve"/>
      <point x="64" y="608"/>
      <point x="64" y="722"/>
      <point x="64" y="608" type="curve"/>
      <point x="232" y="608"/>
      <point x="64" y="608"/>
      <point x="232" y="608" type="curve"/>
      <point x="232" y="722"/>
      <point x="232" y="608"/>
    </contour>
    <contour>
      <point x="230" y="608" type="curve"/>
      <point x="419" y="608"/>
      <point x="230" y="608"/>
      <point x="419" y="608" type="curve"/>
      <point x="419" y="722"/>
      <point x="419" y="608"/>
      <point x="419" y="722" type="curve"/>
      <point x="357" y="722"/>
      <point x="293" y="722"/>
      <point x="230" y="722" type="curve"/>
      <point x="230" y="608"/>
      <point x="230" y="722"/>
    </contour>
    <contour>
      <point x="655" y="722" type="curve"/>
      <point x="461" y="495"/>
      <point x="261" y="272"/>
      <point x="66" y="45" type="curve"/>
      <point x="219" y="45"/>
      <point x="66" y="0"/>
      <point x="219" y="0" type="curve"/>
      <point x="413" y="227"/>
      <point x="603" y="457"/>
      <point x="798" y="684" type="curve"/>
      <point x="655" y="684"/>
      <point x="798" y="722"/>
    </contour>
    <contour>
      <point x="100" y="683" type="curve"/>
      <point x="293" y="457"/>
      <point x="481" y="227"/>
      <point x="674" y="0" type="curve"/>
      <point x="828" y="0"/>
      <point x="674" y="30"/>
      <point x="828" y="30" type="curve"/>
      <point x="632" y="262"/>
      <point x="434" y="491"/>
      <point x="238" y="722" type="curve"/>
      <point x="100" y="722"/>
      <point x="238" y="683"/>
    </contour>
  </outline>
</glyph>
<glyph name="Y" format="1">
  <advance width="768"/>
  <unicode hex="0059"/>
  <outline>
    <contour>
      <point x="387" y="781" type="move" name="top"/>
    </contour>
    <contour>
      <point x="382" y="114" type="curve"/>
      <point x="221" y="114"/>
      <point x="382" y="114"/>
      <point x="221" y="114" type="curve"/>
      <point x="221" y="0"/>
      <point x="221" y="114"/>
      <point x="221" y="0" type="curve"/>
      <point x="275" y="0"/>
      <point x="328" y="0"/>
      <point x="382" y="0" type="curve"/>
      <point x="382" y="114"/>
      <point x="382" y="0"/>
    </contour>
    <contour>
      <point x="382" y="0" type="curve"/>
      <point x="436" y="0"/>
      <point x="489" y="0"/>
      <point x="543" y="0" type="curve"/>
      <point x="543" y="114"/>
      <point x="543" y="0"/>
      <point x="543" y="114" type="curve"/>
      <point x="382" y="114"/>
      <point x="543" y="114"/>
      <point x="382" y="114" type="curve"/>
      <point x="382" y="0"/>
      <point x="382" y="114"/>
    </contour>
    <contour>
      <point x="618" y="722" type="curve"/>
      <point x="565" y="722"/>
      <point x="512" y="722"/>
      <point x="458" y="722" type="curve"/>
      <point x="458" y="608"/>
      <point x="458" y="722"/>
      <point x="458" y="608" type="curve"/>
      <point x="618" y="608"/>
      <point x="458" y="608"/>
      <point x="618" y="608" type="curve"/>
      <point x="618" y="722"/>
      <point x="618" y="608"/>
    </contour>
    <contour>
      <point x="157" y="722" type="curve"/>
      <point x="111" y="722"/>
      <point x="64" y="722"/>
      <point x="17" y="722" type="curve"/>
      <point x="17" y="608"/>
      <point x="17" y="722"/>
      <point x="17" y="608" type="curve"/>
      <point x="157" y="608"/>
      <point x="17" y="608"/>
      <point x="157" y="608" type="curve"/>
      <point x="157" y="722"/>
      <point x="157" y="608"/>
    </contour>
    <contour>
      <point x="159" y="608" type="curve"/>
      <point x="320" y="608"/>
      <point x="159" y="608"/>
      <point x="320" y="608" type="curve"/>
      <point x="320" y="722"/>
      <point x="320" y="608"/>
      <point x="320" y="722" type="curve"/>
      <point x="266" y="722"/>
      <point x="213" y="722"/>
      <point x="159" y="722" type="curve"/>
      <point x="159" y="608"/>
      <point x="159" y="722"/>
    </contour>
    <contour>
      <point x="620" y="608" type="curve"/>
      <point x="761" y="608"/>
      <point x="620" y="608"/>
      <point x="761" y="608" type="curve"/>
      <point x="761" y="722"/>
      <point x="761" y="608"/>
      <point x="761" y="722" type="curve"/>
      <point x="714" y="722"/>
      <point x="667" y="722"/>
      <point x="620" y="722" type="curve"/>
      <point x="620" y="608"/>
      <point x="620" y="722"/>
    </contour>
    <contour>
      <point x="39" y="685" type="curve"/>
      <point x="128" y="570"/>
      <point x="215" y="453"/>
      <point x="302" y="337" type="curve"/>
      <point x="461" y="337"/>
      <point x="300" y="337"/>
      <point x="458" y="337" type="curve"/>
      <point x="361" y="466"/>
      <point x="265" y="594"/>
      <point x="168" y="722" type="curve"/>
      <point x="39" y="722"/>
      <point x="168" y="685"/>
    </contour>
    <contour>
      <point x="611" y="722" type="curve"/>
      <point x="509" y="594"/>
      <point x="407" y="465"/>
      <point x="305" y="337" type="curve"/>
      <point x="462" y="337"/>
      <point x="303" y="337"/>
      <point x="461" y="337" type="curve"/>
      <point x="555" y="454"/>
      <point x="647" y="571"/>
      <point x="741" y="688" type="curve"/>
      <point x="611" y="688"/>
      <point x="741" y="722"/>
    </contour>
    <contour>
      <point x="467" y="0" type="curve"/>
      <point x="467" y="115"/>
      <point x="467" y="230"/>
      <point x="467" y="345" type="curve"/>
      <point x="296" y="345"/>
      <point x="467" y="345"/>
      <point x="296" y="345" type="curve"/>
      <point x="296" y="230"/>
      <point x="296" y="115"/>
      <point x="296" y="0" type="curve"/>
      <point x="467" y="0"/>
      <point x="296" y="0"/>
    </contour>
  </outline>
</glyph>
<glyph name="bracketleft" format="1">
  <advance width="396"/>
  <unicode hex="005B"/>
  <outline>
    <contour>
      <point x="342" y="769" type="curve"/>
      <point x="278" y="769"/>
      <point x="215" y="769"/>
      <point x="152" y="769" type="curve"/>
      <point x="131" y="769"/>
      <point x="101" y="769"/>
      <point x="82" y="769" type="curve"/>
      <point x="82" y="753"/>
      <point x="82" y="728"/>
      <point x="82" y="711" type="curve"/>
      <point x="82" y="455"/>
      <point x="82" y="200"/>
      <point x="82" y="-56" type="curve"/>
      <point x="82" y="-74"/>
      <point x="82" y="-96"/>
      <point x="82" y="-112" type="curve"/>
      <point x="100" y="-112"/>
      <point x="129" y="-112"/>
      <point x="151" y="-112" type="curve"/>
      <point x="214" y="-112"/>
      <point x="278" y="-112"/>
      <point x="342" y="-112" type="curve"/>
      <point x="342" y="14"/>
      <point x="342" y="-112"/>
      <point x="342" y="14" type="curve"/>
      <point x="278" y="14"/>
      <point x="214" y="14"/>
      <point x="151" y="14" type="curve"/>
      <point x="238" y="14"/>
      <point x="151" y="14"/>
      <point x="238" y="14" type="curve"/>
      <point x="238" y="-56"/>
      <point x="238" y="14"/>
      <point x="238" y="-56" type="curve"/>
      <point x="238" y="200"/>
      <point x="238" y="455"/>
      <point x="238" y="711" type="curve"/>
      <point x="238" y="644"/>
      <point x="238" y="711"/>
      <point x="238" y="644" type="curve"/>
      <point x="152" y="644"/>
      <point x="238" y="644"/>
      <point x="152" y="644" type="curve"/>
      <point x="215" y="644"/>
      <point x="278" y="644"/>
      <point x="342" y="644" type="curve"/>
      <point x="342" y="769"/>
      <point x="342" y="644"/>
    </contour>
  </outline>
</glyph>
<glyph name="backslash" format="1">
  <advance width="711"/>
  <unicode hex="005C"/>
  <outline>
    <contour>
      <point x="682" y="-68" type="curve"/>
      <point x="519" y="236"/>
      <point x="356" y="540"/>
      <point x="193" y="844" type="curve"/>
      <point x="29" y="844"/>
      <point x="193" y="844"/>
      <point x="29" y="844" type="curve"/>
      <point x="192" y="540"/>
      <point x="355" y="236"/>
      <point x="519" y="-68" type="curve"/>
      <point x="682" y="-68"/>
      <point x="519" y="-68"/>
    </contour>
  </outline>
</glyph>
<glyph name="bracketright" format="1">
  <advance width="396"/>
  <unicode hex="005D"/>
  <outline>
    <contour>
      <point x="54" y="644" type="curve"/>
      <point x="117" y="644"/>
      <point x="180" y="644"/>
      <point x="245" y="644" type="curve"/>
      <point x="228" y="653"/>
      <point x="210" y="660"/>
      <point x="195" y="671" type="curve"/>
      <point x="180" y="682"/>
      <point x="172" y="699"/>
      <point x="157" y="711" type="curve"/>
      <point x="157" y="455"/>
      <point x="157" y="200"/>
      <point x="157" y="-56" type="curve"/>
      <point x="172" y="-44"/>
      <point x="184" y="-28"/>
      <point x="199" y="-17" type="curve"/>
      <point x="214" y="-5"/>
      <point x="230" y="3"/>
      <point x="246" y="14" type="curve"/>
      <point x="181" y="14"/>
      <point x="117" y="14"/>
      <point x="54" y="14" type="curve"/>
      <point x="54" y="-112"/>
      <point x="54" y="14"/>
      <point x="54" y="-112" type="curve"/>
      <point x="117" y="-112"/>
      <point x="181" y="-112"/>
      <point x="246" y="-112" type="curve"/>
      <point x="314" y="-112"/>
      <point x="246" y="-112"/>
      <point x="314" y="-112" type="curve"/>
      <point x="314" y="-56"/>
      <point x="314" y="-112"/>
      <point x="314" y="-56" type="curve"/>
      <point x="314" y="200"/>
      <point x="314" y="455"/>
      <point x="314" y="711" type="curve"/>
      <point x="314" y="769"/>
      <point x="314" y="711"/>
      <point x="314" y="769" type="curve"/>
      <point x="245" y="769"/>
      <point x="314" y="769"/>
      <point x="245" y="769" type="curve"/>
      <point x="180" y="769"/>
      <point x="117" y="769"/>
      <point x="54" y="769" type="curve"/>
      <point x="54" y="644"/>
      <point x="54" y="769"/>
    </contour>
  </outline>
</glyph>
<glyph name="asciicircum" format="1">
  <advance width="693"/>
  <unicode hex="005E"/>
  <outline>
    <contour>
      <point x="206" y="452" type="curve"/>
      <point x="278" y="552"/>
      <point x="351" y="651"/>
      <point x="423" y="751" type="curve"/>
      <point x="268" y="751"/>
      <point x="423" y="751"/>
      <point x="268" y="751" type="curve"/>
      <point x="195" y="651"/>
      <point x="123" y="552"/>
      <point x="51" y="452" type="curve"/>
      <point x="206" y="452"/>
      <point x="51" y="452"/>
    </contour>
    <contour>
      <point x="642" y="452" type="curve"/>
      <point x="570" y="552"/>
      <point x="496" y="651"/>
      <point x="423" y="751" type="curve"/>
      <point x="268" y="751"/>
      <point x="423" y="751"/>
      <point x="268" y="751" type="curve"/>
      <point x="339" y="651"/>
      <point x="414" y="552"/>
      <point x="487" y="452" type="curve"/>
      <point x="642" y="452"/>
      <point x="487" y="452"/>
    </contour>
  </outline>
</glyph>
<glyph name="underscore" format="1">
  <advance width="850"/>
  <unicode hex="005F"/>
  <outline>
    <contour>
      <point x="0" y="-182" type="curve"/>
      <point x="283" y="-182"/>
      <point x="566" y="-182"/>
      <point x="850" y="-182" type="curve"/>
      <point x="850" y="-67"/>
      <point x="850" y="-182"/>
      <point x="850" y="-67" type="curve"/>
      <point x="566" y="-67"/>
      <point x="283" y="-67"/>
      <point x="0" y="-67" type="curve"/>
      <point x="0" y="-182"/>
      <point x="0" y="-67"/>
    </contour>
  </outline>
</glyph>
<glyph name="grave" format="1">
  <advance width="434"/>
  <unicode hex="0060"/>
  <outline>
    <contour>
      <point x="319" y="539" type="move" name="_top"/>
    </contour>
    <contour>
      <point x="408" y="538" type="line"/>
      <point x="266" y="704" type="line"/>
      <point x="64" y="704" type="line"/>
      <point x="251" y="538" type="line"/>
    </contour>
  </outline>
</glyph>
<glyph name="b" format="1">
  <advance width="838"/>
  <unicode hex="0062"/>
  <outline>
    <contour>
      <point x="200" y="800" type="curve"/>
      <point x="139" y="800"/>
      <point x="100" y="800"/>
      <point x="38" y="800" type="curve"/>
      <point x="38" y="750"/>
      <point x="38" y="736"/>
      <point x="38" y="686" type="curve"/>
      <point x="111" y="686"/>
      <point x="128" y="686"/>
      <point x="200" y="686" type="curve"/>
      <point x="200" y="736"/>
      <point x="200" y="749"/>
    </contour>
    <contour>
      <point x="229" y="311" type="curve"/>
      <point x="288" y="377"/>
      <point x="353" y="419"/>
      <point x="456" y="419" type="curve"/>
      <point x="562" y="419"/>
      <point x="634" y="366"/>
      <point x="634" y="263" type="curve"/>
      <point x="636" y="162"/>
      <point x="561" y="113"/>
      <point x="456" y="114" type="curve"/>
      <point x="362" y="114"/>
      <point x="289" y="154"/>
      <point x="243" y="204" type="curve"/>
      <point x="203" y="177"/>
      <point x="190" y="169"/>
      <point x="150" y="142" type="curve"/>
      <point x="243" y="54"/>
      <point x="337" y="-5"/>
      <point x="485" y="-5" type="curve"/>
      <point x="668" y="-5"/>
      <point x="793" y="83"/>
      <point x="793" y="264" type="curve"/>
      <point x="793" y="448"/>
      <point x="666" y="539"/>
      <point x="480" y="539" type="curve"/>
      <point x="340" y="539"/>
      <point x="253" y="487"/>
      <point x="161" y="393" type="curve"/>
      <point x="194" y="360"/>
      <point x="196" y="343"/>
    </contour>
    <contour>
      <point x="276" y="0" type="curve"/>
      <point x="276" y="304"/>
      <point x="276" y="496"/>
      <point x="276" y="800" type="curve"/>
      <point x="207" y="800"/>
      <point x="189" y="800"/>
      <point x="120" y="800" type="curve"/>
      <point x="120" y="496"/>
      <point x="120" y="304"/>
      <point x="120" y="0" type="curve"/>
      <point x="189" y="0"/>
      <point x="207" y="0"/>
    </contour>
    <contour>
      <point x="200" y="113" type="curve"/>
      <point x="128" y="113"/>
      <point x="111" y="114"/>
      <point x="38" y="114" type="curve"/>
      <point x="38" y="64"/>
      <point x="38" y="51"/>
      <point x="38" y="0" type="curve"/>
      <point x="100" y="0"/>
      <point x="139" y="0"/>
      <point x="200" y="0" type="curve"/>
      <point x="200" y="51"/>
      <point x="200" y="63"/>
    </contour>
  </outline>
</glyph>
<glyph name="f" format="1">
  <advance width="600"/>
  <unicode hex="0066"/>
  <outline>
    <contour>
      <point x="453" y="765" type="curve"/>
      <point x="453" y="624"/>
      <point x="453" y="765"/>
      <point x="453" y="624" type="curve"/>
      <point x="572" y="624"/>
      <point x="453" y="624"/>
      <point x="572" y="624" type="curve"/>
      <point x="572" y="765"/>
      <point x="572" y="624"/>
      <point x="572" y="765" type="curve"/>
      <point x="453" y="765"/>
      <point x="572" y="765"/>
    </contour>
    <contour>
      <point x="241" y="-1" type="curve"/>
      <point x="304" y="-1"/>
      <point x="339" y="0"/>
      <point x="402" y="0" type="curve"/>
      <point x="402" y="114"/>
      <point x="402" y="0"/>
      <point x="402" y="114" type="curve"/>
      <point x="214" y="113"/>
      <point x="428" y="114"/>
      <point x="241" y="113" type="curve"/>
      <point x="241" y="-1"/>
      <point x="241" y="113"/>
    </contour>
    <contour>
      <point x="241" y="113" type="curve"/>
      <point x="53" y="114"/>
      <point x="267" y="113"/>
      <point x="80" y="114" type="curve"/>
      <point x="80" y="0"/>
      <point x="80" y="114"/>
      <point x="80" y="0" type="curve"/>
      <point x="143" y="0"/>
      <point x="179" y="-1"/>
      <point x="241" y="-1" type="curve"/>
      <point x="241" y="113"/>
      <point x="241" y="-1"/>
    </contour>
    <contour>
      <point x="28" y="419" type="curve"/>
      <point x="526" y="419" type="line"/>
      <point x="526" y="533"/>
      <point x="526" y="419"/>
      <point x="526" y="533" type="curve"/>
      <point x="28" y="533" type="line"/>
      <point x="28" y="419"/>
      <point x="28" y="533"/>
    </contour>
    <contour>
      <point x="319" y="0" type="curve"/>
      <point x="319" y="603" type="line"/>
      <point x="318" y="659"/>
      <point x="355" y="691"/>
      <point x="413" y="691" type="curve"/>
      <point x="445" y="691"/>
      <point x="478" y="685"/>
      <point x="508" y="673" type="curve"/>
      <point x="572" y="765"/>
      <point x="508" y="673"/>
      <point x="572" y="765" type="curve"/>
      <point x="522" y="785"/>
      <point x="468" y="801"/>
      <point x="413" y="801" type="curve"/>
      <point x="269" y="801"/>
      <point x="161" y="736"/>
      <point x="163" y="603" type="curve"/>
      <point x="163" y="0" type="line"/>
      <point x="319" y="0"/>
      <point x="163" y="0"/>
    </contour>
  </outline>
</glyph>
<glyph name="h" format="1">
  <advance width="798"/>
  <unicode hex="0068"/>
  <outline>
    <contour>
      <point x="632" y="-1" type="curve"/>
      <point x="695" y="-1"/>
      <point x="731" y="0"/>
      <point x="793" y="0" type="curve"/>
      <point x="793" y="114"/>
      <point x="793" y="0"/>
      <point x="793" y="114" type="curve"/>
      <point x="606" y="113"/>
      <point x="820" y="114"/>
      <point x="632" y="113" type="curve"/>
      <point x="632" y="-1"/>
      <point x="632" y="113"/>
    </contour>
    <contour>
      <point x="170" y="-1" type="curve"/>
      <point x="228" y="-1"/>
      <point x="144" y="-1"/>
      <point x="318" y="0" type="curve"/>
      <point x="318" y="114"/>
      <point x="318" y="0"/>
      <point x="318" y="114" type="curve"/>
      <point x="144" y="113"/>
      <point x="345" y="114"/>
      <point x="170" y="113" type="curve"/>
      <point x="170" y="-1"/>
      <point x="170" y="113"/>
    </contour>
    <contour>
      <point x="170" y="799" type="curve"/>
      <point x="107" y="799"/>
      <point x="71" y="800"/>
      <point x="9" y="800" type="curve"/>
      <point x="9" y="686"/>
      <point x="9" y="800"/>
      <point x="9" y="686" type="curve"/>
      <point x="196" y="686"/>
      <point x="-18" y="686"/>
      <point x="170" y="686" type="curve"/>
      <point x="170" y="799"/>
      <point x="170" y="686"/>
    </contour>
    <contour>
      <point x="170" y="113" type="curve"/>
      <point x="-18" y="114"/>
      <point x="196" y="113"/>
      <point x="9" y="114" type="curve"/>
      <point x="9" y="0"/>
      <point x="9" y="114"/>
      <point x="9" y="0" type="curve"/>
      <point x="71" y="0"/>
      <point x="107" y="-1"/>
      <point x="170" y="-1" type="curve"/>
      <point x="170" y="113"/>
      <point x="170" y="-1"/>
    </contour>
    <contour>
      <point x="213" y="272" type="curve"/>
      <point x="249" y="368"/>
      <point x="332" y="423"/>
      <point x="420" y="423" type="curve"/>
      <point x="501" y="423"/>
      <point x="556" y="373"/>
      <point x="556" y="294" type="curve"/>
      <point x="556" y="193"/>
      <point x="556" y="102"/>
      <point x="556" y="0" type="curve"/>
      <point x="712" y="0"/>
      <point x="556" y="0"/>
      <point x="712" y="0" type="curve"/>
      <point x="712" y="106"/>
      <point x="712" y="211"/>
      <point x="712" y="318" type="curve"/>
      <point x="712" y="472"/>
      <point x="608" y="538"/>
      <point x="447" y="538" type="curve"/>
      <point x="314" y="538"/>
      <point x="199" y="461"/>
      <point x="138" y="325" type="curve"/>
      <point x="215" y="267"/>
      <point x="136" y="329"/>
    </contour>
    <contour>
      <point x="248" y="0" type="curve"/>
      <point x="248" y="267"/>
      <point x="248" y="533"/>
      <point x="248" y="800" type="curve"/>
      <point x="91" y="800"/>
      <point x="248" y="800"/>
      <point x="91" y="800" type="curve"/>
      <point x="91" y="533"/>
      <point x="91" y="267"/>
      <point x="91" y="0" type="curve"/>
      <point x="248" y="0"/>
      <point x="91" y="0"/>
    </contour>
  </outline>
</glyph>
<glyph name="i" format="1">
  <advance width="375"/>
  <unicode hex="0069"/>
  <outline>
    <contour>
      <point x="191" y="611" type="move" name="top"/>
    </contour>
    <contour>
      <point x="263" y="13" type="move" name="bottom"/>
    </contour>
    <contour>
      <point x="193" y="114" type="curve"/>
      <point x="6" y="114"/>
      <point x="220" y="114"/>
      <point x="32" y="114" type="curve"/>
      <point x="31" y="0"/>
      <point x="32" y="114"/>
      <point x="31" y="0" type="curve"/>
      <point x="95" y="0"/>
      <point x="131" y="0"/>
      <point x="193" y="0" type="curve"/>
      <point x="193" y="114"/>
      <point x="193" y="0"/>
    </contour>
    <contour>
      <point x="193" y="0" type="curve"/>
      <point x="252" y="0"/>
      <point x="292" y="0"/>
      <point x="351" y="0" type="curve"/>
      <point x="351" y="114"/>
      <point x="351" y="0"/>
      <point x="351" y="114" type="curve"/>
      <point x="175" y="114"/>
      <point x="369" y="114"/>
      <point x="193" y="114" type="curve"/>
      <point x="193" y="0"/>
      <point x="193" y="114"/>
    </contour>
    <contour>
      <point x="193" y="533" type="curve"/>
      <point x="131" y="533"/>
      <point x="95" y="533"/>
      <point x="32" y="533" type="curve"/>
      <point x="31" y="419"/>
      <point x="32" y="533"/>
      <point x="31" y="419" type="curve"/>
      <point x="220" y="419"/>
      <point x="5" y="419"/>
      <point x="193" y="419" type="curve"/>
      <point x="193" y="533"/>
      <point x="193" y="419"/>
    </contour>
    <contour>
      <point x="276" y="0" type="curve"/>
      <point x="276" y="178"/>
      <point x="276" y="355"/>
      <point x="276" y="533" type="curve"/>
      <point x="113" y="533"/>
      <point x="276" y="533"/>
      <point x="113" y="533" type="curve"/>
      <point x="113" y="355"/>
      <point x="113" y="178"/>
      <point x="113" y="0" type="curve"/>
      <point x="276" y="0"/>
      <point x="113" y="0"/>
    </contour>
    <contour>
      <point x="283" y="685" type="curve"/>
      <point x="283" y="736"/>
      <point x="243" y="760"/>
      <point x="191" y="760" type="curve"/>
      <point x="138" y="760"/>
      <point x="102" y="733"/>
      <point x="102" y="685" type="curve"/>
      <point x="282" y="685"/>
      <point x="102" y="685"/>
      <point x="283" y="685" type="curve"/>
      <point x="283" y="634"/>
      <point x="243" y="612"/>
      <point x="190" y="612" type="curve"/>
      <point x="137" y="612"/>
      <point x="102" y="637"/>
      <point x="102" y="685" type="curve"/>
      <point x="282" y="685"/>
      <point x="102" y="685"/>
    </contour>
  </outline>
</glyph>
<glyph name="j" format="1">
  <advance width="379"/>
  <unicode hex="006A"/>
  <outline>
    <contour>
      <point x="208" y="533" type="curve"/>
      <point x="145" y="533"/>
      <point x="82" y="533"/>
      <point x="19" y="533" type="curve"/>
      <point x="19" y="419"/>
      <point x="19" y="533"/>
      <point x="19" y="419" type="curve"/>
      <point x="208" y="419"/>
      <point x="19" y="419"/>
      <point x="208" y="419" type="curve"/>
      <point x="208" y="533"/>
      <point x="208" y="419"/>
    </contour>
    <contour>
      <point x="-20" y="-302" type="curve"/>
      <point x="-8" y="-303"/>
      <point x="7" y="-305"/>
      <point x="22" y="-305" type="curve"/>
      <point x="167" y="-305"/>
      <point x="286" y="-250"/>
      <point x="286" y="-118" type="curve"/>
      <point x="286" y="99"/>
      <point x="286" y="316"/>
      <point x="286" y="534" type="curve"/>
      <point x="131" y="534"/>
      <point x="286" y="534"/>
      <point x="131" y="534" type="curve"/>
      <point x="131" y="316"/>
      <point x="131" y="99"/>
      <point x="131" y="-118" type="curve"/>
      <point x="131" y="-171"/>
      <point x="85" y="-196"/>
      <point x="29" y="-196" type="curve"/>
      <point x="19" y="-196"/>
      <point x="7" y="-195"/>
      <point x="1" y="-194" type="curve"/>
      <point x="-20" y="-302"/>
      <point x="1" y="-194"/>
    </contour>
    <contour>
      <point x="301" y="684" type="curve"/>
      <point x="301" y="735"/>
      <point x="262" y="759"/>
      <point x="209" y="759" type="curve"/>
      <point x="155" y="759"/>
      <point x="119" y="732"/>
      <point x="119" y="684" type="curve"/>
      <point x="301" y="684"/>
      <point x="119" y="684"/>
      <point x="301" y="684" type="curve"/>
      <point x="301" y="633"/>
      <point x="262" y="611"/>
      <point x="208" y="611" type="curve"/>
      <point x="154" y="611"/>
      <point x="119" y="636"/>
      <point x="119" y="684" type="curve"/>
      <point x="301" y="684"/>
      <point x="119" y="684"/>
    </contour>
  </outline>
</glyph>
<glyph name="k" format="1">
  <advance width="736"/>
  <unicode hex="006B"/>
  <outline>
    <contour>
      <point x="420" y="-3" type="move" name="bottom"/>
    </contour>
    <contour>
      <point x="168" y="113" type="curve"/>
      <point x="-19" y="114"/>
      <point x="195" y="113"/>
      <point x="8" y="114" type="curve"/>
      <point x="8" y="0"/>
      <point x="8" y="114"/>
      <point x="8" y="0" type="curve"/>
      <point x="70" y="0"/>
      <point x="106" y="-1"/>
      <point x="168" y="-1" type="curve"/>
      <point x="168" y="113"/>
      <point x="168" y="-1"/>
    </contour>
    <contour>
      <point x="553" y="-1" type="curve"/>
      <point x="622" y="-1"/>
      <point x="648" y="0"/>
      <point x="716" y="0" type="curve"/>
      <point x="716" y="114"/>
      <point x="716" y="0"/>
      <point x="716" y="114" type="curve"/>
      <point x="509" y="113"/>
      <point x="760" y="114"/>
      <point x="553" y="113" type="curve"/>
      <point x="553" y="-1"/>
      <point x="553" y="113"/>
    </contour>
    <contour>
      <point x="558" y="419" type="curve"/>
      <point x="733" y="419"/>
      <point x="514" y="419"/>
      <point x="689" y="419" type="curve"/>
      <point x="689" y="533"/>
      <point x="689" y="419"/>
      <point x="689" y="533" type="curve"/>
      <point x="630" y="533"/>
      <point x="616" y="533"/>
      <point x="558" y="533" type="curve"/>
      <point x="558" y="419"/>
      <point x="558" y="533"/>
    </contour>
    <contour>
      <point x="168" y="-1" type="curve"/>
      <point x="215" y="-1"/>
      <point x="168" y="-1"/>
      <point x="310" y="0" type="curve"/>
      <point x="310" y="114"/>
      <point x="310" y="0"/>
      <point x="310" y="114" type="curve"/>
      <point x="168" y="113"/>
      <point x="310" y="114"/>
      <point x="168" y="113" type="curve"/>
      <point x="168" y="-1"/>
      <point x="168" y="113"/>
    </contour>
    <contour>
      <point x="579" y="533" type="curve"/>
      <point x="488" y="533"/>
      <point x="407" y="533"/>
      <point x="318" y="533" type="curve"/>
      <point x="318" y="419"/>
      <point x="318" y="533"/>
      <point x="318" y="419" type="curve"/>
      <point x="588" y="419"/>
      <point x="309" y="419"/>
      <point x="579" y="419" type="curve"/>
      <point x="579" y="533"/>
      <point x="579" y="419"/>
    </contour>
    <contour>
      <point x="171" y="799" type="curve"/>
      <point x="108" y="799"/>
      <point x="73" y="800"/>
      <point x="10" y="800" type="curve"/>
      <point x="10" y="686"/>
      <point x="10" y="800"/>
      <point x="10" y="686" type="curve"/>
      <point x="198" y="686"/>
      <point x="-17" y="686"/>
      <point x="171" y="686" type="curve"/>
      <point x="171" y="799"/>
      <point x="171" y="686"/>
    </contour>
    <contour>
      <point x="248" y="0" type="curve"/>
      <point x="248" y="800" type="line"/>
      <point x="91" y="800"/>
      <point x="248" y="800"/>
      <point x="91" y="800" type="curve"/>
      <point x="91" y="533"/>
      <point x="91" y="267"/>
      <point x="91" y="0" type="curve"/>
      <point x="248" y="0"/>
      <point x="91" y="0"/>
    </contour>
    <contour>
      <point x="508" y="533" type="curve"/>
      <point x="205" y="275" type="line"/>
      <point x="393" y="275"/>
      <point x="205" y="275"/>
      <point x="393" y="275" type="curve"/>
      <point x="668" y="488" type="line"/>
      <point x="455" y="488"/>
      <point x="722" y="533"/>
    </contour>
    <contour>
      <point x="687" y="59" type="curve"/>
      <point x="392" y="275" type="line"/>
      <point x="205" y="275"/>
      <point x="392" y="275"/>
      <point x="205" y="275" type="curve"/>
      <point x="540" y="0" type="line"/>
      <point x="752" y="0"/>
      <point x="475" y="59"/>
    </contour>
  </outline>
</glyph>
<glyph name="l" format="1">
  <advance width="420"/>
  <unicode hex="006C"/>
  <outline>
    <contour>
      <point x="209" y="878" type="move" name="top"/>
    </contour>
    <contour>
      <point x="267" y="11" type="move" name="bottom"/>
    </contour>
    <contour>
      <point x="211" y="113" type="curve"/>
      <point x="24" y="114"/>
      <point x="211" y="113"/>
      <point x="24" y="114" type="curve"/>
      <point x="24" y="0"/>
      <point x="24" y="114"/>
      <point x="24" y="0" type="curve"/>
      <point x="87" y="0"/>
      <point x="148" y="-1"/>
      <point x="211" y="-1" type="curve"/>
      <point x="211" y="114"/>
      <point x="211" y="-1"/>
    </contour>
    <contour>
      <point x="214" y="799" type="curve"/>
      <point x="151" y="799"/>
      <point x="89" y="800"/>
      <point x="26" y="800" type="curve"/>
      <point x="26" y="686"/>
      <point x="26" y="800"/>
      <point x="26" y="686" type="curve"/>
      <point x="214" y="686"/>
      <point x="26" y="686"/>
      <point x="214" y="686" type="curve"/>
      <point x="214" y="799"/>
      <point x="214" y="686"/>
    </contour>
    <contour>
      <point x="211" y="-1" type="curve"/>
      <point x="274" y="-1"/>
      <point x="336" y="0"/>
      <point x="399" y="0" type="curve"/>
      <point x="399" y="114"/>
      <point x="399" y="0"/>
      <point x="399" y="114" type="curve"/>
      <point x="211" y="113"/>
      <point x="399" y="114"/>
      <point x="211" y="113" type="curve"/>
      <point x="211" y="-1"/>
      <point x="211" y="114"/>
    </contour>
    <contour>
      <point x="288" y="0" type="curve"/>
      <point x="288" y="267"/>
      <point x="288" y="533"/>
      <point x="288" y="800" type="curve"/>
      <point x="133" y="800"/>
      <point x="288" y="800"/>
      <point x="133" y="800" type="curve"/>
      <point x="133" y="533"/>
      <point x="133" y="267"/>
      <point x="133" y="0" type="curve"/>
      <point x="288" y="0"/>
      <point x="133" y="0"/>
    </contour>
  </outline>
</glyph>
<glyph name="m" format="1">
  <advance width="1228"/>
  <unicode hex="006D"/>
  <outline>
    <contour>
      <point x="634" y="0" type="curve"/>
      <point x="770" y="0"/>
      <point x="634" y="0"/>
      <point x="770" y="0" type="curve"/>
      <point x="770" y="114"/>
      <point x="770" y="0"/>
      <point x="770" y="114" type="curve"/>
      <point x="634" y="114"/>
      <point x="770" y="114"/>
      <point x="634" y="114" type="curve"/>
      <point x="634" y="0"/>
      <point x="634" y="114"/>
    </contour>
    <contour>
      <point x="1049" y="0" type="curve"/>
      <point x="1094" y="0"/>
      <point x="1139" y="0"/>
      <point x="1184" y="0" type="curve"/>
      <point x="1184" y="114"/>
      <point x="1184" y="0"/>
      <point x="1184" y="114" type="curve"/>
      <point x="1049" y="114"/>
      <point x="1184" y="114"/>
      <point x="1049" y="114" type="curve"/>
      <point x="1049" y="0"/>
      <point x="1049" y="114"/>
    </contour>
    <contour>
      <point x="221" y="114" type="curve"/>
      <point x="60" y="114"/>
      <point x="221" y="114"/>
      <point x="60" y="114" type="curve"/>
      <point x="60" y="0"/>
      <point x="60" y="114"/>
      <point x="60" y="0" type="curve"/>
      <point x="113" y="0"/>
      <point x="167" y="0"/>
      <point x="221" y="0" type="curve"/>
      <point x="221" y="114"/>
      <point x="221" y="0"/>
    </contour>
    <contour>
      <point x="221" y="0" type="curve"/>
      <point x="267" y="0"/>
      <point x="221" y="0"/>
      <point x="358" y="0" type="curve"/>
      <point x="358" y="114"/>
      <point x="358" y="0"/>
      <point x="358" y="114" type="curve"/>
      <point x="221" y="114"/>
      <point x="358" y="114"/>
      <point x="221" y="114" type="curve"/>
      <point x="221" y="0"/>
      <point x="221" y="114"/>
    </contour>
    <contour>
      <point x="221" y="533" type="curve"/>
      <point x="167" y="533"/>
      <point x="113" y="533"/>
      <point x="60" y="533" type="curve"/>
      <point x="60" y="419"/>
      <point x="60" y="533"/>
      <point x="60" y="419" type="curve"/>
      <point x="221" y="419"/>
      <point x="60" y="419"/>
      <point x="221" y="419" type="curve"/>
      <point x="221" y="533"/>
      <point x="221" y="419"/>
    </contour>
    <contour>
      <point x="677" y="260" type="curve"/>
      <point x="723" y="353"/>
      <point x="774" y="419"/>
      <point x="857" y="419" type="curve"/>
      <point x="935" y="419"/>
      <point x="970" y="384"/>
      <point x="970" y="306" type="curve"/>
      <point x="970" y="204"/>
      <point x="970" y="102"/>
      <point x="970" y="0" type="curve"/>
      <point x="1126" y="0"/>
      <point x="970" y="0"/>
      <point x="1126" y="0" type="curve"/>
      <point x="1126" y="106"/>
      <point x="1126" y="211"/>
      <point x="1126" y="318" type="curve"/>
      <point x="1126" y="473"/>
      <point x="1049" y="538"/>
      <point x="892" y="538" type="curve"/>
      <point x="759" y="538"/>
      <point x="676" y="454"/>
      <point x="599" y="318" type="curve"/>
      <point x="677" y="260"/>
      <point x="599" y="318"/>
    </contour>
    <contour>
      <point x="264" y="265" type="curve"/>
      <point x="309" y="358"/>
      <point x="360" y="419"/>
      <point x="443" y="419" type="curve"/>
      <point x="521" y="419"/>
      <point x="556" y="384"/>
      <point x="556" y="306" type="curve"/>
      <point x="556" y="204"/>
      <point x="556" y="102"/>
      <point x="556" y="0" type="curve"/>
      <point x="712" y="0"/>
      <point x="556" y="0"/>
      <point x="712" y="0" type="curve"/>
      <point x="712" y="106"/>
      <point x="712" y="211"/>
      <point x="712" y="318" type="curve"/>
      <point x="712" y="473"/>
      <point x="637" y="538"/>
      <point x="480" y="538" type="curve"/>
      <point x="345" y="538"/>
      <point x="277" y="463"/>
      <point x="186" y="324" type="curve"/>
      <point x="264" y="265"/>
      <point x="185" y="323"/>
    </contour>
    <contour>
      <point x="298" y="0" type="curve"/>
      <point x="298" y="178"/>
      <point x="298" y="355"/>
      <point x="298" y="533" type="curve"/>
      <point x="142" y="533"/>
      <point x="298" y="533"/>
      <point x="142" y="533" type="curve"/>
      <point x="142" y="355"/>
      <point x="142" y="178"/>
      <point x="142" y="0" type="curve"/>
      <point x="298" y="0"/>
      <point x="142" y="0"/>
    </contour>
  </outline>
</glyph>
<glyph name="n" format="1">
  <advance width="821"/>
  <unicode hex="006E"/>
  <outline>
    <contour>
      <point x="437" y="611" type="move" name="top"/>
    </contour>
    <contour>
      <point x="429" y="39" type="move" name="bottom"/>
    </contour>
    <contour>
      <point x="234" y="249" type="curve"/>
      <point x="269" y="351"/>
      <point x="333" y="419"/>
      <point x="437" y="419" type="curve"/>
      <point x="517" y="419"/>
      <point x="577" y="382"/>
      <point x="577" y="306" type="curve"/>
      <point x="577" y="196"/>
      <point x="577" y="110"/>
      <point x="577" y="0" type="curve"/>
      <point x="643" y="0"/>
      <point x="667" y="0"/>
      <point x="733" y="0" type="curve"/>
      <point x="733" y="115"/>
      <point x="733" y="203"/>
      <point x="733" y="318" type="curve"/>
      <point x="733" y="468"/>
      <point x="632" y="538"/>
      <point x="473" y="538" type="curve"/>
      <point x="318" y="538"/>
      <point x="214" y="451"/>
      <point x="157" y="300" type="curve"/>
      <point x="186" y="276"/>
      <point x="205" y="274"/>
    </contour>
    <contour>
      <point x="653" y="0" type="curve"/>
      <point x="716" y="0"/>
      <point x="753" y="0"/>
      <point x="815" y="0" type="curve"/>
      <point x="815" y="114"/>
      <point x="815" y="0"/>
      <point x="815" y="114" type="curve"/>
      <point x="627" y="114"/>
      <point x="842" y="114"/>
      <point x="653" y="114" type="curve"/>
      <point x="653" y="0"/>
      <point x="653" y="114"/>
    </contour>
    <contour>
      <point x="191" y="114" type="curve"/>
      <point x="4" y="114"/>
      <point x="218" y="114"/>
      <point x="30" y="114" type="curve"/>
      <point x="30" y="0"/>
      <point x="30" y="114"/>
      <point x="30" y="0" type="curve"/>
      <point x="93" y="0"/>
      <point x="129" y="0"/>
      <point x="191" y="0" type="curve"/>
      <point x="191" y="114"/>
      <point x="191" y="0"/>
    </contour>
    <contour>
      <point x="191" y="0" type="curve"/>
      <point x="250" y="0"/>
      <point x="165" y="0"/>
      <point x="340" y="0" type="curve"/>
      <point x="340" y="114"/>
      <point x="340" y="0"/>
      <point x="340" y="114" type="curve"/>
      <point x="165" y="114"/>
      <point x="367" y="114"/>
      <point x="191" y="114" type="curve"/>
      <point x="191" y="0"/>
      <point x="191" y="114"/>
    </contour>
    <contour>
      <point x="270" y="0" type="curve"/>
      <point x="270" y="178"/>
      <point x="270" y="355"/>
      <point x="270" y="533" type="curve"/>
      <point x="114" y="533"/>
      <point x="270" y="533"/>
      <point x="114" y="533" type="curve"/>
      <point x="114" y="355"/>
      <point x="114" y="178"/>
      <point x="114" y="0" type="curve"/>
      <point x="270" y="0"/>
      <point x="114" y="0"/>
    </contour>
    <contour>
      <point x="191" y="533" type="curve"/>
      <point x="129" y="533"/>
      <point x="93" y="533"/>
      <point x="30" y="533" type="curve"/>
      <point x="30" y="419"/>
      <point x="30" y="533"/>
      <point x="30" y="419" type="curve"/>
      <point x="218" y="419"/>
      <point x="4" y="419"/>
      <point x="191" y="419" type="curve"/>
      <point x="191" y="533"/>
      <point x="191" y="419"/>
    </contour>
  </outline>
</glyph>
<glyph name="p" format="1">
  <advance width="807"/>
  <unicode hex="0070"/>
  <outline>
    <contour>
      <point x="168" y="-186" type="curve"/>
      <point x="-20" y="-186"/>
      <point x="195" y="-186"/>
      <point x="7" y="-186" type="curve"/>
      <point x="7" y="-300"/>
      <point x="7" y="-186"/>
      <point x="7" y="-300" type="curve"/>
      <point x="70" y="-300"/>
      <point x="105" y="-300"/>
      <point x="168" y="-300" type="curve"/>
      <point x="168" y="-186"/>
      <point x="168" y="-300"/>
    </contour>
    <contour>
      <point x="168" y="-300" type="curve"/>
      <point x="227" y="-300"/>
      <point x="260" y="-300"/>
      <point x="317" y="-300" type="curve"/>
      <point x="317" y="-186"/>
      <point x="317" y="-300"/>
      <point x="317" y="-186" type="curve"/>
      <point x="142" y="-186"/>
      <point x="344" y="-186"/>
      <point x="168" y="-186" type="curve"/>
      <point x="168" y="-300"/>
      <point x="168" y="-186"/>
    </contour>
    <contour>
      <point x="169" y="533" type="curve"/>
      <point x="107" y="533"/>
      <point x="71" y="533"/>
      <point x="9" y="533" type="curve"/>
      <point x="8" y="419"/>
      <point x="9" y="533"/>
      <point x="8" y="419" type="curve"/>
      <point x="196" y="419"/>
      <point x="-18" y="419"/>
      <point x="169" y="419" type="curve"/>
      <point x="169" y="533"/>
      <point x="169" y="419"/>
    </contour>
    <contour>
      <point x="194" y="285" type="curve"/>
      <point x="261" y="376"/>
      <point x="330" y="428"/>
      <point x="439" y="428" type="curve"/>
      <point x="538" y="428"/>
      <point x="605" y="367"/>
      <point x="605" y="263" type="curve"/>
      <point x="607" y="162"/>
      <point x="535" y="108"/>
      <point x="432" y="109" type="curve"/>
      <point x="342" y="109"/>
      <point x="267" y="139"/>
      <point x="196" y="193" type="curve"/>
      <point x="160" y="168"/>
      <point x="160" y="140"/>
      <point x="124" y="115" type="curve"/>
      <point x="210" y="38"/>
      <point x="319" y="-5"/>
      <point x="451" y="-5" type="curve"/>
      <point x="635" y="-5"/>
      <point x="762" y="91"/>
      <point x="761" y="269" type="curve"/>
      <point x="761" y="441"/>
      <point x="641" y="540"/>
      <point x="466" y="540" type="curve"/>
      <point x="318" y="540"/>
      <point x="219" y="481"/>
      <point x="135" y="366" type="curve"/>
      <point x="164" y="330"/>
      <point x="164" y="321"/>
    </contour>
    <contour>
      <point x="246" y="-300" type="curve"/>
      <point x="246" y="-22"/>
      <point x="246" y="255"/>
      <point x="246" y="533" type="curve"/>
      <point x="91" y="533"/>
      <point x="246" y="533"/>
      <point x="91" y="533" type="curve"/>
      <point x="91" y="255"/>
      <point x="91" y="-22"/>
      <point x="91" y="-300" type="curve"/>
      <point x="246" y="-300"/>
      <point x="91" y="-300"/>
    </contour>
  </outline>
</glyph>
<glyph name="q" format="1">
  <advance width="842"/>
  <unicode hex="0071"/>
  <outline>
    <contour>
      <point x="647" y="419" type="curve"/>
      <point x="721" y="419"/>
      <point x="721" y="419"/>
      <point x="796" y="419" type="curve"/>
      <point x="796" y="467"/>
      <point x="796" y="484"/>
      <point x="796" y="533" type="curve"/>
      <point x="731" y="533"/>
      <point x="711" y="533"/>
      <point x="647" y="533" type="curve"/>
      <point x="647" y="484"/>
      <point x="647" y="467"/>
    </contour>
    <contour>
      <point x="647" y="-186" type="curve"/>
      <point x="566" y="-186"/>
      <point x="565" y="-186"/>
      <point x="485" y="-186" type="curve"/>
      <point x="485" y="-234"/>
      <point x="485" y="-251"/>
      <point x="485" y="-300" type="curve"/>
      <point x="554" y="-300"/>
      <point x="577" y="-300"/>
      <point x="647" y="-300" type="curve"/>
      <point x="647" y="-251"/>
      <point x="647" y="-234"/>
    </contour>
    <contour>
      <point x="647" y="-300" type="curve"/>
      <point x="710" y="-300"/>
      <point x="731" y="-300"/>
      <point x="796" y="-300" type="curve"/>
      <point x="796" y="-251"/>
      <point x="796" y="-234"/>
      <point x="796" y="-186" type="curve"/>
      <point x="720" y="-186"/>
      <point x="721" y="-186"/>
      <point x="647" y="-186" type="curve"/>
      <point x="647" y="-234"/>
      <point x="647" y="-251"/>
    </contour>
    <contour>
      <point x="680" y="378" type="curve"/>
      <point x="585" y="478"/>
      <point x="492" y="538"/>
      <point x="353" y="538" type="curve"/>
      <point x="171" y="538"/>
      <point x="46" y="440"/>
      <point x="46" y="262" type="curve"/>
      <point x="46" y="86"/>
      <point x="176" y="-5"/>
      <point x="359" y="-5" type="curve"/>
      <point x="502" y="-5"/>
      <point x="598" y="58"/>
      <point x="705" y="156" type="curve"/>
      <point x="670" y="186"/>
      <point x="652" y="194"/>
      <point x="616" y="222" type="curve"/>
      <point x="554" y="143"/>
      <point x="479" y="109"/>
      <point x="380" y="109" type="curve"/>
      <point x="276" y="109"/>
      <point x="203" y="165"/>
      <point x="203" y="268" type="curve"/>
      <point x="203" y="370"/>
      <point x="275" y="423"/>
      <point x="378" y="423" type="curve"/>
      <point x="482" y="423"/>
      <point x="560" y="372"/>
      <point x="621" y="298" type="curve"/>
      <point x="651" y="330"/>
      <point x="649" y="346"/>
    </contour>
    <contour>
      <point x="726" y="-300" type="curve"/>
      <point x="726" y="4"/>
      <point x="726" y="229"/>
      <point x="726" y="533" type="curve"/>
      <point x="656" y="533"/>
      <point x="633" y="533"/>
      <point x="563" y="533" type="curve"/>
      <point x="563" y="229"/>
      <point x="563" y="4"/>
      <point x="563" y="-300" type="curve"/>
      <point x="633" y="-300"/>
      <point x="656" y="-300"/>
    </contour>
  </outline>
</glyph>
<glyph name="s" format="1">
  <advance width="665"/>
  <unicode hex="0073"/>
  <outline>
    <contour>
      <point x="323" y="611" type="move" name="top"/>
    </contour>
    <contour>
      <point x="356" y="11" type="move" name="bottom"/>
    </contour>
    <contour>
      <point x="62" y="46" type="curve"/>
      <point x="159" y="14"/>
      <point x="231" y="-5"/>
      <point x="329" y="-5" type="curve"/>
      <point x="492" y="-5"/>
      <point x="619" y="29"/>
      <point x="619" y="164" type="curve"/>
      <point x="619" y="290"/>
      <point x="493" y="298"/>
      <point x="350" y="329" type="curve" smooth="yes"/>
      <point x="280" y="343"/>
      <point x="207" y="352"/>
      <point x="207" y="388" type="curve"/>
      <point x="207" y="412"/>
      <point x="257" y="423"/>
      <point x="313" y="423" type="curve"/>
      <point x="373" y="423"/>
      <point x="447" y="408"/>
      <point x="488" y="391" type="curve"/>
      <point x="559" y="493"/>
      <point x="488" y="391"/>
      <point x="559" y="493" type="curve"/>
      <point x="503" y="518"/>
      <point x="402" y="538"/>
      <point x="320" y="538" type="curve"/>
      <point x="176" y="538"/>
      <point x="66" y="504"/>
      <point x="66" y="387" type="curve"/>
      <point x="66" y="273"/>
      <point x="168" y="245"/>
      <point x="300" y="218" type="curve" smooth="yes"/>
      <point x="379" y="200"/>
      <point x="469" y="198"/>
      <point x="469" y="160" type="curve"/>
      <point x="469" y="128"/>
      <point x="414" y="110"/>
      <point x="349" y="110" type="curve"/>
      <point x="270" y="110"/>
      <point x="218" y="123"/>
      <point x="141" y="149" type="curve"/>
      <point x="62" y="46"/>
      <point x="141" y="149"/>
    </contour>
    <contour>
      <point x="439" y="493" type="curve"/>
      <point x="439" y="372"/>
      <point x="439" y="477"/>
      <point x="439" y="356" type="curve"/>
      <point x="559" y="356"/>
      <point x="439" y="356"/>
      <point x="559" y="356" type="curve"/>
      <point x="559" y="477"/>
      <point x="559" y="372"/>
      <point x="559" y="493" type="curve"/>
      <point x="439" y="493"/>
      <point x="559" y="493"/>
    </contour>
    <contour>
      <point x="179" y="46" type="curve"/>
      <point x="179" y="168"/>
      <point x="179" y="70"/>
      <point x="179" y="192" type="curve"/>
      <point x="59" y="192"/>
      <point x="179" y="192"/>
      <point x="59" y="192" type="curve"/>
      <point x="59" y="70"/>
      <point x="59" y="168"/>
      <point x="59" y="46" type="curve"/>
      <point x="179" y="46"/>
      <point x="59" y="46"/>
    </contour>
  </outline>
</glyph>
<glyph name="t" format="1">
  <advance width="498"/>
  <unicode hex="0074"/>
  <outline>
    <contour>
      <point x="361" y="11" type="move" name="bottom"/>
    </contour>
    <contour>
      <point x="15" y="419" type="curve"/>
      <point x="456" y="419" type="line"/>
      <point x="456" y="534"/>
      <point x="456" y="419"/>
      <point x="456" y="534" type="curve"/>
      <point x="15" y="534" type="line"/>
      <point x="15" y="419"/>
      <point x="15" y="534"/>
    </contour>
    <contour>
      <point x="446" y="128" type="curve"/>
      <point x="415" y="116"/>
      <point x="391" y="113"/>
      <point x="357" y="113" type="curve"/>
      <point x="310" y="113"/>
      <point x="284" y="132"/>
      <point x="284" y="177" type="curve"/>
      <point x="284" y="693" type="line"/>
      <point x="270" y="684"/>
      <point x="143" y="617"/>
      <point x="129" y="608" type="curve"/>
      <point x="129" y="171" type="line"/>
      <point x="129" y="47"/>
      <point x="213" y="-6"/>
      <point x="341" y="-6" type="curve"/>
      <point x="405" y="-6"/>
      <point x="448" y="10"/>
      <point x="486" y="27" type="curve"/>
      <point x="446" y="128"/>
      <point x="486" y="27"/>
    </contour>
  </outline>
</glyph>
<glyph name="v" format="1">
  <advance width="781"/>
  <unicode hex="0076"/>
  <outline>
    <contour>
      <point x="156" y="533" type="curve"/>
      <point x="112" y="533"/>
      <point x="68" y="533"/>
      <point x="25" y="533" type="curve"/>
      <point x="25" y="419"/>
      <point x="25" y="533"/>
      <point x="25" y="419" type="curve"/>
      <point x="156" y="419"/>
      <point x="25" y="419"/>
      <point x="156" y="419" type="curve"/>
      <point x="156" y="533"/>
      <point x="156" y="419"/>
    </contour>
    <contour>
      <point x="156" y="419" type="curve"/>
      <point x="317" y="419"/>
      <point x="156" y="419"/>
      <point x="317" y="419" type="curve"/>
      <point x="317" y="533"/>
      <point x="317" y="419"/>
      <point x="317" y="533" type="curve"/>
      <point x="263" y="533"/>
      <point x="209" y="533"/>
      <point x="156" y="533" type="curve"/>
      <point x="156" y="419"/>
      <point x="156" y="533"/>
    </contour>
    <contour>
      <point x="631" y="533" type="curve"/>
      <point x="578" y="533"/>
      <point x="524" y="533"/>
      <point x="470" y="533" type="curve"/>
      <point x="470" y="419"/>
      <point x="470" y="533"/>
      <point x="470" y="419" type="curve"/>
      <point x="631" y="419"/>
      <point x="470" y="419"/>
      <point x="631" y="419" type="curve"/>
      <point x="631" y="533"/>
      <point x="631" y="419"/>
    </contour>
    <contour>
      <point x="631" y="419" type="curve"/>
      <point x="773" y="419"/>
      <point x="631" y="419"/>
      <point x="773" y="419" type="curve"/>
      <point x="773" y="533"/>
      <point x="773" y="419"/>
      <point x="773" y="533" type="curve"/>
      <point x="725" y="533"/>
      <point x="678" y="533"/>
      <point x="631" y="533" type="curve"/>
      <point x="631" y="419"/>
      <point x="631" y="533"/>
    </contour>
    <contour>
      <point x="46" y="533" type="curve"/>
      <point x="132" y="355"/>
      <point x="219" y="178"/>
      <point x="305" y="0" type="curve"/>
      <point x="460" y="0"/>
      <point x="305" y="0"/>
      <point x="460" y="0" type="curve"/>
      <point x="375" y="178"/>
      <point x="290" y="355"/>
      <point x="204" y="533" type="curve"/>
      <point x="46" y="533"/>
      <point x="204" y="533"/>
    </contour>
    <contour>
      <point x="584" y="533" type="curve"/>
      <point x="314" y="0" type="line"/>
      <point x="469" y="0"/>
      <point x="314" y="0"/>
      <point x="469" y="0" type="curve"/>
      <point x="560" y="178"/>
      <point x="650" y="355"/>
      <point x="741" y="533" type="curve"/>
      <point x="584" y="533"/>
      <point x="741" y="533"/>
    </contour>
  </outline>
</glyph>
<glyph name="w" format="1">
  <advance width="1198"/>
  <unicode hex="0077"/>
  <outline>
    <contour>
      <point x="1032" y="419" type="curve"/>
      <point x="1182" y="419"/>
      <point x="1032" y="419"/>
      <point x="1182" y="419" type="curve"/>
      <point x="1182" y="533"/>
      <point x="1182" y="419"/>
      <point x="1182" y="533" type="curve"/>
      <point x="1131" y="533"/>
      <point x="1081" y="533"/>
      <point x="1032" y="533" type="curve"/>
      <point x="1032" y="419"/>
      <point x="1032" y="533"/>
    </contour>
    <contour>
      <point x="1032" y="533" type="curve"/>
      <point x="981" y="533"/>
      <point x="930" y="533"/>
      <point x="880" y="533" type="curve"/>
      <point x="880" y="419"/>
      <point x="880" y="533"/>
      <point x="880" y="419" type="curve"/>
      <point x="1032" y="419"/>
      <point x="880" y="419"/>
      <point x="1032" y="419" type="curve"/>
      <point x="1032" y="533"/>
      <point x="1032" y="419"/>
    </contour>
    <contour>
      <point x="170" y="533" type="curve"/>
      <point x="120" y="533"/>
      <point x="70" y="533"/>
      <point x="20" y="533" type="curve"/>
      <point x="20" y="419"/>
      <point x="20" y="533"/>
      <point x="20" y="419" type="curve"/>
      <point x="170" y="419"/>
      <point x="20" y="419"/>
      <point x="170" y="419" type="curve"/>
      <point x="170" y="533"/>
      <point x="170" y="419"/>
    </contour>
    <contour>
      <point x="170" y="419" type="curve"/>
      <point x="320" y="419"/>
      <point x="170" y="419"/>
      <point x="320" y="419" type="curve"/>
      <point x="320" y="533"/>
      <point x="320" y="419"/>
      <point x="320" y="533" type="curve"/>
      <point x="270" y="533"/>
      <point x="221" y="533"/>
      <point x="170" y="533" type="curve"/>
      <point x="170" y="419"/>
      <point x="170" y="533"/>
    </contour>
    <contour>
      <point x="430" y="0" type="curve"/>
      <point x="514" y="178"/>
      <point x="598" y="355"/>
      <point x="683" y="533" type="curve"/>
      <point x="527" y="533"/>
      <point x="683" y="533"/>
      <point x="527" y="533" type="curve"/>
      <point x="443" y="355"/>
      <point x="361" y="178"/>
      <point x="278" y="0" type="curve"/>
      <point x="430" y="0"/>
      <point x="278" y="0"/>
    </contour>
    <contour>
      <point x="996" y="533" type="curve"/>
      <point x="918" y="355"/>
      <point x="841" y="178"/>
      <point x="763" y="0" type="curve"/>
      <point x="916" y="0"/>
      <point x="763" y="0"/>
      <point x="916" y="0" type="curve"/>
      <point x="996" y="178"/>
      <point x="1074" y="355"/>
      <point x="1153" y="533" type="curve"/>
      <point x="996" y="533"/>
      <point x="1153" y="533"/>
    </contour>
    <contour>
      <point x="534" y="533" type="curve"/>
      <point x="610" y="355"/>
      <point x="686" y="178"/>
      <point x="761" y="0" type="curve"/>
      <point x="915" y="0"/>
      <point x="761" y="0"/>
      <point x="915" y="0" type="curve"/>
      <point x="841" y="178"/>
      <point x="764" y="355"/>
      <point x="688" y="533" type="curve"/>
      <point x="534" y="533"/>
      <point x="688" y="533"/>
    </contour>
    <contour>
      <point x="50" y="533" type="curve"/>
      <point x="125" y="355"/>
      <point x="201" y="178"/>
      <point x="276" y="0" type="curve"/>
      <point x="429" y="0"/>
      <point x="276" y="0"/>
      <point x="429" y="0" type="curve"/>
      <point x="354" y="178"/>
      <point x="279" y="355"/>
      <point x="205" y="533" type="curve"/>
      <point x="50" y="533"/>
      <point x="205" y="533"/>
    </contour>
  </outline>
</glyph>
<glyph name="braceleft" format="1">
  <advance width="384"/>
  <unicode hex="007B"/>
  <outline>
    <contour>
      <point x="329" y="7" type="curve"/>
      <point x="284" y="7"/>
      <point x="255" y="27"/>
      <point x="255" y="68" type="curve"/>
      <point x="255" y="118"/>
      <point x="255" y="169"/>
      <point x="255" y="220" type="curve"/>
      <point x="255" y="337"/>
      <point x="165" y="402"/>
      <point x="41" y="402" type="curve"/>
      <point x="41" y="281"/>
      <point x="41" y="402"/>
      <point x="41" y="281" type="curve"/>
      <point x="82" y="281"/>
      <point x="113" y="268"/>
      <point x="113" y="230" type="curve"/>
      <point x="113" y="178"/>
      <point x="113" y="126"/>
      <point x="113" y="74" type="curve"/>
      <point x="113" y="-46"/>
      <point x="203" y="-107"/>
      <point x="329" y="-107" type="curve"/>
      <point x="329" y="7"/>
      <point x="329" y="-107"/>
    </contour>
    <contour>
      <point x="329" y="789" type="curve"/>
      <point x="203" y="789"/>
      <point x="113" y="731"/>
      <point x="113" y="612" type="curve"/>
      <point x="113" y="558"/>
      <point x="113" y="503"/>
      <point x="113" y="448" type="curve"/>
      <point x="113" y="412"/>
      <point x="81" y="402"/>
      <point x="41" y="402" type="curve"/>
      <point x="41" y="281"/>
      <point x="41" y="402"/>
      <point x="41" y="281" type="curve"/>
      <point x="166" y="281"/>
      <point x="255" y="345"/>
      <point x="255" y="465" type="curve"/>
      <point x="255" y="514"/>
      <point x="255" y="563"/>
      <point x="255" y="612" type="curve"/>
      <point x="255" y="654"/>
      <point x="284" y="675"/>
      <point x="329" y="675" type="curve"/>
      <point x="329" y="789"/>
      <point x="329" y="675"/>
    </contour>
  </outline>
</glyph>
<glyph name="bar" format="1">
  <advance width="322"/>
  <unicode hex="007C"/>
  <outline>
    <contour>
      <point x="239" y="-300" type="curve"/>
      <point x="239" y="67"/>
      <point x="239" y="433"/>
      <point x="239" y="800" type="curve"/>
      <point x="83" y="800"/>
      <point x="239" y="800"/>
      <point x="83" y="800" type="curve"/>
      <point x="83" y="433"/>
      <point x="83" y="67"/>
      <point x="83" y="-300" type="curve"/>
      <point x="239" y="-300"/>
      <point x="83" y="-300"/>
    </contour>
  </outline>
</glyph>
<glyph name="braceright" format="1">
  <advance width="385"/>
  <unicode hex="007D"/>
  <outline>
    <contour>
      <point x="57" y="-107" type="curve"/>
      <point x="183" y="-107"/>
      <point x="272" y="-46"/>
      <point x="272" y="74" type="curve"/>
      <point x="272" y="126"/>
      <point x="272" y="178"/>
      <point x="272" y="230" type="curve"/>
      <point x="272" y="268"/>
      <point x="303" y="281"/>
      <point x="344" y="281" type="curve"/>
      <point x="344" y="402"/>
      <point x="344" y="281"/>
      <point x="344" y="402" type="curve"/>
      <point x="219" y="402"/>
      <point x="129" y="337"/>
      <point x="129" y="220" type="curve"/>
      <point x="129" y="169"/>
      <point x="129" y="118"/>
      <point x="129" y="68" type="curve"/>
      <point x="129" y="27"/>
      <point x="100" y="7"/>
      <point x="57" y="7" type="curve"/>
      <point x="57" y="-107"/>
      <point x="57" y="7"/>
    </contour>
    <contour>
      <point x="57" y="675" type="curve"/>
      <point x="101" y="675"/>
      <point x="129" y="654"/>
      <point x="129" y="612" type="curve"/>
      <point x="129" y="563"/>
      <point x="129" y="514"/>
      <point x="129" y="465" type="curve"/>
      <point x="129" y="345"/>
      <point x="218" y="281"/>
      <point x="344" y="281" type="curve"/>
      <point x="344" y="402"/>
      <point x="344" y="281"/>
      <point x="344" y="402" type="curve"/>
      <point x="303" y="402"/>
      <point x="272" y="412"/>
      <point x="272" y="448" type="curve"/>
      <point x="272" y="503"/>
      <point x="272" y="558"/>
      <point x="272" y="612" type="curve"/>
      <point x="272" y="731"/>
      <point x="183" y="789"/>
      <point x="57" y="789" type="curve"/>
      <point x="57" y="675"/>
      <point x="57" y="789"/>
    </contour>
  </outline>
</glyph>
<glyph name="exclamdown" format="1">
  <advance width="307"/>
  <unicode hex="00A1"/>
  <outline>
    <contour>
      <point x="94" y="303" type="line"/>
      <point x="74" y="-190" type="line"/>
      <point x="234" y="-190" type="line"/>
      <point x="215" y="303" type="line"/>
    </contour>
    <contour>
      <point x="63" y="468" type="curve"/>
      <point x="63" y="418"/>
      <point x="102" y="394"/>
      <point x="155" y="393" type="curve"/>
      <point x="208" y="393"/>
      <point x="245" y="420"/>
      <point x="245" y="468" type="curve"/>
      <point x="63" y="468"/>
      <point x="244" y="468"/>
      <point x="63" y="468" type="curve"/>
      <point x="63" y="520"/>
      <point x="102" y="542"/>
      <point x="156" y="542" type="curve"/>
      <point x="209" y="542"/>
      <point x="245" y="518"/>
      <point x="245" y="468" type="curve"/>
      <point x="63" y="468"/>
      <point x="244" y="468"/>
    </contour>
  </outline>
</glyph>
<glyph name="cent" format="1">
  <advance width="839"/>
  <unicode hex="00A2"/>
  <outline>
    <contour>
      <point x="523" y="-53" type="curve"/>
      <point x="523" y="-13"/>
      <point x="523" y="27"/>
      <point x="523" y="67" type="curve"/>
      <point x="366" y="67"/>
      <point x="523" y="67"/>
      <point x="366" y="67" type="curve"/>
      <point x="366" y="27"/>
      <point x="366" y="-13"/>
      <point x="366" y="-53" type="curve"/>
      <point x="523" y="-53"/>
      <point x="366" y="-53"/>
    </contour>
    <contour>
      <point x="393" y="778" type="curve"/>
      <point x="393" y="742"/>
      <point x="393" y="706"/>
      <point x="393" y="670" type="curve"/>
      <point x="549" y="670"/>
      <point x="393" y="670"/>
      <point x="549" y="670" type="curve"/>
      <point x="549" y="706"/>
      <point x="549" y="742"/>
      <point x="549" y="778" type="curve"/>
      <point x="393" y="778"/>
      <point x="549" y="778"/>
    </contour>
    <contour>
      <point x="776" y="619" type="curve"/>
      <point x="676" y="669"/>
      <point x="596" y="687"/>
      <point x="482" y="687" type="curve"/>
      <point x="239" y="687"/>
      <point x="54" y="587"/>
      <point x="54" y="363" type="curve"/>
      <point x="54" y="153"/>
      <point x="213" y="44"/>
      <point x="436" y="44" type="curve"/>
      <point x="570" y="44"/>
      <point x="665" y="68"/>
      <point x="779" y="134" type="curve"/>
      <point x="697" y="237"/>
      <point x="779" y="134"/>
      <point x="697" y="237" type="curve"/>
      <point x="604" y="185"/>
      <point x="540" y="164"/>
      <point x="451" y="164" type="curve"/>
      <point x="310" y="164"/>
      <point x="210" y="235"/>
      <point x="210" y="369" type="curve"/>
      <point x="210" y="505"/>
      <point x="320" y="568"/>
      <point x="467" y="568" type="curve"/>
      <point x="554" y="568"/>
      <point x="615" y="553"/>
      <point x="709" y="514" type="curve"/>
      <point x="776" y="619"/>
      <point x="709" y="514"/>
    </contour>
    <contour>
      <point x="657" y="619" type="curve"/>
      <point x="657" y="492"/>
      <point x="657" y="588"/>
      <point x="657" y="462" type="curve"/>
      <point x="776" y="462"/>
      <point x="657" y="462"/>
      <point x="776" y="462" type="curve"/>
      <point x="776" y="588"/>
      <point x="776" y="492"/>
      <point x="776" y="619" type="curve"/>
      <point x="657" y="619"/>
      <point x="776" y="619"/>
    </contour>
  </outline>
</glyph>
<glyph name="sterling" format="1">
  <advance width="642"/>
  <unicode hex="00A3"/>
  <outline>
    <contour>
      <point x="559" y="114" type="curve"/>
      <point x="392" y="114"/>
      <point x="224" y="114"/>
      <point x="57" y="114" type="curve"/>
      <point x="57" y="0"/>
      <point x="57" y="114"/>
      <point x="57" y="0" type="curve"/>
      <point x="224" y="0"/>
      <point x="392" y="0"/>
      <point x="559" y="0" type="curve"/>
      <point x="559" y="114"/>
      <point x="559" y="0"/>
    </contour>
    <contour>
      <point x="500" y="432" type="curve"/>
      <point x="367" y="432"/>
      <point x="233" y="432"/>
      <point x="100" y="432" type="curve"/>
      <point x="100" y="317"/>
      <point x="100" y="432"/>
      <point x="100" y="317" type="curve"/>
      <point x="233" y="317"/>
      <point x="367" y="317"/>
      <point x="500" y="317" type="curve"/>
      <point x="500" y="432"/>
      <point x="500" y="317"/>
    </contour>
    <contour>
      <point x="599" y="661" type="curve"/>
      <point x="536" y="707"/>
      <point x="483" y="720"/>
      <point x="407" y="720" type="curve"/>
      <point x="213" y="720"/>
      <point x="98" y="561"/>
      <point x="156" y="363" type="curve"/>
      <point x="194" y="230"/>
      <point x="160" y="114"/>
      <point x="57" y="114" type="curve"/>
      <point x="57" y="0"/>
      <point x="57" y="114"/>
      <point x="57" y="0" type="curve"/>
      <point x="264" y="0"/>
      <point x="370" y="175"/>
      <point x="311" y="386" type="curve"/>
      <point x="276" y="507"/>
      <point x="311" y="612"/>
      <point x="400" y="612" type="curve"/>
      <point x="448" y="612"/>
      <point x="482" y="600"/>
      <point x="526" y="577" type="curve"/>
      <point x="599" y="661"/>
      <point x="526" y="577"/>
    </contour>
  </outline>
</glyph>
<glyph name="currency" format="1">
  <advance width="798"/>
  <unicode hex="00A4"/>
  <outline>
    <contour>
      <point x="295" y="317" type="curve"/>
      <point x="295" y="371"/>
      <point x="338" y="397"/>
      <point x="396" y="397" type="curve"/>
      <point x="460" y="397"/>
      <point x="506" y="372"/>
      <point x="506" y="315" type="curve"/>
      <point x="506" y="260"/>
      <point x="465" y="231"/>
      <point x="408" y="231" type="curve"/>
      <point x="342" y="231"/>
      <point x="295" y="257"/>
      <point x="295" y="317" type="curve"/>
      <point x="137" y="317"/>
      <point x="295" y="317"/>
      <point x="138" y="317" type="curve"/>
      <point x="138" y="178"/>
      <point x="252" y="116"/>
      <point x="402" y="116" type="curve"/>
      <point x="551" y="116"/>
      <point x="661" y="183"/>
      <point x="661" y="320" type="curve"/>
      <point x="661" y="451"/>
      <point x="552" y="512"/>
      <point x="411" y="512" type="curve"/>
      <point x="257" y="512"/>
      <point x="138" y="455"/>
      <point x="138" y="317" type="curve"/>
      <point x="295" y="317"/>
      <point x="137" y="317"/>
    </contour>
    <contour>
      <point x="567" y="295" type="line"/>
      <point x="738" y="454" type="line"/>
      <point x="616" y="576" type="line"/>
      <point x="458" y="403" type="line"/>
    </contour>
    <contour>
      <point x="460" y="230" type="line"/>
      <point x="617" y="58" type="line"/>
      <point x="740" y="181" type="line"/>
      <point x="568" y="338" type="line"/>
    </contour>
    <contour>
      <point x="231" y="341" type="line"/>
      <point x="59" y="183" type="line"/>
      <point x="181" y="61" type="line"/>
      <point x="340" y="233" type="line"/>
    </contour>
    <contour>
      <point x="341" y="405" type="line"/>
      <point x="182" y="578" type="line"/>
      <point x="60" y="456" type="line"/>
      <point x="231" y="297" type="line"/>
    </contour>
  </outline>
</glyph>
<glyph name="yen" format="1">
  <advance width="830"/>
  <unicode hex="00A5"/>
  <outline>
    <contour>
      <point x="692" y="449" type="curve"/>
      <point x="605" y="449"/>
      <point x="518" y="449"/>
      <point x="430" y="449" type="curve"/>
      <point x="430" y="323"/>
      <point x="430" y="449"/>
      <point x="430" y="323" type="curve"/>
      <point x="518" y="323"/>
      <point x="605" y="323"/>
      <point x="692" y="323" type="curve"/>
      <point x="692" y="449"/>
      <point x="692" y="323"/>
    </contour>
    <contour>
      <point x="394" y="449" type="curve"/>
      <point x="308" y="449"/>
      <point x="222" y="449"/>
      <point x="136" y="449" type="curve"/>
      <point x="136" y="323"/>
      <point x="136" y="449"/>
      <point x="136" y="323" type="curve"/>
      <point x="222" y="323"/>
      <point x="308" y="323"/>
      <point x="394" y="323" type="curve"/>
      <point x="394" y="449"/>
      <point x="394" y="323"/>
    </contour>
    <contour>
      <point x="692" y="281" type="curve"/>
      <point x="508" y="281"/>
      <point x="322" y="281"/>
      <point x="136" y="281" type="curve"/>
      <point x="136" y="156"/>
      <point x="136" y="281"/>
      <point x="136" y="156" type="curve"/>
      <point x="322" y="156"/>
      <point x="508" y="156"/>
      <point x="692" y="156" type="curve"/>
      <point x="692" y="281"/>
      <point x="692" y="156"/>
    </contour>
    <contour>
      <point x="408" y="114" type="curve"/>
      <point x="246" y="114"/>
      <point x="408" y="114"/>
      <point x="246" y="114" type="curve"/>
      <point x="246" y="0"/>
      <point x="246" y="114"/>
      <point x="246" y="0" type="curve"/>
      <point x="300" y="0"/>
      <point x="353" y="0"/>
      <point x="408" y="0" type="curve"/>
      <point x="408" y="114"/>
      <point x="408" y="0"/>
    </contour>
    <contour>
      <point x="408" y="0" type="curve"/>
      <point x="462" y="0"/>
      <point x="516" y="0"/>
      <point x="570" y="0" type="curve"/>
      <point x="570" y="114"/>
      <point x="570" y="0"/>
      <point x="570" y="114" type="curve"/>
      <point x="408" y="114"/>
      <point x="570" y="114"/>
      <point x="408" y="114" type="curve"/>
      <point x="408" y="0"/>
      <point x="408" y="114"/>
    </contour>
    <contour>
      <point x="645" y="722" type="curve"/>
      <point x="590" y="722"/>
      <point x="537" y="722"/>
      <point x="484" y="722" type="curve"/>
      <point x="484" y="608"/>
      <point x="484" y="722"/>
      <point x="484" y="608" type="curve"/>
      <point x="645" y="608"/>
      <point x="484" y="608"/>
      <point x="645" y="608" type="curve"/>
      <point x="645" y="722"/>
      <point x="645" y="608"/>
    </contour>
    <contour>
      <point x="183" y="722" type="curve"/>
      <point x="136" y="722"/>
      <point x="89" y="722"/>
      <point x="42" y="722" type="curve"/>
      <point x="42" y="608"/>
      <point x="42" y="722"/>
      <point x="42" y="608" type="curve"/>
      <point x="183" y="608"/>
      <point x="42" y="608"/>
      <point x="183" y="608" type="curve"/>
      <point x="183" y="722"/>
      <point x="183" y="608"/>
    </contour>
    <contour>
      <point x="185" y="608" type="curve"/>
      <point x="345" y="608"/>
      <point x="185" y="608"/>
      <point x="345" y="608" type="curve"/>
      <point x="345" y="722"/>
      <point x="345" y="608"/>
      <point x="345" y="722" type="curve"/>
      <point x="291" y="722"/>
      <point x="239" y="722"/>
      <point x="185" y="722" type="curve"/>
      <point x="185" y="608"/>
      <point x="185" y="722"/>
    </contour>
    <contour>
      <point x="646" y="608" type="curve"/>
      <point x="787" y="608"/>
      <point x="646" y="608"/>
      <point x="787" y="608" type="curve"/>
      <point x="787" y="722"/>
      <point x="787" y="608"/>
      <point x="787" y="722" type="curve"/>
      <point x="740" y="722"/>
      <point x="694" y="722"/>
      <point x="646" y="722" type="curve"/>
      <point x="646" y="608"/>
      <point x="646" y="722"/>
    </contour>
    <contour>
      <point x="66" y="685" type="curve"/>
      <point x="154" y="569"/>
      <point x="240" y="453"/>
      <point x="329" y="337" type="curve"/>
      <point x="486" y="337"/>
      <point x="327" y="337"/>
      <point x="484" y="337" type="curve"/>
      <point x="387" y="466"/>
      <point x="292" y="594"/>
      <point x="195" y="722" type="curve"/>
      <point x="66" y="722"/>
      <point x="195" y="685"/>
    </contour>
    <contour>
      <point x="638" y="722" type="curve"/>
      <point x="536" y="594"/>
      <point x="433" y="465"/>
      <point x="330" y="337" type="curve"/>
      <point x="488" y="337"/>
      <point x="330" y="337"/>
      <point x="487" y="337" type="curve"/>
      <point x="581" y="454"/>
      <point x="673" y="571"/>
      <point x="767" y="688" type="curve"/>
      <point x="638" y="688"/>
      <point x="767" y="722"/>
    </contour>
    <contour>
      <point x="494" y="0" type="curve"/>
      <point x="494" y="115"/>
      <point x="494" y="230"/>
      <point x="494" y="345" type="curve"/>
      <point x="323" y="345"/>
      <point x="494" y="345"/>
      <point x="323" y="345" type="curve"/>
      <point x="323" y="230"/>
      <point x="323" y="115"/>
      <point x="323" y="0" type="curve"/>
      <point x="494" y="0"/>
      <point x="323" y="0"/>
    </contour>
  </outline>
</glyph>
<glyph name="section" format="1">
  <advance width="677"/>
  <unicode hex="00A7"/>
  <outline>
    <contour>
      <point x="549" y="703" type="curve"/>
      <point x="476" y="732"/>
      <point x="422" y="748"/>
      <point x="344" y="748" type="curve"/>
      <point x="207" y="748"/>
      <point x="100" y="707"/>
      <point x="100" y="592" type="curve"/>
      <point x="100" y="491"/>
      <point x="181" y="449"/>
      <point x="286" y="423" type="curve"/>
      <point x="365" y="404"/>
      <point x="466" y="406"/>
      <point x="466" y="353" type="curve"/>
      <point x="466" y="299"/>
      <point x="404" y="293"/>
      <point x="338" y="284" type="curve"/>
      <point x="429" y="192"/>
      <point x="338" y="284"/>
      <point x="429" y="192" type="curve"/>
      <point x="540" y="212"/>
      <point x="621" y="257"/>
      <point x="621" y="361" type="curve"/>
      <point x="620" y="487"/>
      <point x="497" y="502"/>
      <point x="363" y="531" type="curve"/>
      <point x="312" y="545"/>
      <point x="255" y="548"/>
      <point x="255" y="592" type="curve"/>
      <point x="255" y="627"/>
      <point x="289" y="634"/>
      <point x="331" y="634" type="curve"/>
      <point x="387" y="634"/>
      <point x="426" y="627"/>
      <point x="490" y="604" type="curve"/>
      <point x="549" y="703"/>
      <point x="490" y="604"/>
    </contour>
    <contour>
      <point x="246" y="529" type="curve"/>
      <point x="141" y="506"/>
      <point x="58" y="467"/>
      <point x="58" y="366" type="curve"/>
      <point x="58" y="249"/>
      <point x="164" y="221"/>
      <point x="288" y="193" type="curve"/>
      <point x="353" y="176"/>
      <point x="430" y="172"/>
      <point x="430" y="128" type="curve"/>
      <point x="430" y="93"/>
      <point x="389" y="88"/>
      <point x="343" y="88" type="curve"/>
      <point x="281" y="88"/>
      <point x="238" y="98"/>
      <point x="168" y="126" type="curve"/>
      <point x="98" y="34"/>
      <point x="168" y="126"/>
      <point x="98" y="34" type="curve"/>
      <point x="179" y="-9"/>
      <point x="244" y="-26"/>
      <point x="336" y="-26" type="curve"/>
      <point x="472" y="-26"/>
      <point x="586" y="12"/>
      <point x="586" y="134" type="curve"/>
      <point x="584" y="239"/>
      <point x="496" y="278"/>
      <point x="388" y="302" type="curve"/>
      <point x="308" y="321"/>
      <point x="214" y="317"/>
      <point x="214" y="378" type="curve"/>
      <point x="214" y="423"/>
      <point x="266" y="430"/>
      <point x="323" y="443" type="curve"/>
      <point x="246" y="529"/>
      <point x="323" y="443"/>
    </contour>
    <contour>
      <point x="217" y="34" type="curve"/>
      <point x="217" y="154"/>
      <point x="217" y="43"/>
      <point x="217" y="163" type="curve"/>
      <point x="98" y="163"/>
      <point x="217" y="163"/>
      <point x="98" y="163" type="curve"/>
      <point x="98" y="43"/>
      <point x="98" y="154"/>
      <point x="98" y="34" type="curve"/>
      <point x="217" y="34"/>
      <point x="98" y="34"/>
    </contour>
    <contour>
      <point x="549" y="574" type="curve"/>
      <point x="549" y="694"/>
      <point x="549" y="583"/>
      <point x="549" y="703" type="curve"/>
      <point x="430" y="703"/>
      <point x="549" y="703"/>
      <point x="430" y="703" type="curve"/>
      <point x="430" y="583"/>
      <point x="430" y="694"/>
      <point x="430" y="574" type="curve"/>
      <point x="549" y="574"/>
      <point x="430" y="574"/>
    </contour>
  </outline>
</glyph>
<glyph name="dieresis" format="1">
  <advance width="459"/>
  <unicode hex="00A8"/>
  <outline>
    <contour>
      <point x="236" y="510" type="move" name="_top"/>
    </contour>
    <contour>
      <point x="210" y="580" type="curve"/>
      <point x="210" y="631"/>
      <point x="170" y="655"/>
      <point x="117" y="655" type="curve"/>
      <point x="65" y="655"/>
      <point x="28" y="628"/>
      <point x="28" y="580" type="curve"/>
      <point x="209" y="580"/>
      <point x="28" y="580"/>
      <point x="210" y="580" type="curve"/>
      <point x="210" y="529"/>
      <point x="170" y="507"/>
      <point x="117" y="507" type="curve"/>
      <point x="64" y="507"/>
      <point x="28" y="532"/>
      <point x="28" y="580" type="curve"/>
      <point x="209" y="580"/>
      <point x="28" y="580"/>
    </contour>
    <contour>
      <point x="445" y="580" type="curve"/>
      <point x="445" y="631"/>
      <point x="406" y="655"/>
      <point x="352" y="655" type="curve"/>
      <point x="299" y="655"/>
      <point x="263" y="628"/>
      <point x="263" y="580" type="curve"/>
      <point x="445" y="580"/>
      <point x="263" y="580"/>
      <point x="445" y="580" type="curve"/>
      <point x="445" y="529"/>
      <point x="406" y="507"/>
      <point x="351" y="507" type="curve"/>
      <point x="299" y="507"/>
      <point x="263" y="532"/>
      <point x="263" y="580" type="curve"/>
      <point x="445" y="580"/>
      <point x="263" y="580"/>
    </contour>
  </outline>
</glyph>
<glyph name="copyright" format="1">
  <advance width="1001"/>
  <unicode hex="00A9"/>
  <outline>
    <contour>
      <point x="186" y="325" type="curve"/>
      <point x="186" y="483"/>
      <point x="332" y="553"/>
      <point x="504" y="553" type="curve"/>
      <point x="674" y="553"/>
      <point x="816" y="479"/>
      <point x="816" y="322" type="curve"/>
      <point x="816" y="171"/>
      <point x="679" y="97"/>
      <point x="514" y="97" type="curve"/>
      <point x="339" y="97"/>
      <point x="186" y="165"/>
      <point x="186" y="325" type="curve"/>
      <point x="61" y="325"/>
      <point x="186" y="325"/>
      <point x="61" y="325" type="curve"/>
      <point x="61" y="105"/>
      <point x="266" y="7"/>
      <point x="509" y="7" type="curve"/>
      <point x="745" y="7"/>
      <point x="940" y="111"/>
      <point x="940" y="327" type="curve"/>
      <point x="940" y="543"/>
      <point x="742" y="645"/>
      <point x="504" y="645" type="curve"/>
      <point x="265" y="645"/>
      <point x="61" y="545"/>
      <point x="61" y="325" type="curve"/>
      <point x="186" y="325"/>
      <point x="61" y="325"/>
    </contour>
    <contour>
      <point x="576" y="413" type="curve"/>
      <point x="576" y="400"/>
      <point x="576" y="391"/>
      <point x="576" y="377" type="curve"/>
      <point x="690" y="377"/>
      <point x="578" y="377"/>
      <point x="692" y="377" type="curve"/>
      <point x="692" y="408"/>
      <point x="692" y="440"/>
      <point x="692" y="470" type="curve"/>
      <point x="578" y="420"/>
      <point x="690" y="463"/>
    </contour>
    <contour>
      <point x="692" y="470" type="curve"/>
      <point x="639" y="500"/>
      <point x="580" y="515"/>
      <point x="510" y="515" type="curve"/>
      <point x="366" y="515"/>
      <point x="257" y="455"/>
      <point x="257" y="323" type="curve"/>
      <point x="257" y="197"/>
      <point x="357" y="138"/>
      <point x="490" y="138" type="curve"/>
      <point x="570" y="138"/>
      <point x="626" y="147"/>
      <point x="694" y="188" type="curve"/>
      <point x="635" y="260"/>
      <point x="694" y="188"/>
      <point x="635" y="260" type="curve"/>
      <point x="575" y="236"/>
      <point x="543" y="230"/>
      <point x="496" y="230" type="curve"/>
      <point x="429" y="230"/>
      <point x="381" y="263"/>
      <point x="381" y="328" type="curve"/>
      <point x="381" y="394"/>
      <point x="433" y="422"/>
      <point x="505" y="422" type="curve"/>
      <point x="535" y="422"/>
      <point x="558" y="418"/>
      <point x="577" y="413" type="curve"/>
      <point x="690" y="463"/>
      <point x="578" y="420"/>
    </contour>
  </outline>
</glyph>
<glyph name="ordfeminine" format="1">
  <advance width="557"/>
  <unicode hex="00AA"/>
  <outline>
    <contour>
      <point x="77" y="735" type="curve"/>
      <point x="77" y="656"/>
      <point x="77" y="730"/>
      <point x="77" y="651" type="curve"/>
      <point x="159" y="651"/>
      <point x="78" y="651"/>
      <point x="159" y="651" type="curve"/>
      <point x="159" y="730"/>
      <point x="159" y="656"/>
      <point x="159" y="735" type="curve"/>
      <point x="78" y="735"/>
      <point x="159" y="735"/>
    </contour>
    <contour>
      <point x="452" y="426" type="curve"/>
      <point x="452" y="508"/>
      <point x="452" y="586"/>
      <point x="452" y="668" type="curve"/>
      <point x="452" y="765"/>
      <point x="366" y="786"/>
      <point x="263" y="786" type="curve"/>
      <point x="184" y="786"/>
      <point x="126" y="766"/>
      <point x="77" y="735" type="curve"/>
      <point x="118" y="670"/>
      <point x="83" y="731"/>
      <point x="124" y="667" type="curve"/>
      <point x="151" y="688"/>
      <point x="192" y="709"/>
      <point x="248" y="709" type="curve"/>
      <point x="300" y="709"/>
      <point x="346" y="700"/>
      <point x="346" y="651" type="curve"/>
      <point x="346" y="575"/>
      <point x="346" y="501"/>
      <point x="346" y="426" type="curve"/>
      <point x="451" y="426"/>
      <point x="347" y="426"/>
    </contour>
    <contour>
      <point x="401" y="426" type="curve"/>
      <point x="434" y="426"/>
      <point x="466" y="426"/>
      <point x="500" y="426" type="curve"/>
      <point x="500" y="503"/>
      <point x="500" y="426"/>
      <point x="500" y="503" type="curve"/>
      <point x="402" y="503"/>
      <point x="499" y="503"/>
      <point x="401" y="503" type="curve"/>
      <point x="401" y="426"/>
      <point x="401" y="503"/>
    </contour>
    <contour>
      <point x="396" y="659" type="curve"/>
      <point x="331" y="653"/>
      <point x="292" y="651"/>
      <point x="227" y="645" type="curve"/>
      <point x="129" y="636"/>
      <point x="53" y="622"/>
      <point x="53" y="536" type="curve"/>
      <point x="53" y="452"/>
      <point x="119" y="422"/>
      <point x="213" y="422" type="curve"/>
      <point x="306" y="422"/>
      <point x="350" y="461"/>
      <point x="421" y="528" type="curve"/>
      <point x="373" y="567"/>
      <point x="420" y="528"/>
      <point x="372" y="566" type="curve"/>
      <point x="325" y="526"/>
      <point x="287" y="497"/>
      <point x="229" y="497" type="curve"/>
      <point x="187" y="497"/>
      <point x="156" y="505"/>
      <point x="156" y="537" type="curve"/>
      <point x="156" y="568"/>
      <point x="188" y="573"/>
      <point x="223" y="576" type="curve"/>
      <point x="292" y="582"/>
      <point x="332" y="587"/>
      <point x="401" y="594" type="curve"/>
      <point x="396" y="659"/>
      <point x="401" y="595"/>
    </contour>
  </outline>
</glyph>
<glyph name="guillemotleft" format="1">
  <advance width="687"/>
  <unicode hex="00AB"/>
  <outline>
    <contour>
      <point x="314" y="481" type="curve"/>
      <point x="244" y="448"/>
      <point x="122" y="385"/>
      <point x="53" y="352" type="curve"/>
      <point x="53" y="225"/>
      <point x="53" y="350"/>
      <point x="53" y="223" type="curve"/>
      <point x="122" y="257"/>
      <point x="244" y="320"/>
      <point x="314" y="354" type="curve"/>
      <point x="314" y="480"/>
      <point x="314" y="355"/>
    </contour>
    <contour>
      <point x="314" y="223" type="curve"/>
      <point x="244" y="256"/>
      <point x="122" y="317"/>
      <point x="53" y="352" type="curve"/>
      <point x="53" y="225"/>
      <point x="53" y="350"/>
      <point x="53" y="223" type="curve"/>
      <point x="122" y="190"/>
      <point x="244" y="130"/>
      <point x="314" y="95" type="curve"/>
      <point x="314" y="222"/>
      <point x="314" y="96"/>
    </contour>
    <contour>
      <point x="608" y="481" type="curve"/>
      <point x="538" y="448"/>
      <point x="416" y="385"/>
      <point x="346" y="352" type="curve"/>
      <point x="346" y="225"/>
      <point x="346" y="350"/>
      <point x="346" y="223" type="curve"/>
      <point x="416" y="257"/>
      <point x="538" y="320"/>
      <point x="608" y="354" type="curve"/>
      <point x="608" y="480"/>
      <point x="608" y="355"/>
    </contour>
    <contour>
      <point x="608" y="223" type="curve"/>
      <point x="538" y="256"/>
      <point x="416" y="317"/>
      <point x="346" y="352" type="curve"/>
      <point x="346" y="225"/>
      <point x="346" y="350"/>
      <point x="346" y="223" type="curve"/>
      <point x="416" y="190"/>
      <point x="538" y="130"/>
      <point x="608" y="95" type="curve"/>
      <point x="608" y="222"/>
      <point x="608" y="96"/>
    </contour>
  </outline>
</glyph>
<glyph name="logicalnot" format="1">
  <advance width="781"/>
  <unicode hex="00AC"/>
  <outline>
    <contour>
      <point x="83" y="251" type="curve"/>
      <point x="702" y="251" type="line"/>
      <point x="702" y="376"/>
      <point x="702" y="251"/>
      <point x="702" y="376" type="curve"/>
      <point x="83" y="376" type="line"/>
      <point x="83" y="251"/>
      <point x="83" y="376"/>
    </contour>
    <contour>
      <point x="702" y="139" type="curve"/>
      <point x="702" y="376" type="line"/>
      <point x="547" y="376"/>
      <point x="711" y="376"/>
      <point x="556" y="376" type="curve"/>
      <point x="556" y="139" type="line"/>
      <point x="711" y="139"/>
      <point x="547" y="139"/>
    </contour>
  </outline>
</glyph>
<glyph name="registered" format="1">
  <advance width="1005"/>
  <unicode hex="00AE"/>
  <outline>
    <contour>
      <point x="176" y="325" type="curve"/>
      <point x="176" y="495"/>
      <point x="319" y="562"/>
      <point x="506" y="562" type="curve"/>
      <point x="691" y="562"/>
      <point x="828" y="491"/>
      <point x="828" y="322" type="curve"/>
      <point x="828" y="158"/>
      <point x="695" y="88"/>
      <point x="516" y="88" type="curve"/>
      <point x="324" y="88"/>
      <point x="176" y="152"/>
      <point x="176" y="325" type="curve"/>
      <point x="134" y="325"/>
      <point x="105" y="325"/>
      <point x="62" y="325" type="curve"/>
      <point x="62" y="95"/>
      <point x="257" y="7"/>
      <point x="511" y="7" type="curve"/>
      <point x="758" y="7"/>
      <point x="942" y="102"/>
      <point x="942" y="327" type="curve"/>
      <point x="942" y="553"/>
      <point x="755" y="645"/>
      <point x="506" y="645" type="curve"/>
      <point x="254" y="645"/>
      <point x="62" y="554"/>
      <point x="62" y="325" type="curve"/>
      <point x="105" y="325"/>
      <point x="134" y="325"/>
    </contour>
    <contour>
      <point x="595" y="140" type="curve"/>
      <point x="644" y="140"/>
      <point x="671" y="140"/>
      <point x="718" y="140" type="curve"/>
      <point x="718" y="233"/>
      <point x="718" y="140"/>
      <point x="718" y="233" type="curve"/>
      <point x="701" y="233"/>
      <point x="702" y="233"/>
      <point x="685" y="233" type="curve"/>
      <point x="597" y="152"/>
      <point x="679" y="235"/>
    </contour>
    <contour>
      <point x="475" y="510" type="curve"/>
      <point x="416" y="510"/>
      <point x="367" y="510"/>
      <point x="308" y="510" type="curve"/>
      <point x="308" y="418"/>
      <point x="308" y="510"/>
      <point x="308" y="418" type="curve"/>
      <point x="327" y="418"/>
      <point x="332" y="418"/>
      <point x="349" y="418" type="curve"/>
      <point x="475" y="510"/>
      <point x="349" y="418"/>
    </contour>
    <contour>
      <point x="475" y="233" type="curve"/>
      <point x="416" y="233"/>
      <point x="367" y="233"/>
      <point x="308" y="233" type="curve"/>
      <point x="308" y="140"/>
      <point x="308" y="233"/>
      <point x="308" y="140" type="curve"/>
      <point x="327" y="140"/>
      <point x="332" y="140"/>
      <point x="349" y="140" type="curve"/>
      <point x="475" y="233"/>
      <point x="349" y="140"/>
    </contour>
    <contour>
      <point x="349" y="140" type="curve"/>
      <point x="405" y="140"/>
      <point x="447" y="140"/>
      <point x="502" y="140" type="curve"/>
      <point x="502" y="233"/>
      <point x="502" y="140"/>
      <point x="502" y="233" type="curve"/>
      <point x="489" y="233"/>
      <point x="487" y="233"/>
      <point x="475" y="233" type="curve"/>
      <point x="349" y="140"/>
      <point x="475" y="233"/>
    </contour>
    <contour>
      <point x="462" y="317" type="curve"/>
      <point x="504" y="265"/>
      <point x="553" y="192"/>
      <point x="595" y="140" type="curve"/>
      <point x="685" y="227"/>
      <point x="601" y="143"/>
      <point x="685" y="233" type="curve"/>
      <point x="612" y="316" type="line"/>
      <point x="458" y="316"/>
      <point x="615" y="317"/>
    </contour>
    <contour>
      <point x="473" y="233" type="curve"/>
      <point x="473" y="325"/>
      <point x="473" y="417"/>
      <point x="473" y="510" type="curve"/>
      <point x="348" y="418"/>
      <point x="475" y="510"/>
      <point x="349" y="418" type="curve"/>
      <point x="349" y="326"/>
      <point x="349" y="232"/>
      <point x="349" y="140" type="curve"/>
      <point x="475" y="233"/>
      <point x="348" y="140"/>
    </contour>
    <contour>
      <point x="414" y="268" type="curve"/>
      <point x="438" y="268"/>
      <point x="462" y="268"/>
      <point x="486" y="268" type="curve"/>
      <point x="598" y="268"/>
      <point x="683" y="290"/>
      <point x="683" y="392" type="curve"/>
      <point x="683" y="478"/>
      <point x="608" y="510"/>
      <point x="512" y="510" type="curve"/>
      <point x="499" y="510"/>
      <point x="487" y="510"/>
      <point x="475" y="510" type="curve"/>
      <point x="349" y="418"/>
      <point x="475" y="510"/>
      <point x="349" y="418" type="curve"/>
      <point x="396" y="418"/>
      <point x="443" y="418"/>
      <point x="489" y="418" type="curve"/>
      <point x="527" y="418"/>
      <point x="560" y="419"/>
      <point x="560" y="387" type="curve"/>
      <point x="560" y="359"/>
      <point x="534" y="359"/>
      <point x="504" y="359" type="curve"/>
      <point x="474" y="359"/>
      <point x="444" y="359"/>
      <point x="414" y="359" type="curve"/>
      <point x="414" y="268"/>
      <point x="414" y="359"/>
    </contour>
  </outline>
</glyph>
<glyph name="degree" format="1">
  <advance width="621"/>
  <unicode hex="00B0"/>
  <outline>
    <contour>
      <point x="560" y="497" type="curve"/>
      <point x="560" y="634"/>
      <point x="457" y="709"/>
      <point x="312" y="709" type="curve"/>
      <point x="166" y="709"/>
      <point x="61" y="637"/>
      <point x="61" y="499" type="curve"/>
      <point x="191" y="499"/>
      <point x="68" y="499"/>
      <point x="198" y="499" type="curve"/>
      <point x="198" y="560"/>
      <point x="241" y="598"/>
      <point x="309" y="598" type="curve"/>
      <point x="374" y="598"/>
      <point x="421" y="563"/>
      <point x="421" y="497" type="curve"/>
      <point x="421" y="431"/>
      <point x="378" y="390"/>
      <point x="311" y="390" type="curve"/>
      <point x="243" y="390"/>
      <point x="198" y="432"/>
      <point x="198" y="499" type="curve"/>
      <point x="68" y="499"/>
      <point x="191" y="499"/>
      <point x="61" y="499" type="curve"/>
      <point x="61" y="358"/>
      <point x="162" y="281"/>
      <point x="307" y="281" type="curve"/>
      <point x="455" y="281"/>
      <point x="560" y="356"/>
    </contour>
  </outline>
</glyph>
<glyph name="plusminus" format="1">
  <advance width="765"/>
  <unicode hex="00B1"/>
  <outline>
    <contour>
      <point x="66" y="22" type="line"/>
      <point x="699" y="22" type="line"/>
      <point x="699" y="147" type="line"/>
      <point x="66" y="147" type="line"/>
    </contour>
    <contour>
      <point x="66" y="251" type="curve"/>
      <point x="699" y="251" type="line"/>
      <point x="699" y="376"/>
      <point x="699" y="251"/>
      <point x="699" y="376" type="curve"/>
      <point x="66" y="376" type="line"/>
      <point x="66" y="251"/>
      <point x="66" y="376"/>
    </contour>
    <contour>
      <point x="460" y="22" type="curve"/>
      <point x="460" y="587" type="line"/>
      <point x="304" y="587"/>
      <point x="469" y="587"/>
      <point x="314" y="587" type="curve"/>
      <point x="314" y="22" type="line"/>
      <point x="469" y="22"/>
      <point x="304" y="22"/>
    </contour>
  </outline>
</glyph>
<glyph name="twosuperior" format="1">
  <advance width="602"/>
  <unicode hex="00B2"/>
  <outline>
    <contour>
      <point x="287" y="716" type="move" name="_top"/>
    </contour>
    <contour>
      <point x="316" y="265" type="move" name="_bottom"/>
    </contour>
    <contour>
      <point x="548" y="264" type="curve"/>
      <point x="548" y="314"/>
      <point x="548" y="364"/>
      <point x="548" y="415" type="curve"/>
      <point x="436" y="415"/>
      <point x="550" y="415"/>
      <point x="438" y="415" type="curve"/>
      <point x="438" y="401"/>
      <point x="438" y="389"/>
      <point x="438" y="376" type="curve"/>
      <point x="560" y="277"/>
      <point x="424" y="363"/>
    </contour>
    <contour>
      <point x="70" y="264" type="curve"/>
      <point x="272" y="264"/>
      <point x="411" y="264"/>
      <point x="548" y="264" type="curve"/>
      <point x="424" y="363"/>
      <point x="560" y="277"/>
      <point x="438" y="376" type="curve"/>
      <point x="315" y="376"/>
      <point x="191" y="376"/>
      <point x="70" y="376" type="curve"/>
      <point x="70" y="264"/>
      <point x="70" y="376"/>
    </contour>
    <contour>
      <point x="177" y="556" type="curve"/>
      <point x="212" y="590"/>
      <point x="243" y="605"/>
      <point x="284" y="605" type="curve"/>
      <point x="326" y="605"/>
      <point x="362" y="594"/>
      <point x="362" y="566" type="curve"/>
      <point x="362" y="532"/>
      <point x="332" y="518"/>
      <point x="303" y="499" type="curve"/>
      <point x="226" y="457"/>
      <point x="147" y="417"/>
      <point x="70" y="376" type="curve"/>
      <point x="70" y="268"/>
      <point x="74" y="376"/>
      <point x="74" y="268" type="curve"/>
      <point x="203" y="330"/>
      <point x="298" y="368"/>
      <point x="380" y="414" type="curve"/>
      <point x="453" y="460"/>
      <point x="516" y="491"/>
      <point x="516" y="569" type="curve"/>
      <point x="516" y="677"/>
      <point x="421" y="717"/>
      <point x="302" y="717" type="curve"/>
      <point x="204" y="717"/>
      <point x="127" y="690"/>
      <point x="75" y="623" type="curve"/>
      <point x="177" y="556"/>
      <point x="75" y="623"/>
    </contour>
  </outline>
</glyph>
<glyph name="threesuperior" format="1">
  <advance width="541"/>
  <unicode hex="00B3"/>
  <outline>
    <contour>
      <point x="263" y="716" type="move" name="_top"/>
    </contour>
    <contour>
      <point x="248" y="256" type="move" name="_bottom"/>
    </contour>
    <contour>
      <point x="122" y="570" type="curve"/>
      <point x="160" y="598"/>
      <point x="203" y="607"/>
      <point x="231" y="607" type="curve"/>
      <point x="275" y="607"/>
      <point x="309" y="601"/>
      <point x="309" y="574" type="curve"/>
      <point x="309" y="539"/>
      <point x="239" y="537"/>
      <point x="180" y="537" type="curve"/>
      <point x="180" y="444"/>
      <point x="180" y="537"/>
      <point x="180" y="444" type="curve"/>
      <point x="328" y="445"/>
      <point x="463" y="457"/>
      <point x="463" y="580" type="curve"/>
      <point x="463" y="686"/>
      <point x="366" y="715"/>
      <point x="247" y="715" type="curve"/>
      <point x="176" y="715"/>
      <point x="110" y="692"/>
      <point x="58" y="651" type="curve"/>
      <point x="122" y="570"/>
      <point x="58" y="651"/>
    </contour>
    <contour>
      <point x="56" y="298" type="curve"/>
      <point x="110" y="274"/>
      <point x="161" y="257"/>
      <point x="220" y="257" type="curve"/>
      <point x="365" y="253"/>
      <point x="485" y="280"/>
      <point x="482" y="404" type="curve"/>
      <point x="482" y="537"/>
      <point x="334" y="525"/>
      <point x="180" y="527" type="curve"/>
      <point x="180" y="443"/>
      <point x="180" y="527"/>
      <point x="180" y="443" type="curve"/>
      <point x="254" y="443"/>
      <point x="328" y="443"/>
      <point x="328" y="404" type="curve"/>
      <point x="328" y="367"/>
      <point x="284" y="360"/>
      <point x="236" y="361" type="curve"/>
      <point x="200" y="361"/>
      <point x="166" y="368"/>
      <point x="115" y="384" type="curve"/>
      <point x="56" y="298"/>
      <point x="115" y="384"/>
    </contour>
  </outline>
</glyph>
<glyph name="acute" format="1">
  <advance width="592"/>
  <unicode hex="00B4"/>
  <outline>
    <contour>
      <point x="153" y="588" type="move" name="_top"/>
    </contour>
    <contour>
      <point x="216" y="587" type="line"/>
      <point x="403" y="753" type="line"/>
      <point x="202" y="753" type="line"/>
      <point x="63" y="587" type="line"/>
    </contour>
  </outline>
</glyph>
<glyph name="paragraph" format="1">
  <advance width="999"/>
  <unicode hex="00B6"/>
  <outline>
    <contour>
      <point x="570" y="608" type="curve"/>
      <point x="759" y="608"/>
      <point x="570" y="608"/>
      <point x="759" y="608" type="curve"/>
      <point x="759" y="722"/>
      <point x="759" y="608"/>
      <point x="759" y="722" type="curve"/>
      <point x="696" y="722"/>
      <point x="633" y="722"/>
      <point x="570" y="722" type="curve"/>
      <point x="570" y="608"/>
      <point x="570" y="722"/>
    </contour>
    <contour>
      <point x="570" y="0" type="curve"/>
      <point x="633" y="0"/>
      <point x="696" y="0"/>
      <point x="759" y="0" type="curve"/>
      <point x="759" y="114"/>
      <point x="759" y="0"/>
      <point x="759" y="114" type="curve"/>
      <point x="570" y="114"/>
      <point x="759" y="114"/>
      <point x="570" y="114" type="curve"/>
      <point x="570" y="0"/>
      <point x="570" y="114"/>
    </contour>
    <contour>
      <point x="570" y="114" type="curve"/>
      <point x="382" y="114"/>
      <point x="570" y="114"/>
      <point x="382" y="114" type="curve"/>
      <point x="382" y="0"/>
      <point x="382" y="114"/>
      <point x="382" y="0" type="curve"/>
      <point x="570" y="0"/>
      <point x="507" y="0"/>
      <point x="570" y="0" type="curve"/>
      <point x="570" y="114"/>
      <point x="570" y="0"/>
    </contour>
    <contour>
      <point x="544" y="391" type="curve"/>
      <point x="482" y="369"/>
      <point x="434" y="358"/>
      <point x="369" y="358" type="curve"/>
      <point x="275" y="358"/>
      <point x="197" y="388"/>
      <point x="197" y="472" type="curve"/>
      <point x="197" y="578"/>
      <point x="300" y="608"/>
      <point x="419" y="608" type="curve"/>
      <point x="468" y="608"/>
      <point x="518" y="608"/>
      <point x="567" y="608" type="curve"/>
      <point x="567" y="722"/>
      <point x="567" y="608"/>
      <point x="567" y="722" type="curve"/>
      <point x="510" y="722"/>
      <point x="454" y="722"/>
      <point x="398" y="722" type="curve"/>
      <point x="203" y="722"/>
      <point x="41" y="654"/>
      <point x="41" y="478" type="curve"/>
      <point x="41" y="310"/>
      <point x="194" y="247"/>
      <point x="383" y="244" type="curve"/>
      <point x="459" y="244"/>
      <point x="522" y="263"/>
      <point x="593" y="289" type="curve"/>
      <point x="544" y="391"/>
      <point x="593" y="289"/>
    </contour>
    <contour>
      <point x="650" y="0" type="curve"/>
      <point x="650" y="241"/>
      <point x="650" y="481"/>
      <point x="650" y="722" type="curve"/>
      <point x="493" y="722"/>
      <point x="650" y="722"/>
      <point x="493" y="722" type="curve"/>
      <point x="493" y="481"/>
      <point x="493" y="241"/>
      <point x="493" y="0" type="curve"/>
      <point x="650" y="0"/>
      <point x="493" y="0"/>
    </contour>
    <contour>
      <point x="906" y="0" type="curve"/>
      <point x="906" y="241"/>
      <point x="906" y="481"/>
      <point x="906" y="722" type="curve"/>
      <point x="751" y="722"/>
      <point x="906" y="722"/>
      <point x="751" y="722" type="curve"/>
      <point x="751" y="481"/>
      <point x="751" y="241"/>
      <point x="751" y="0" type="curve"/>
      <point x="906" y="0"/>
      <point x="751" y="0"/>
    </contour>
  </outline>
</glyph>
<glyph name="periodcentered" format="1">
  <advance width="306"/>
  <unicode hex="00B7"/>
  <outline>
    <contour>
      <point x="245" y="440" type="curve"/>
      <point x="245" y="491"/>
      <point x="205" y="515"/>
      <point x="152" y="515" type="curve"/>
      <point x="99" y="515"/>
      <point x="63" y="488"/>
      <point x="63" y="440" type="curve"/>
      <point x="244" y="440"/>
      <point x="63" y="440"/>
      <point x="245" y="440" type="curve"/>
      <point x="245" y="388"/>
      <point x="205" y="366"/>
      <point x="151" y="366" type="curve"/>
      <point x="98" y="366"/>
      <point x="63" y="391"/>
      <point x="63" y="440" type="curve"/>
      <point x="244" y="440"/>
      <point x="63" y="440"/>
    </contour>
  </outline>
</glyph>
<glyph name="cedilla" format="1">
  <advance width="463"/>
  <unicode hex="00B8"/>
  <outline>
    <contour>
      <point x="295" y="99" type="move" name="_bottom"/>
    </contour>
    <contour>
      <point x="201" y="178" type="curve"/>
      <point x="185" y="157"/>
      <point x="106" y="52"/>
      <point x="90" y="31" type="curve"/>
      <point x="196" y="-60"/>
      <point x="90" y="31"/>
      <point x="196" y="-60" type="curve"/>
      <point x="217" y="-34"/>
      <point x="302" y="73"/>
      <point x="322" y="99" type="curve"/>
      <point x="201" y="178"/>
      <point x="322" y="99"/>
    </contour>
    <contour>
      <point x="196" y="-60" type="curve"/>
      <point x="201" y="-57"/>
      <point x="205" y="-55"/>
      <point x="210" y="-55" type="curve"/>
      <point x="219" y="-55"/>
      <point x="226" y="-58"/>
      <point x="226" y="-65" type="curve"/>
      <point x="226" y="-78"/>
      <point x="213" y="-81"/>
      <point x="198" y="-81" type="curve"/>
      <point x="172" y="-81"/>
      <point x="149" y="-73"/>
      <point x="113" y="-59" type="curve"/>
      <point x="70" y="-147"/>
      <point x="113" y="-59"/>
      <point x="70" y="-147" type="curve"/>
      <point x="112" y="-165"/>
      <point x="145" y="-175"/>
      <point x="191" y="-175" type="curve"/>
      <point x="290" y="-175"/>
      <point x="369" y="-149"/>
      <point x="369" y="-60" type="curve"/>
      <point x="369" y="19"/>
      <point x="304" y="55"/>
      <point x="218" y="55" type="curve"/>
      <point x="170" y="55"/>
      <point x="137" y="47"/>
      <point x="90" y="31" type="curve"/>
      <point x="196" y="-60"/>
      <point x="90" y="31"/>
    </contour>
  </outline>
</glyph>
<glyph name="onesuperior" format="1">
  <advance width="449"/>
  <unicode hex="00B9"/>
  <outline>
    <contour>
      <point x="245" y="706" type="move" name="_top"/>
    </contour>
    <contour>
      <point x="260" y="265" type="move" name="_bottom"/>
    </contour>
    <contour>
      <point x="179" y="265" type="curve"/>
      <point x="249" y="265"/>
      <point x="318" y="265"/>
      <point x="388" y="265" type="curve"/>
      <point x="388" y="377"/>
      <point x="388" y="256"/>
      <point x="388" y="368" type="curve"/>
      <point x="370" y="368"/>
      <point x="350" y="368"/>
      <point x="333" y="368" type="curve"/>
      <point x="179" y="256"/>
      <point x="333" y="377"/>
    </contour>
    <contour>
      <point x="333" y="368" type="curve"/>
      <point x="262" y="368"/>
      <point x="191" y="368"/>
      <point x="120" y="368" type="curve"/>
      <point x="120" y="256"/>
      <point x="120" y="377"/>
      <point x="120" y="265" type="curve"/>
      <point x="140" y="265"/>
      <point x="160" y="265"/>
      <point x="179" y="265" type="curve"/>
      <point x="333" y="377"/>
      <point x="179" y="256"/>
    </contour>
    <contour>
      <point x="110" y="517" type="line"/>
      <point x="333" y="707" type="line"/>
      <point x="179" y="707" type="line"/>
      <point x="43" y="598" type="line"/>
    </contour>
    <contour>
      <point x="333" y="368" type="curve"/>
      <point x="333" y="707" type="line"/>
      <point x="179" y="707" type="line"/>
      <point x="179" y="265" type="line"/>
      <point x="333" y="377"/>
      <point x="179" y="256"/>
    </contour>
  </outline>
</glyph>
<glyph name="ordmasculine" format="1">
  <advance width="554"/>
  <unicode hex="00BA"/>
  <outline>
    <contour>
      <point x="153" y="606" type="curve"/>
      <point x="153" y="672"/>
      <point x="199" y="711"/>
      <point x="272" y="711" type="curve"/>
      <point x="350" y="711"/>
      <point x="401" y="673"/>
      <point x="401" y="605" type="curve"/>
      <point x="401" y="533"/>
      <point x="350" y="499"/>
      <point x="280" y="499" type="curve"/>
      <point x="204" y="499"/>
      <point x="153" y="533"/>
      <point x="153" y="606" type="curve"/>
      <point x="56" y="606"/>
      <point x="144" y="606"/>
      <point x="47" y="606" type="curve"/>
      <point x="47" y="478"/>
      <point x="142" y="421"/>
      <point x="275" y="421" type="curve"/>
      <point x="410" y="421"/>
      <point x="507" y="476"/>
      <point x="507" y="605" type="curve"/>
      <point x="507" y="727"/>
      <point x="413" y="790"/>
      <point x="277" y="790" type="curve"/>
      <point x="140" y="790"/>
      <point x="47" y="727"/>
      <point x="47" y="606" type="curve"/>
      <point x="144" y="606"/>
      <point x="56" y="606"/>
    </contour>
  </outline>
</glyph>
<glyph name="guillemotright" format="1">
  <advance width="687"/>
  <unicode hex="00BB"/>
  <outline>
    <contour>
      <point x="374" y="481" type="curve"/>
      <point x="444" y="448"/>
      <point x="566" y="385"/>
      <point x="636" y="352" type="curve"/>
      <point x="636" y="225"/>
      <point x="636" y="350"/>
      <point x="636" y="223" type="curve"/>
      <point x="566" y="257"/>
      <point x="444" y="320"/>
      <point x="374" y="354" type="curve"/>
      <point x="374" y="480"/>
      <point x="374" y="355"/>
    </contour>
    <contour>
      <point x="374" y="223" type="curve"/>
      <point x="444" y="256"/>
      <point x="566" y="317"/>
      <point x="636" y="352" type="curve"/>
      <point x="636" y="225"/>
      <point x="636" y="350"/>
      <point x="636" y="223" type="curve"/>
      <point x="566" y="190"/>
      <point x="444" y="130"/>
      <point x="374" y="95" type="curve"/>
      <point x="374" y="222"/>
      <point x="374" y="96"/>
    </contour>
    <contour>
      <point x="79" y="481" type="curve"/>
      <point x="149" y="448"/>
      <point x="271" y="385"/>
      <point x="341" y="352" type="curve"/>
      <point x="341" y="225"/>
      <point x="341" y="350"/>
      <point x="341" y="223" type="curve"/>
      <point x="271" y="257"/>
      <point x="149" y="320"/>
      <point x="79" y="354" type="curve"/>
      <point x="79" y="480"/>
      <point x="79" y="355"/>
    </contour>
    <contour>
      <point x="79" y="223" type="curve"/>
      <point x="149" y="256"/>
      <point x="271" y="317"/>
      <point x="341" y="352" type="curve"/>
      <point x="341" y="225"/>
      <point x="341" y="350"/>
      <point x="341" y="223" type="curve"/>
      <point x="271" y="190"/>
      <point x="149" y="130"/>
      <point x="79" y="95" type="curve"/>
      <point x="79" y="222"/>
      <point x="79" y="96"/>
    </contour>
  </outline>
</glyph>
<glyph name="onequarter" format="1">
  <advance width="1165"/>
  <unicode hex="00BC"/>
  <outline>
    <contour>
      <point x="389" y="-32" type="line"/>
      <point x="920" y="704" type="line"/>
      <point x="778" y="704" type="line"/>
      <point x="247" y="-32" type="line"/>
    </contour>
    <contour>
      <point x="173" y="264" type="curve"/>
      <point x="242" y="264"/>
      <point x="312" y="264"/>
      <point x="381" y="264" type="curve"/>
      <point x="381" y="377"/>
      <point x="381" y="255"/>
      <point x="381" y="368" type="curve"/>
      <point x="364" y="368"/>
      <point x="345" y="368"/>
      <point x="327" y="368" type="curve"/>
      <point x="173" y="255"/>
      <point x="327" y="377"/>
    </contour>
    <contour>
      <point x="327" y="368" type="curve"/>
      <point x="256" y="368"/>
      <point x="185" y="368"/>
      <point x="114" y="368" type="curve"/>
      <point x="114" y="255"/>
      <point x="114" y="377"/>
      <point x="114" y="264" type="curve"/>
      <point x="133" y="264"/>
      <point x="154" y="264"/>
      <point x="173" y="264" type="curve"/>
      <point x="327" y="377"/>
      <point x="173" y="255"/>
    </contour>
    <contour>
      <point x="103" y="516" type="line"/>
      <point x="327" y="706" type="line"/>
      <point x="173" y="706" type="line"/>
      <point x="36" y="598" type="line"/>
    </contour>
    <contour>
      <point x="327" y="368" type="curve"/>
      <point x="327" y="706" type="line"/>
      <point x="173" y="706" type="line"/>
      <point x="173" y="264" type="line"/>
      <point x="327" y="377"/>
      <point x="173" y="255"/>
    </contour>
    <contour>
      <point x="1117" y="208" type="line"/>
      <point x="654" y="208" type="line"/>
      <point x="654" y="101" type="line"/>
      <point x="1117" y="101" type="line"/>
    </contour>
    <contour>
      <point x="686" y="115" type="line"/>
      <point x="996" y="409" type="line"/>
      <point x="877" y="425" type="line"/>
      <point x="654" y="208" type="line"/>
    </contour>
    <contour>
      <point x="1030" y="-36" type="line"/>
      <point x="1030" y="425" type="line"/>
      <point x="877" y="425" type="line"/>
      <point x="877" y="-36" type="line"/>
    </contour>
    <contour>
      <point x="953" y="66" type="line"/>
      <point x="815" y="66" type="line"/>
      <point x="815" y="-36" type="line"/>
      <point x="953" y="-36" type="line"/>
    </contour>
    <contour>
      <point x="953" y="-36" type="line"/>
      <point x="1092" y="-36" type="line"/>
      <point x="1092" y="66" type="line"/>
      <point x="953" y="66" type="line"/>
    </contour>
  </outline>
</glyph>
<glyph name="onehalf" format="1">
  <advance width="1217"/>
  <unicode hex="00BD"/>
  <outline>
    <contour>
      <point x="393" y="-32" type="line"/>
      <point x="924" y="704" type="line"/>
      <point x="783" y="704" type="line"/>
      <point x="251" y="-32" type="line"/>
    </contour>
    <contour>
      <point x="173" y="264" type="curve"/>
      <point x="242" y="264"/>
      <point x="312" y="264"/>
      <point x="381" y="264" type="curve"/>
      <point x="381" y="377"/>
      <point x="381" y="255"/>
      <point x="381" y="368" type="curve"/>
      <point x="364" y="368"/>
      <point x="344" y="368"/>
      <point x="327" y="368" type="curve"/>
      <point x="173" y="255"/>
      <point x="327" y="377"/>
    </contour>
    <contour>
      <point x="327" y="368" type="curve"/>
      <point x="256" y="368"/>
      <point x="185" y="368"/>
      <point x="114" y="368" type="curve"/>
      <point x="114" y="255"/>
      <point x="114" y="377"/>
      <point x="114" y="264" type="curve"/>
      <point x="133" y="264"/>
      <point x="153" y="264"/>
      <point x="173" y="264" type="curve"/>
      <point x="327" y="377"/>
      <point x="173" y="255"/>
    </contour>
    <contour>
      <point x="103" y="516" type="line"/>
      <point x="327" y="706" type="line"/>
      <point x="173" y="706" type="line"/>
      <point x="36" y="598" type="line"/>
    </contour>
    <contour>
      <point x="327" y="368" type="curve"/>
      <point x="327" y="706" type="line"/>
      <point x="173" y="706" type="line"/>
      <point x="173" y="264" type="line"/>
      <point x="327" y="377"/>
      <point x="173" y="255"/>
    </contour>
    <contour>
      <point x="1179" y="-38" type="curve"/>
      <point x="1179" y="11"/>
      <point x="1179" y="62"/>
      <point x="1179" y="113" type="curve"/>
      <point x="1067" y="113"/>
      <point x="1181" y="113"/>
      <point x="1069" y="113" type="curve"/>
      <point x="1069" y="99"/>
      <point x="1069" y="86"/>
      <point x="1069" y="74" type="curve"/>
      <point x="1191" y="-25"/>
      <point x="1055" y="60"/>
    </contour>
    <contour>
      <point x="700" y="-38" type="curve"/>
      <point x="903" y="-38"/>
      <point x="1042" y="-38"/>
      <point x="1179" y="-38" type="curve"/>
      <point x="1055" y="60"/>
      <point x="1191" y="-25"/>
      <point x="1069" y="74" type="curve"/>
      <point x="946" y="74"/>
      <point x="822" y="74"/>
      <point x="700" y="74" type="curve"/>
      <point x="700" y="-38"/>
      <point x="700" y="74"/>
    </contour>
    <contour>
      <point x="807" y="254" type="curve"/>
      <point x="843" y="288"/>
      <point x="874" y="302"/>
      <point x="915" y="302" type="curve"/>
      <point x="957" y="302"/>
      <point x="993" y="293"/>
      <point x="993" y="264" type="curve"/>
      <point x="993" y="230"/>
      <point x="962" y="216"/>
      <point x="934" y="197" type="curve"/>
      <point x="856" y="154"/>
      <point x="778" y="115"/>
      <point x="700" y="74" type="curve"/>
      <point x="700" y="-35"/>
      <point x="705" y="74"/>
      <point x="705" y="-35" type="curve"/>
      <point x="833" y="29"/>
      <point x="929" y="66"/>
      <point x="1010" y="111" type="curve"/>
      <point x="1084" y="157"/>
      <point x="1147" y="189"/>
      <point x="1147" y="268" type="curve"/>
      <point x="1147" y="375"/>
      <point x="1051" y="414"/>
      <point x="933" y="414" type="curve"/>
      <point x="835" y="414"/>
      <point x="758" y="388"/>
      <point x="706" y="321" type="curve"/>
      <point x="807" y="254"/>
      <point x="706" y="321"/>
    </contour>
  </outline>
</glyph>
<glyph name="threequarters" format="1">
  <advance width="1159"/>
  <unicode hex="00BE"/>
  <outline>
    <contour>
      <point x="406" y="-32" type="line"/>
      <point x="937" y="704" type="line"/>
      <point x="794" y="704" type="line"/>
      <point x="264" y="-32" type="line"/>
    </contour>
    <contour>
      <point x="110" y="560" type="curve"/>
      <point x="148" y="588"/>
      <point x="191" y="596"/>
      <point x="220" y="596" type="curve"/>
      <point x="263" y="596"/>
      <point x="297" y="591"/>
      <point x="297" y="562" type="curve"/>
      <point x="297" y="528"/>
      <point x="228" y="526"/>
      <point x="169" y="525" type="curve"/>
      <point x="169" y="433"/>
      <point x="169" y="525"/>
      <point x="169" y="433" type="curve"/>
      <point x="317" y="434"/>
      <point x="451" y="445"/>
      <point x="451" y="570" type="curve"/>
      <point x="451" y="675"/>
      <point x="355" y="703"/>
      <point x="235" y="703" type="curve"/>
      <point x="165" y="703"/>
      <point x="98" y="680"/>
      <point x="46" y="640" type="curve"/>
      <point x="110" y="560"/>
      <point x="46" y="640"/>
    </contour>
    <contour>
      <point x="44" y="286" type="curve"/>
      <point x="99" y="263"/>
      <point x="151" y="246"/>
      <point x="209" y="246" type="curve"/>
      <point x="354" y="242"/>
      <point x="474" y="269"/>
      <point x="470" y="392" type="curve"/>
      <point x="470" y="527"/>
      <point x="323" y="513"/>
      <point x="169" y="516" type="curve"/>
      <point x="169" y="432"/>
      <point x="169" y="516"/>
      <point x="169" y="432" type="curve"/>
      <point x="242" y="431"/>
      <point x="317" y="432"/>
      <point x="317" y="393" type="curve"/>
      <point x="317" y="356"/>
      <point x="272" y="349"/>
      <point x="224" y="350" type="curve"/>
      <point x="188" y="350"/>
      <point x="154" y="357"/>
      <point x="103" y="373" type="curve"/>
      <point x="44" y="286"/>
      <point x="103" y="373"/>
    </contour>
    <contour>
      <point x="1117" y="208" type="line"/>
      <point x="654" y="208" type="line"/>
      <point x="654" y="101" type="line"/>
      <point x="1117" y="101" type="line"/>
    </contour>
    <contour>
      <point x="686" y="115" type="line"/>
      <point x="996" y="409" type="line"/>
      <point x="877" y="425" type="line"/>
      <point x="654" y="208" type="line"/>
    </contour>
    <contour>
      <point x="1030" y="-36" type="line"/>
      <point x="1030" y="425" type="line"/>
      <point x="877" y="425" type="line"/>
      <point x="877" y="-36" type="line"/>
    </contour>
    <contour>
      <point x="953" y="66" type="line"/>
      <point x="815" y="66" type="line"/>
      <point x="815" y="-36" type="line"/>
      <point x="953" y="-36" type="line"/>
    </contour>
    <contour>
      <point x="953" y="-36" type="line"/>
      <point x="1091" y="-36" type="line"/>
      <point x="1091" y="66" type="line"/>
      <point x="953" y="66" type="line"/>
    </contour>
  </outline>
</glyph>
